<svg width="74" height="74" viewBox="0 0 74 74" fill="none" xmlns="http://www.w3.org/2000/svg">
<circle cx="37" cy="37" r="36.5067" fill="white" stroke="white" stroke-width="0.986667"/>
<circle cx="37.0001" cy="37" r="16.7733" stroke="#C30350" stroke-width="0.986667"/>
<path d="M36.7287 11.0165C35.3375 11.0165 34.2056 9.88454 34.2056 8.49335C34.2056 7.10216 35.3375 5.97021 36.7287 5.97021C38.1199 5.97021 39.2518 7.10216 39.2518 8.49335C39.2518 9.88454 38.1199 11.0165 36.7287 11.0165Z" fill="#C30350"/>
<path d="M31.5291 11.4668C30.317 11.4668 29.2749 10.6006 29.0515 9.40636C28.9277 8.74349 29.0689 8.07292 29.45 7.51658C29.8312 6.96023 30.4055 6.58612 31.0684 6.46228C31.2224 6.4334 31.3796 6.41864 31.5349 6.41864C32.7471 6.41864 33.7892 7.28493 34.0125 8.47847C34.1363 9.14134 33.9945 9.81191 33.614 10.3683C33.2328 10.9246 32.6585 11.2987 31.9956 11.4226C31.8416 11.4514 31.6844 11.4662 31.5291 11.4662V11.4668Z" fill="#C30350"/>
<path d="M26.5274 12.9427C25.4937 12.9427 24.5478 12.2946 24.1737 11.3301C23.9299 10.7019 23.9459 10.0159 24.218 9.39927C24.4901 8.7826 24.9861 8.30903 25.6149 8.06519C25.9082 7.95161 26.2143 7.89386 26.5261 7.89386C27.5599 7.89386 28.5058 8.54197 28.8799 9.50643C29.1231 10.1347 29.1077 10.8206 28.8356 11.4373C28.5635 12.054 28.0675 12.5275 27.4386 12.7714C27.1454 12.8849 26.8393 12.9427 26.5274 12.9427Z" fill="#C30350"/>
<path d="M21.9091 15.2524C21.0274 15.2524 20.2247 14.8057 19.7614 14.0569C19.0286 12.8742 19.395 11.3156 20.5783 10.5828C20.978 10.3351 21.4368 10.2042 21.9046 10.2042C22.7863 10.2042 23.5891 10.6508 24.0524 11.3996C24.7852 12.5823 24.4188 14.1409 23.2355 14.8738C22.8357 15.1215 22.3769 15.2524 21.9091 15.2524Z" fill="#C30350"/>
<path d="M17.7352 18.3973C17.0268 18.3973 16.3466 18.097 15.8698 17.574C14.9323 16.546 15.0061 14.9469 16.0341 14.0094C16.4999 13.5846 17.1038 13.3504 17.7339 13.3504C18.4423 13.3504 19.1225 13.6507 19.5993 14.1737C20.5368 15.2017 20.463 16.8008 19.435 17.7383C18.9692 18.1631 18.3653 18.3973 17.7352 18.3973Z" fill="#C30350"/>
<path d="M14.2043 22.247C13.6525 22.247 13.1275 22.0705 12.6861 21.7375C11.5753 20.8988 11.3539 19.3138 12.1926 18.203C12.6739 17.5652 13.4086 17.2001 14.2088 17.2001C14.7607 17.2001 15.2856 17.3765 15.727 17.7096C16.8378 18.5476 17.0592 20.1333 16.2205 21.244C15.7392 21.8819 15.0045 22.247 14.2043 22.247Z" fill="#C30350"/>
<path d="M11.4446 26.6759C11.0532 26.6759 10.6752 26.5867 10.3223 26.4109C9.71913 26.1106 9.26866 25.5934 9.05433 24.9543C8.84001 24.3152 8.88749 23.6311 9.1878 23.0273C9.61774 22.1642 10.484 21.6277 11.4491 21.6277C11.8406 21.6277 12.2185 21.7169 12.5714 21.8928C13.1746 22.1931 13.6251 22.7103 13.8394 23.3494C14.0538 23.9885 14.0063 24.6726 13.706 25.2764C13.276 26.1395 12.4097 26.6759 11.4446 26.6759Z" fill="#C30350"/>
<path d="M9.58794 31.552C9.355 31.552 9.12271 31.5193 8.89683 31.4551C8.24872 31.271 7.71098 30.8449 7.38244 30.2565C7.05453 29.6674 6.97496 28.9866 7.15913 28.3378C7.46586 27.2578 8.46369 26.5038 9.58537 26.5038C9.8183 26.5038 10.0506 26.5366 10.2765 26.6007C11.615 26.9813 12.3941 28.3795 12.0135 29.7181C11.7068 30.7981 10.709 31.552 9.58729 31.552H9.58794Z" fill="#C30350"/>
<path d="M8.62621 36.6849C8.54792 36.6849 8.469 36.681 8.39071 36.674C7.00529 36.5456 5.98244 35.3149 6.11013 33.9288C6.23077 32.6223 7.30946 31.6373 8.61979 31.6373C8.69808 31.6373 8.77701 31.6412 8.85529 31.6482C10.2407 31.7766 11.2636 33.0073 11.1359 34.3934C11.0152 35.6999 9.93591 36.6849 8.62621 36.6849Z" fill="#C30350"/>
<path d="M8.61981 41.8825C7.31075 41.8825 6.23143 40.8982 6.11015 39.5923C6.0479 38.9211 6.25068 38.266 6.68125 37.7475C7.11183 37.229 7.71823 36.9088 8.38944 36.8465C8.46773 36.8395 8.5473 36.8356 8.62622 36.8356C9.93528 36.8356 11.0146 37.82 11.1359 39.1258C11.1981 39.797 10.9954 40.4522 10.5648 40.9707C10.1342 41.4892 9.5278 41.8094 8.85659 41.8716C8.7783 41.8787 8.69873 41.8825 8.61981 41.8825Z" fill="#C30350"/>
<path d="M9.58443 47.0167C8.46339 47.0167 7.4662 46.2627 7.15883 45.184C6.77767 43.8461 7.55604 42.4472 8.89461 42.066C9.12113 42.0018 9.35406 41.9691 9.587 41.9691C10.708 41.9691 11.7052 42.7231 12.0126 43.8018C12.1974 44.4499 12.1185 45.1314 11.7906 45.7205C11.4627 46.3095 10.9249 46.7356 10.2768 46.9204C10.0503 46.9846 9.81736 47.0173 9.58443 47.0173V47.0167Z" fill="#C30350"/>
<path d="M11.4489 51.8934C10.4844 51.8934 9.61814 51.3576 9.1882 50.4952C8.56768 49.2496 9.0759 47.7314 10.3214 47.1109C10.675 46.9344 11.053 46.8452 11.445 46.8452C12.4095 46.8452 13.2758 47.381 13.7057 48.2435C14.3262 49.489 13.818 51.0072 12.5725 51.6277C12.2189 51.8042 11.841 51.8934 11.4489 51.8934Z" fill="#C30350"/>
<path d="M14.2083 56.3198C13.4087 56.3198 12.6746 55.9547 12.1934 55.3175C11.3547 54.2073 11.5748 52.6217 12.6849 51.783C13.127 51.4494 13.6519 51.2729 14.2044 51.2729C15.004 51.2729 15.7381 51.638 16.2193 52.2752C16.6255 52.813 16.7981 53.4771 16.7057 54.1445C16.6127 54.8118 16.2655 55.4035 15.7278 55.8097C15.2863 56.1433 14.7608 56.3198 14.2083 56.3198Z" fill="#C30350"/>
<path d="M17.7341 60.1707C17.1046 60.1707 16.5014 59.9371 16.0356 59.5129C15.0069 58.5761 14.9325 56.977 15.8694 55.9483C16.3468 55.4247 17.027 55.1244 17.7354 55.1244C18.3649 55.1244 18.9681 55.358 19.434 55.7821C20.4626 56.719 20.537 58.3181 19.6002 59.3467C19.1228 59.8703 18.4426 60.1707 17.7341 60.1707Z" fill="#C30350"/>
<path d="M21.9044 63.3159C21.4372 63.3159 20.9791 63.185 20.5793 62.9379C20.0062 62.5831 19.6052 62.0267 19.4505 61.3709C19.2959 60.7151 19.4063 60.0381 19.7605 59.4644C20.2238 58.7156 21.0272 58.2683 21.9089 58.2683C22.376 58.2683 22.8342 58.3992 23.234 58.6463C23.807 59.0011 24.2081 59.5575 24.3627 60.2133C24.5173 60.8691 24.407 61.5461 24.0528 62.1198C23.5895 62.8686 22.7861 63.3159 21.9044 63.3159Z" fill="#C30350"/>
<path d="M26.5259 65.6263C26.2147 65.6263 25.9086 65.5692 25.616 65.4556C24.9872 65.2124 24.4911 64.7388 24.2184 64.1228C23.9457 63.5061 23.9296 62.8208 24.1728 62.1919C24.5463 61.2268 25.4922 60.5781 26.5272 60.5781C26.8384 60.5781 27.1445 60.6358 27.4371 60.7488C28.7346 61.2506 29.3821 62.7149 28.8803 64.0124C28.5068 64.9775 27.561 65.6263 26.5266 65.6263H26.5259Z" fill="#C30350"/>
<path d="M31.5994 67.0377C31.4441 67.0377 31.2875 67.023 31.1342 66.9947C30.4713 66.8715 29.897 66.4968 29.5158 65.9411C29.1346 65.3854 28.9928 64.7142 29.116 64.0513C29.3387 62.8571 30.3808 61.9902 31.5936 61.9902C31.7489 61.9902 31.9055 62.0049 32.0588 62.0332C32.7217 62.1564 33.296 62.5311 33.6772 63.0868C34.0584 63.6425 34.2002 64.3137 34.077 64.9766C33.8543 66.1708 32.8122 67.0377 31.5994 67.0377Z" fill="#C30350"/>
<path d="M36.7929 67.5497C35.4024 67.5497 34.2704 66.4184 34.2698 65.0278C34.2698 64.3541 34.5316 63.7201 35.0077 63.2433C35.4839 62.7665 36.1178 62.5034 36.7916 62.5034C38.1835 62.5034 39.3154 63.6347 39.316 65.0253C39.3167 66.4165 38.1854 67.549 36.7942 67.5497H36.7929Z" fill="#C30350"/>
<path d="M41.9887 67.0376C40.7772 67.0376 39.7351 66.1719 39.5111 64.979C39.3866 64.3168 39.5278 63.6456 39.909 63.0892C40.2895 62.5329 40.8638 62.1581 41.5267 62.0343C41.6813 62.0054 41.8385 61.9907 41.9945 61.9907C43.206 61.9907 44.2481 62.8563 44.4721 64.0492C44.7287 65.4167 43.8246 66.7379 42.4571 66.9946C42.3025 67.0235 42.1453 67.0382 41.9893 67.0382L41.9887 67.0376Z" fill="#C30350"/>
<path d="M46.9973 65.6256C45.9475 65.6256 45.0241 64.9929 44.6442 64.0143C44.4004 63.3861 44.4158 62.7001 44.6878 62.0834C44.9599 61.4668 45.4553 60.9926 46.0842 60.7487C46.3774 60.6351 46.6848 60.5774 46.9967 60.5774C48.0465 60.5774 48.9699 61.2101 49.3497 62.1887C49.8528 63.4855 49.2073 64.9505 47.9104 65.4543C47.6172 65.5678 47.3098 65.6256 46.9979 65.6256H46.9973Z" fill="#C30350"/>
<path d="M51.6191 63.3159C50.7381 63.3159 49.9353 62.8692 49.472 62.1217C48.7386 60.939 49.1043 59.3804 50.287 58.6475C50.6867 58.3992 51.1462 58.2683 51.614 58.2683C52.495 58.2683 53.2978 58.7149 53.7611 59.4625C54.1166 60.0355 54.227 60.7125 54.073 61.3683C53.919 62.0248 53.5185 62.5818 52.9461 62.9366C52.5464 63.185 52.0869 63.3159 51.6191 63.3159Z" fill="#C30350"/>
<path d="M55.7875 60.1708C55.0798 60.1708 54.4002 59.8711 53.9234 59.3487C52.9853 58.3208 53.0584 56.7217 54.0858 55.7835C54.5516 55.3581 55.1555 55.1238 55.7863 55.1238C56.494 55.1238 57.1736 55.4235 57.6504 55.9458C58.5885 56.9738 58.5154 58.5729 57.488 59.5111C57.0222 59.9365 56.4183 60.1708 55.7875 60.1708Z" fill="#C30350"/>
<path d="M59.3147 56.3204C58.7634 56.3204 58.2385 56.1446 57.7971 55.8116C57.2587 55.4054 56.9109 54.8144 56.8172 54.147C56.7235 53.4797 56.8955 52.8155 57.3017 52.2771C57.7829 51.6387 58.5183 51.2729 59.3185 51.2729C59.8697 51.2729 60.3946 51.4487 60.8361 51.7818C61.3745 52.1873 61.7223 52.7789 61.816 53.4463C61.9097 54.1137 61.7377 54.7778 61.3315 55.3162C60.8502 55.9547 60.1149 56.3204 59.3147 56.3204Z" fill="#C30350"/>
<path d="M62.0746 51.8293C61.6839 51.8293 61.3065 51.7401 60.9536 51.5649C60.3498 51.2646 59.8993 50.748 59.685 50.1089C59.4707 49.4698 59.5175 48.7857 59.8172 48.1819C60.2465 47.3175 61.1134 46.7811 62.0791 46.7811C62.4699 46.7811 62.8472 46.8703 63.2002 47.0454C64.4463 47.6647 64.9558 49.1823 64.3366 50.4285C63.9073 51.2928 63.0404 51.8293 62.0746 51.8293Z" fill="#C30350"/>
<path d="M63.9387 47.0172C63.7064 47.0172 63.4742 46.9845 63.2489 46.921C61.9103 46.5411 61.1301 45.1435 61.5099 43.8049C61.8167 42.7243 62.8145 41.9697 63.9362 41.9697C64.1685 41.9697 64.4008 42.0024 64.626 42.0659C65.2741 42.2501 65.8125 42.6755 66.141 43.264C66.4696 43.8524 66.5491 44.5339 66.365 45.182C66.0583 46.2626 65.0604 47.0172 63.9387 47.0172Z" fill="#C30350"/>
<path d="M64.9013 41.8825C64.8237 41.8825 64.7454 41.8787 64.6678 41.8716C63.2823 41.7446 62.2588 40.5131 62.3859 39.1277C62.5059 37.8206 63.5852 36.835 64.8956 36.835C64.9732 36.835 65.0515 36.8388 65.1291 36.8459C66.5146 36.9729 67.5381 38.2043 67.411 39.5897C67.291 40.8969 66.2117 41.8825 64.9013 41.8825Z" fill="#C30350"/>
<path d="M64.8953 36.6208C63.5868 36.6208 62.5075 35.6371 62.3856 34.3318C62.256 32.9464 63.2782 31.7137 64.6636 31.5848C64.7425 31.5771 64.8227 31.5739 64.9017 31.5739C66.2101 31.5739 67.2894 32.5576 67.4113 33.8628C67.541 35.2482 66.5187 36.4802 65.1333 36.6099C65.0544 36.6176 64.9742 36.6208 64.8953 36.6208Z" fill="#C30350"/>
<path d="M63.9358 31.5528C62.8154 31.5528 61.8182 30.7995 61.5108 29.7214C61.326 29.0733 61.4043 28.3919 61.7316 27.8028C62.0588 27.2137 62.5966 26.787 63.2447 26.6022C63.4712 26.5374 63.7048 26.5046 63.9383 26.5046C65.0587 26.5046 66.0559 27.258 66.3633 28.336C66.5481 28.9841 66.4698 29.6656 66.1426 30.2547C65.8153 30.8438 65.2776 31.2699 64.6295 31.4553C64.4029 31.5201 64.1694 31.5528 63.9358 31.5528Z" fill="#C30350"/>
<path d="M62.0139 26.6753C61.0501 26.6753 60.1845 26.1401 59.7539 25.2783C59.4529 24.6751 59.4048 23.9911 59.6185 23.352C59.8322 22.7128 60.282 22.195 60.8852 21.894C61.2388 21.7176 61.6174 21.6277 62.0101 21.6277C62.9739 21.6277 63.8402 22.1629 64.2701 23.0254C64.8913 24.2702 64.3837 25.7885 63.1388 26.4103C62.7852 26.5867 62.4066 26.6766 62.0139 26.6766V26.6753Z" fill="#C30350"/>
<path d="M59.3193 22.2463C58.5203 22.2463 57.7863 21.8812 57.305 21.2453C56.4657 20.1358 56.6851 18.5502 57.7946 17.7102C58.2367 17.3759 58.7623 17.1988 59.3154 17.1988C60.1143 17.1988 60.8484 17.5639 61.3297 18.1998C62.169 19.3093 61.9496 20.8949 60.8401 21.7349C60.3979 22.0692 59.8724 22.2463 59.3193 22.2463Z" fill="#C30350"/>
<path d="M55.7866 18.3968C55.1578 18.3968 54.5546 18.1632 54.0893 17.7397C53.5907 17.286 53.2988 16.6655 53.2673 15.9923C53.2352 15.3192 53.4682 14.6737 53.9212 14.1751C54.3986 13.6508 55.0788 13.3499 55.7885 13.3499C56.4174 13.3499 57.0206 13.5834 57.4858 14.0069C57.9844 14.4606 58.2764 15.0811 58.3078 15.7543C58.3399 16.4274 58.107 17.073 57.6539 17.5716C57.1765 18.0958 56.4963 18.3968 55.7866 18.3968Z" fill="#C30350"/>
<path d="M51.6141 15.253C51.1469 15.253 50.6894 15.1227 50.2903 14.8757C49.7166 14.5215 49.3155 13.9651 49.1609 13.3093C49.0062 12.6535 49.116 11.9765 49.4702 11.4028C49.9335 10.6533 50.7369 10.2054 51.6192 10.2054C52.0864 10.2054 52.5439 10.3357 52.943 10.5828C54.1269 11.3143 54.4946 12.8723 53.7631 14.0556C53.2998 14.8051 52.4964 15.253 51.6141 15.253Z" fill="#C30350"/>
<path d="M46.9312 12.9432C46.6206 12.9432 46.3151 12.8861 46.0225 12.7732C45.3937 12.5306 44.897 12.057 44.6243 11.441C44.3516 10.8243 44.3349 10.139 44.5781 9.51016C44.9509 8.54441 45.8974 7.89502 46.9324 7.89502C47.243 7.89502 47.5485 7.95213 47.8411 8.06507C48.4699 8.30763 48.9666 8.7812 49.2393 9.39722C49.512 10.0139 49.5287 10.6992 49.2855 11.3281C48.9127 12.2938 47.9662 12.9432 46.9312 12.9432Z" fill="#C30350"/>
<path d="M41.9308 11.4668C41.7761 11.4668 41.6202 11.4521 41.4668 11.4238C40.0987 11.1697 39.1927 9.84977 39.4468 8.48168C39.6688 7.28621 40.7109 6.41864 41.925 6.41864C42.0796 6.41864 42.2356 6.4334 42.3889 6.46163C43.0518 6.58484 43.6267 6.95895 44.0079 7.51465C44.3897 8.07036 44.5315 8.74157 44.4083 9.40379C44.1863 10.5993 43.1442 11.4668 41.9301 11.4668H41.9308Z" fill="#C30350"/>
</svg>
