<svg width="35" height="35" viewBox="0 0 35 35" fill="none" xmlns="http://www.w3.org/2000/svg">
<path d="M29.4629 5.25006C32.7897 8.53131 34.4531 12.5189 34.4531 17.213C34.4531 21.8614 32.7897 25.849 29.4629 29.1758C26.1816 32.5027 22.194 34.1661 17.5 34.1661C13.1706 34.1661 9.38802 32.7077 6.15234 29.7911C5.69661 29.4265 5.67383 29.0391 6.08398 28.629L7.24609 27.4669C7.61068 27.1023 7.99805 27.0795 8.4082 27.3985C11.0059 29.7227 14.0365 30.8848 17.5 30.8848C21.2826 30.8848 24.4954 29.5632 27.1387 26.92C29.8275 24.2312 31.1719 20.9955 31.1719 17.213C31.1719 13.4304 29.8275 10.2175 27.1387 7.57428C24.4954 4.88548 21.2826 3.54108 17.5 3.54108C13.7174 3.54108 10.4818 4.88548 7.79297 7.57428L11.1426 10.8555C11.416 11.129 11.4844 11.448 11.3477 11.8126C11.2109 12.1316 10.9603 12.2911 10.5957 12.2911H1.77734C1.54948 12.2911 1.3444 12.2227 1.16211 12.086C1.02539 11.9037 0.957031 11.6986 0.957031 11.4708V2.78912C0.957031 2.42454 1.11654 2.17389 1.43555 2.03717C1.80013 1.90045 2.11914 1.96881 2.39258 2.24225L5.46875 5.25006C8.79557 1.92324 12.806 0.259827 17.5 0.259827C22.194 0.259827 26.1816 1.92324 29.4629 5.25006ZM23.0371 23.3653C22.7181 23.7755 22.3307 23.821 21.875 23.502L15.8594 19.127V7.64264C15.8594 7.09576 16.1328 6.82233 16.6797 6.82233H18.3203C18.8672 6.82233 19.1406 7.09576 19.1406 7.64264V17.4864L23.7891 20.9044C24.2448 21.2234 24.3132 21.588 23.9941 21.9981L23.0371 23.3653Z" fill="white"/>
</svg>
