<svg width="35" height="34" viewBox="0 0 35 34" fill="none" xmlns="http://www.w3.org/2000/svg">
<path d="M2.1875 30.0653C2.1875 30.8173 2.73438 31.3641 3.48633 31.3641H9.02344H25.9766H31.4453C32.1973 31.3641 32.8125 30.8173 32.8125 30.0653C32.8125 29.8602 32.7441 29.6552 32.6074 29.4501L31.4453 26.9891C31.0352 26.2372 31.0352 25.4169 31.377 24.6649C32.2656 22.6825 32.7441 20.5634 32.7441 18.2391C32.8125 9.83093 25.9082 2.92664 17.5 2.92664C9.02344 2.92664 2.1875 9.83093 2.1875 18.2391C2.1875 20.5634 2.66602 22.6825 3.55469 24.6649C3.89648 25.4169 3.89648 26.2372 3.48633 26.9891L2.32422 29.4501L0.341797 28.493L2.32422 29.4501C2.1875 29.6552 2.1875 29.8602 2.1875 30.0653ZM35 18.2391C35 20.9052 34.3848 23.3661 33.3594 25.5536C33.291 25.6903 33.291 25.8954 33.3594 26.0321L34.5898 28.4247C34.8633 28.9716 35 29.5184 35 30.0653C35 31.9794 33.3594 33.5516 31.4453 33.5516H25.9766H9.02344H3.48633C1.57227 33.5516 0 31.9794 0 30.0653C0 29.5184 0.0683594 28.9716 0.341797 28.4247L1.57227 26.0321C1.64062 25.8954 1.64062 25.6903 1.57227 25.5536C0.546875 23.3661 0 20.9052 0 18.2391C0 8.60046 7.79297 0.739136 17.5 0.739136C27.1387 0.739136 35 8.60046 35 18.2391ZM26.25 18.2391C26.25 15.7782 25.1562 13.5223 23.4473 11.8817L20.8496 15.5048C21.4648 16.2567 21.875 17.2137 21.875 18.2391C21.875 18.3759 21.875 18.4442 21.8066 18.5126L26.0449 19.8798C26.1816 19.4012 26.25 18.8544 26.25 18.2391ZM21.123 20.6317C20.5762 21.5204 19.6191 22.204 18.5254 22.4774V26.9208C21.6016 26.579 24.1309 24.6649 25.3613 21.9989L21.123 20.6317ZM16.3379 22.4774C15.3125 22.204 14.3555 21.5204 13.8086 20.6317L9.57031 21.9989C10.8008 24.6649 13.3301 26.579 16.3379 26.9208V22.4774ZM8.75 18.2391C8.75 18.8544 8.75 19.4012 8.88672 19.9481L13.125 18.5126C13.125 18.4442 13.125 18.3759 13.125 18.2391C13.125 17.2137 13.4668 16.2567 14.082 15.5048L13.3984 14.5477L11.4844 11.8817C9.77539 13.5223 8.75 15.7782 8.75 18.2391ZM17.5 13.8641C18.0469 13.8641 18.5938 14.0009 19.0723 14.2059L21.6699 10.5829C20.4395 9.89929 19.0039 9.48914 17.5 9.48914C15.9277 9.48914 14.4922 9.89929 13.2617 10.5829L15.1758 13.2489L15.8594 14.2059C16.3379 14.0009 16.8848 13.8641 17.4316 13.8641H17.5ZM6.5625 18.2391C6.5625 14.3427 8.61328 10.788 12.0312 8.80554C15.3809 6.82312 19.5508 6.82312 22.9688 8.80554C26.3184 10.788 28.4375 14.3427 28.4375 18.2391C28.4375 22.204 26.3184 25.7587 22.9688 27.7411C19.5508 29.7235 15.3809 29.7235 12.0312 27.7411C8.61328 25.7587 6.5625 22.204 6.5625 18.2391ZM19.6875 18.2391C19.6875 17.077 18.6621 16.0516 17.5 16.0516C16.2695 16.0516 15.3125 17.077 15.3125 18.2391C15.3125 19.4696 16.2695 20.4266 17.5 20.4266C18.6621 20.4266 19.6875 19.4696 19.6875 18.2391Z" fill="white"/>
</svg>
