<svg width="51" height="35" viewBox="0 0 51 35" fill="none" xmlns="http://www.w3.org/2000/svg">
<path d="M38.8 3.50002C38.8 2.50002 38.8 1.50002 38.8 0.400024C42.9 2.50002 46.9 4.60003 51 6.70003C46.9 8.80003 42.9 10.8 38.8 12.8C38.8 11.8 38.8 10.9 38.8 9.80002C36.1 9.70002 33.8 10.4 31.8 12C30.1 13.4 28.8 15.1 27.5 16.8C25.5 19.3 23.6 21.8 21.5 24.3C17.2 29.4 11.7 31.7 5.10001 31.8C3.60001 31.8 2 31.8 0.5 31.8C0.5 29.6 0.5 27.6 0.5 25.5C1.9 25.5 3.3 25.5 4.7 25.5C8.8 25.7 12 23.9 14.6 20.8C17.1 17.9 19.2 14.7 21.6 11.8C25.1 7.60002 29.3 4.60002 34.9 3.80002C36.2 3.70002 37.4 3.60002 38.8 3.50002Z" fill="white"/>
<path d="M38.8 25.6V22.6C42.9 24.7 46.9 26.7 51 28.8L38.8 34.9V32C32.7 31.9 27.5 29.9 23.3 25.4L28 19.4C30.8 22.8 33.8 25.8 38.8 25.6Z" fill="white"/>
<path d="M0.500031 3.70002C8.10003 3.10002 15.1 4.10002 20.6 10.1C19.1 12 17.6 14 16 16C15.5 15.8 15.3 15.3 14.9 14.9C12.9 12.6 10.6 10.7 7.50003 10.1C5.90003 9.80002 4.30004 9.90002 2.60004 9.90002C1.90004 9.90002 1.10002 9.90002 0.400024 9.90002C0.500024 7.80002 0.500031 5.80002 0.500031 3.70002Z" fill="white"/>
</svg>
