<svg width="72" height="37" viewBox="0 0 72 37" fill="none" xmlns="http://www.w3.org/2000/svg">
<path d="M69.75 8.90625V28.5938C69.75 29.4141 69.1055 30 68.3438 30C67.5234 30 66.9375 29.4141 66.9375 28.5938V8.90625C66.9375 8.14453 67.5234 7.5 68.3438 7.5C69.1055 7.5 69.75 8.14453 69.75 8.90625ZM61.8398 17.7539C62.3672 18.3398 62.3672 19.2188 61.8398 19.7461L53.8711 27.7148C53.2852 28.3008 52.4062 28.3008 51.8789 27.7148C51.293 27.1875 51.293 26.3086 51.8789 25.7812L57.4453 20.2148L33.6562 20.1562C32.8359 20.1562 32.25 19.5703 32.25 18.75C32.25 17.9883 32.8359 17.3438 33.6562 17.3438H57.4453L51.8789 11.7773C51.293 11.25 51.293 10.3711 51.8789 9.84375C52.4062 9.25781 53.2852 9.25781 53.8711 9.84375L61.8398 17.7539Z" fill="#000306"/>
<path d="M25.6875 5.625C28.8125 5.625 31.3125 6.11328 33.1875 7.08984C35.0625 8.06641 36 9.14062 36 10.3125V21.5625C36 22.7734 35.1016 23.8281 33.3047 24.7266C31.5078 25.625 29.2812 26.1328 26.625 26.25V27.1875C26.625 28.4766 25.6094 29.5703 23.5781 30.4688C21.5859 31.4062 19.1641 31.875 16.3125 31.875C13.4609 31.875 11.0195 31.4062 8.98828 30.4688C6.99609 29.5703 6 28.4766 6 27.1875V15.9375C6 14.6875 6.91797 13.6328 8.75391 12.7734C10.5898 11.875 12.7969 11.3867 15.375 11.3086V10.3125C15.375 8.98437 16.3906 7.87109 18.4219 6.97266C20.4141 6.07422 22.8359 5.625 25.6875 5.625ZM24.75 27.1875V24.2578C22.6797 25.5859 19.8672 26.25 16.3125 26.25C12.7578 26.25 9.94531 25.5859 7.875 24.2578V27.1875C7.875 27.5 8.16797 27.8711 8.75391 28.3008C9.37891 28.6914 10.375 29.082 11.7422 29.4727C13.1094 29.8242 14.6328 30 16.3125 30C17.9922 30 19.5156 29.8242 20.8828 29.4727C22.25 29.082 23.2266 28.6914 23.8125 28.3008C24.4375 27.8711 24.75 27.5 24.75 27.1875ZM24.75 21.5625V18.6328C22.6797 19.9609 19.8672 20.625 16.3125 20.625C12.7578 20.625 9.94531 19.9609 7.875 18.6328V21.5625C7.875 21.875 8.16797 22.2461 8.75391 22.6758C9.37891 23.0664 10.375 23.457 11.7422 23.8477C13.1094 24.1992 14.6328 24.375 16.3125 24.375C17.9922 24.375 19.5156 24.1992 20.8828 23.8477C22.25 23.457 23.2266 23.0664 23.8125 22.6758C24.4375 22.2461 24.75 21.875 24.75 21.5625ZM10.2188 17.9297C11.8984 18.4766 13.9297 18.75 16.3125 18.75C18.6953 18.75 20.7266 18.4766 22.4062 17.9297C24.0859 17.3828 24.9258 16.7188 24.9258 15.9375C24.9258 15.1562 24.0859 14.4922 22.4062 13.9453C20.7266 13.3984 18.6953 13.125 16.3125 13.125C13.9297 13.125 11.8984 13.3984 10.2188 13.9453C8.53906 14.4922 7.69922 15.1562 7.69922 15.9375C7.69922 16.7188 8.53906 17.3828 10.2188 17.9297ZM34.125 21.5625V18.6328C32.3281 19.8047 29.8281 20.4492 26.625 20.5664V24.3164C28.1094 24.2773 29.457 24.082 30.668 23.7305C31.8789 23.3398 32.7578 22.9492 33.3047 22.5586C33.8516 22.168 34.125 21.8359 34.125 21.5625ZM34.125 15.9375V13.0078C32.25 14.2188 29.6719 14.8828 26.3906 15C26.5469 15.3516 26.625 15.6641 26.625 15.9375V18.6914C28.1094 18.6133 29.457 18.3984 30.668 18.0469C31.8789 17.6953 32.7578 17.3242 33.3047 16.9336C33.8516 16.543 34.125 16.2109 34.125 15.9375ZM25.6875 13.125C28.0703 13.125 30.1016 12.8516 31.7812 12.3047C33.4609 11.7578 34.3008 11.0937 34.3008 10.3125C34.3008 9.53125 33.4609 8.86719 31.7812 8.32031C30.1016 7.77344 28.0703 7.5 25.6875 7.5C23.3047 7.5 21.2734 7.77344 19.5938 8.32031C17.9141 8.86719 17.0742 9.53125 17.0742 10.3125C17.0742 10.6641 17.2891 10.9961 17.7188 11.3086C20.4922 11.4648 22.7383 12.0508 24.457 13.0664C25.082 13.1055 25.4922 13.125 25.6875 13.125Z" fill="#000306"/>
</svg>
