<svg width="87" height="36" viewBox="0 0 87 36" fill="none" xmlns="http://www.w3.org/2000/svg">
<path d="M83.8479 5.6875V29.3125C83.8479 30.2969 83.0745 31 82.1604 31C81.176 31 80.4729 30.2969 80.4729 29.3125V5.6875C80.4729 4.77344 81.176 4 82.1604 4C83.0745 4 83.8479 4.77344 83.8479 5.6875ZM74.3557 16.3047C74.9885 17.0078 74.9885 18.0625 74.3557 18.6953L64.7932 28.2578C64.0901 28.9609 63.0354 28.9609 62.4026 28.2578C61.6995 27.625 61.6995 26.5703 62.4026 25.9375L69.0823 19.2578L40.5354 19.1875C39.551 19.1875 38.8479 18.4844 38.8479 17.5C38.8479 16.5859 39.551 15.8125 40.5354 15.8125H69.0823L62.4026 9.13281C61.6995 8.5 61.6995 7.44531 62.4026 6.8125C63.0354 6.10938 64.0901 6.10938 64.7932 6.8125L74.3557 16.3047Z" fill="white"/>
<path d="M30.9729 1.75C34.7229 1.75 37.7229 2.33594 39.9729 3.50782C42.2229 4.67969 43.3479 5.96875 43.3479 7.375V20.875C43.3479 22.3281 42.2698 23.5938 40.1135 24.6719C37.9573 25.75 35.2854 26.3594 32.0979 26.5V27.625C32.0979 29.1719 30.8791 30.4844 28.4417 31.5625C26.051 32.6875 23.1448 33.25 19.7229 33.25C16.301 33.25 13.3713 32.6875 10.9338 31.5625C8.54321 30.4844 7.3479 29.1719 7.3479 27.625V14.125C7.3479 12.625 8.44946 11.3594 10.6526 10.3281C12.8557 9.25 15.5042 8.66406 18.5979 8.57031V7.375C18.5979 5.78125 19.8167 4.44532 22.2542 3.36719C24.6448 2.28907 27.551 1.75 30.9729 1.75ZM29.8479 27.625V24.1094C27.3635 25.7031 23.9885 26.5 19.7229 26.5C15.4573 26.5 12.0823 25.7031 9.5979 24.1094V27.625C9.5979 28 9.94946 28.4453 10.6526 28.9609C11.4026 29.4297 12.5979 29.8984 14.2385 30.3672C15.8792 30.7891 17.7073 31 19.7229 31C21.7385 31 23.5667 30.7891 25.2073 30.3672C26.8479 29.8984 28.0198 29.4297 28.7229 28.9609C29.4729 28.4453 29.8479 28 29.8479 27.625ZM29.8479 20.875V17.3594C27.3635 18.9531 23.9885 19.75 19.7229 19.75C15.4573 19.75 12.0823 18.9531 9.5979 17.3594V20.875C9.5979 21.25 9.94946 21.6953 10.6526 22.2109C11.4026 22.6797 12.5979 23.1484 14.2385 23.6172C15.8792 24.0391 17.7073 24.25 19.7229 24.25C21.7385 24.25 23.5667 24.0391 25.2073 23.6172C26.8479 23.1484 28.0198 22.6797 28.7229 22.2109C29.4729 21.6953 29.8479 21.25 29.8479 20.875ZM12.4104 16.5156C14.426 17.1719 16.8635 17.5 19.7229 17.5C22.5823 17.5 25.0198 17.1719 27.0354 16.5156C29.051 15.8594 30.0588 15.0625 30.0588 14.125C30.0588 13.1875 29.051 12.3906 27.0354 11.7344C25.0198 11.0781 22.5823 10.75 19.7229 10.75C16.8635 10.75 14.426 11.0781 12.4104 11.7344C10.3948 12.3906 9.38696 13.1875 9.38696 14.125C9.38696 15.0625 10.3948 15.8594 12.4104 16.5156ZM41.0979 20.875V17.3594C38.9416 18.7656 35.9416 19.5391 32.0979 19.6797V24.1797C33.8791 24.1328 35.4963 23.8984 36.9495 23.4766C38.4026 23.0078 39.4573 22.5391 40.1135 22.0703C40.7698 21.6016 41.0979 21.2031 41.0979 20.875ZM41.0979 14.125V10.6094C38.8479 12.0625 35.7541 12.8594 31.8166 13C32.0041 13.4219 32.0979 13.7969 32.0979 14.125V17.4297C33.8791 17.3359 35.4963 17.0781 36.9495 16.6563C38.4026 16.2344 39.4573 15.7891 40.1135 15.3203C40.7698 14.8516 41.0979 14.4531 41.0979 14.125ZM30.9729 10.75C33.8323 10.75 36.2698 10.4219 38.2854 9.76563C40.301 9.10938 41.3088 8.3125 41.3088 7.375C41.3088 6.4375 40.301 5.64063 38.2854 4.98438C36.2698 4.32813 33.8323 4 30.9729 4C28.1135 4 25.676 4.32813 23.6604 4.98438C21.6448 5.64063 20.637 6.4375 20.637 7.375C20.637 7.79688 20.8948 8.19531 21.4104 8.57031C24.7385 8.75781 27.4338 9.46094 29.4963 10.6797C30.2463 10.7266 30.7385 10.75 30.9729 10.75Z" fill="white"/>
</svg>
