<svg width="41" height="33" viewBox="0 0 41 33" fill="none" xmlns="http://www.w3.org/2000/svg">
<path d="M20.348 4.125C15.7074 4.125 11.9808 6.23438 9.09802 8.90625C6.35584 11.4375 4.52771 14.3906 3.54334 16.5C4.52771 18.6094 6.35584 21.6328 9.09802 24.1641C11.9808 26.8359 15.7074 28.875 20.348 28.875C24.9183 28.875 28.6449 26.8359 31.5277 24.1641C34.2699 21.6328 36.1683 18.6094 37.0824 16.5C36.1683 14.3906 34.2699 11.4375 31.598 8.90625C28.6449 6.23438 24.9183 4.125 20.348 4.125ZM6.77771 6.44531C10.0824 3.35157 14.6527 0.750003 20.348 0.750003C25.973 0.750003 30.5433 3.35157 33.848 6.44531C37.1527 9.53906 39.3324 13.125 40.3871 15.6563C40.598 16.2188 40.598 16.8516 40.3871 17.4141C39.3324 19.875 37.1527 23.5313 33.848 26.625C30.5433 29.7188 25.973 32.25 20.348 32.25C14.6527 32.25 10.0824 29.7188 6.77771 26.625C3.47302 23.5313 1.29334 19.875 0.238649 17.4141C0.0277119 16.8516 0.0277119 16.2188 0.238649 15.6563C1.29334 13.125 3.47302 9.46875 6.77771 6.44531ZM20.348 22.125C23.4418 22.125 25.973 19.6641 25.973 16.5C25.973 13.4063 23.4418 10.875 20.348 10.875C20.2777 10.875 20.2074 10.875 20.2074 10.875C20.2777 11.2969 20.348 11.6484 20.348 12C20.348 14.5313 18.309 16.5 15.848 16.5C15.4261 16.5 15.0746 16.5 14.723 16.3594C14.723 16.4297 14.723 16.5 14.723 16.5C14.723 19.6641 17.184 22.125 20.348 22.125ZM20.348 7.5C23.5121 7.5 26.4652 9.25781 28.0824 12C29.6996 14.8125 29.6996 18.2578 28.0824 21C26.4652 23.8125 23.5121 25.5 20.348 25.5C17.1136 25.5 14.1605 23.8125 12.5433 21C10.9261 18.2578 10.9261 14.8125 12.5433 12C14.1605 9.25781 17.1136 7.5 20.348 7.5Z" fill="#000306"/>
</svg>
