<svg width="54" height="35" viewBox="0 0 54 35" fill="none" xmlns="http://www.w3.org/2000/svg">
<path d="M19.1797 33.9063C18.5547 34.6094 17.9297 34.6094 17.3047 33.9063L1.83594 18.4375C1.13281 17.8125 1.13281 17.1875 1.83594 16.5625L17.3047 1.09375C17.9297 0.390628 18.5547 0.390628 19.1797 1.09375L21.5234 3.32031C22.2266 4.02344 22.2266 4.6875 21.5234 5.3125L12.0313 14.4531H52.4609C53.3984 14.4531 53.8672 14.9219 53.8672 15.8594V19.1406C53.8672 20.0781 53.3984 20.5469 52.4609 20.5469H12.0313L21.5234 29.6875C22.2266 30.3125 22.2266 30.9766 21.5234 31.6797L19.1797 33.9063Z" fill="#000306"/>
</svg>
