<svg width="19" height="19" viewBox="0 0 19 19" fill="none" xmlns="http://www.w3.org/2000/svg">
<path d="M1.12146 10.5938C0.664429 10.5938 0.312866 10.1719 0.348022 9.71484V9.43359C0.523804 5.98828 3.37146 3.28125 6.81677 3.28125H11.0355V2.01562C11.0355 1.3125 11.5629 0.75 12.266 0.75C12.5824 0.75 12.8636 0.890625 13.1097 1.10156L15.8168 3.52734C15.9926 3.66797 16.098 3.91406 16.098 4.125C16.098 4.37109 15.9926 4.61719 15.8168 4.75781L13.1097 7.18359C12.8636 7.39453 12.5824 7.5 12.266 7.5C11.598 7.5 11.0355 6.9375 11.0355 6.26953V4.96875H6.81677C4.25037 4.96875 2.17615 6.97266 2.03552 9.53906V9.82031C2.00037 10.2773 1.61365 10.6289 1.12146 10.5938ZM12.723 5.28516L13.9886 4.125L12.723 3V5.28516ZM17.5394 8.90625C17.9965 8.94141 18.348 9.32812 18.348 9.82031L18.3129 10.1016C18.1371 13.5469 15.2894 16.2188 11.8441 16.2188H7.66052V17.5195C7.66052 18.1875 7.09802 18.75 6.3949 18.75C6.07849 18.75 5.79724 18.6445 5.55115 18.4336L2.84412 16.0078C2.66833 15.8672 2.59802 15.6211 2.59802 15.4102C2.59802 15.1641 2.66833 14.918 2.84412 14.7773L5.55115 12.3516C5.79724 12.1406 6.07849 12.0352 6.3949 12.0352C7.09802 12.0352 7.66052 12.5977 7.66052 13.2656V14.5312H11.8441C14.4105 14.5312 16.5199 12.5625 16.6254 9.99609L16.6605 9.71484C16.6605 9.25781 17.0472 8.90625 17.5394 8.90625ZM5.97302 14.25L4.67224 15.375L5.97302 16.5352V14.25Z" fill="#000306"/>
</svg>
