<svg width="32" height="37" viewBox="0 0 32 37" fill="none" xmlns="http://www.w3.org/2000/svg">
<path d="M19.0417 29.75C18.4792 29.75 18.198 29.4688 18.198 28.9063V13.7188C18.198 13.1563 18.4792 12.875 19.0417 12.875H20.7292C21.2917 12.875 21.573 13.1563 21.573 13.7188V28.9063C21.573 29.4688 21.2917 29.75 20.7292 29.75H19.0417ZM30.573 6.125C30.9011 6.125 31.1589 6.24219 31.3464 6.47657C31.5808 6.66407 31.698 6.92188 31.698 7.25V8.375C31.698 8.70313 31.5808 8.98438 31.3464 9.21875C31.1589 9.40625 30.9011 9.5 30.573 9.5H29.448V33.125C29.448 34.0625 29.1199 34.8594 28.4636 35.5156C27.8074 36.1719 27.0105 36.5 26.073 36.5H5.823C4.8855 36.5 4.08862 36.1719 3.43237 35.5156C2.77612 34.8594 2.448 34.0625 2.448 33.125V9.5H1.323C0.994875 9.5 0.713625 9.40625 0.47925 9.21875C0.29175 8.98438 0.198 8.70313 0.198 8.375V7.25C0.198 6.92188 0.29175 6.66407 0.47925 6.47657C0.713625 6.24219 0.994875 6.125 1.323 6.125H7.08862L9.47925 2.11719C10.1355 1.03907 11.1199 0.500003 12.4324 0.500003H19.4636C20.7761 0.500003 21.7605 1.03907 22.4167 2.11719L24.8074 6.125H30.573ZM12.2917 4.08594L11.0261 6.125H20.8699L19.6042 4.08594C19.5105 3.94532 19.3933 3.875 19.2527 3.875H12.6433C12.5027 3.875 12.3855 3.94532 12.2917 4.08594ZM26.073 33.125V9.5H5.823V33.125H26.073ZM11.1667 29.75C10.6042 29.75 10.323 29.4688 10.323 28.9063V13.7188C10.323 13.1563 10.6042 12.875 11.1667 12.875H12.8542C13.4167 12.875 13.698 13.1563 13.698 13.7188V28.9063C13.698 29.4688 13.4167 29.75 12.8542 29.75H11.1667Z" fill="#000306"/>
</svg>
