<svg width="236" height="53" viewBox="0 0 236 53" fill="none" xmlns="http://www.w3.org/2000/svg">
<g filter="url(#filter0_d_583_3956)">
<mask id="path-1-outside-1_583_3956" maskUnits="userSpaceOnUse" x="4" y="1" width="228" height="45" fill="black">
<rect fill="white" x="4" y="1" width="228" height="45"/>
<path d="M18.1943 43H8.21028L16.6583 30.168L9.07428 18.872H18.9623L21.5863 24.28L24.1143 18.872H34.0023L26.4503 30.168L35.0583 43H25.0743L21.6503 36.408L18.1943 43ZM64.944 43.624C61.928 43.624 59.068 43.3293 56.364 42.74C53.66 42.1507 51.3027 41.388 49.292 40.452L50.852 29.844C52.4467 30.676 54.4574 31.4213 56.884 32.08C59.3107 32.7387 61.46 33.068 63.332 33.068C65.204 33.068 66.6947 32.7387 67.804 32.08C68.9134 31.3867 69.468 30.416 69.468 29.168C69.468 27.816 68.74 26.828 67.284 26.204C65.8627 25.58 63.9734 25.268 61.616 25.268C59.848 25.268 58.1494 25.4067 56.52 25.684C54.9254 25.9613 53.296 26.3947 51.632 26.984L51.268 26.932L54.648 3.792H81.324V14.764H64.528C64.3547 15.7 64.1814 16.532 64.008 17.26C63.8347 17.988 63.592 18.664 63.28 19.288C63.8347 18.6987 64.7707 18.2133 66.088 17.832C67.4054 17.416 68.8094 17.208 70.3 17.208C72.692 17.208 74.9107 17.728 76.956 18.768C79.036 19.7733 80.6827 21.212 81.896 23.084C83.1094 24.9213 83.716 27.0533 83.716 29.48C83.716 32.6347 82.832 35.2693 81.064 37.384C79.3307 39.4987 77.0254 41.076 74.148 42.116C71.3054 43.1213 68.2374 43.624 64.944 43.624ZM96.0754 43.624C94.7927 43.624 93.5447 43.364 92.3314 42.844C91.1527 42.324 90.182 41.5787 89.4194 40.608C88.6914 39.6373 88.3274 38.4933 88.3274 37.176C88.3274 35.8587 88.6914 34.6973 89.4194 33.692C90.182 32.6867 91.1527 31.924 92.3314 31.404C93.5447 30.8493 94.7927 30.572 96.0754 30.572C97.358 30.572 98.5887 30.8493 99.7674 31.404C100.981 31.924 101.951 32.6867 102.679 33.692C103.442 34.6973 103.823 35.8587 103.823 37.176C103.823 38.4933 103.442 39.6373 102.679 40.608C101.951 41.5787 100.981 42.324 99.7674 42.844C98.5887 43.364 97.358 43.624 96.0754 43.624ZM127.692 43.624C123.74 43.624 120.36 42.74 117.552 40.972C114.744 39.204 112.612 36.7773 111.156 33.692C109.7 30.572 108.972 27.0187 108.972 23.032C108.972 19.288 109.718 15.908 111.208 12.892C112.699 9.876 114.848 7.50133 117.656 5.768C120.499 4.03467 123.844 3.168 127.692 3.168C131.54 3.168 134.868 4.03467 137.676 5.768C140.519 7.50133 142.686 9.876 144.176 12.892C145.667 15.908 146.412 19.288 146.412 23.032C146.412 27.0187 145.684 30.572 144.228 33.692C142.772 36.7773 140.64 39.204 137.832 40.972C135.024 42.74 131.644 43.624 127.692 43.624ZM127.692 32.028C129.322 32.028 130.57 31.248 131.436 29.688C132.338 28.0933 132.788 25.996 132.788 23.396C132.788 20.8653 132.355 18.8893 131.488 17.468C130.622 16.0467 129.356 15.336 127.692 15.336C126.028 15.336 124.763 16.0467 123.896 17.468C123.03 18.8893 122.596 20.8653 122.596 23.396C122.596 25.996 123.03 28.0933 123.896 29.688C124.798 31.248 126.063 32.028 127.692 32.028ZM169.282 43.624C165.33 43.624 161.95 42.74 159.142 40.972C156.334 39.204 154.202 36.7773 152.746 33.692C151.29 30.572 150.562 27.0187 150.562 23.032C150.562 19.288 151.307 15.908 152.798 12.892C154.289 9.876 156.438 7.50133 159.246 5.768C162.089 4.03467 165.434 3.168 169.282 3.168C173.13 3.168 176.458 4.03467 179.266 5.768C182.109 7.50133 184.275 9.876 185.766 12.892C187.257 15.908 188.002 19.288 188.002 23.032C188.002 27.0187 187.274 30.572 185.818 33.692C184.362 36.7773 182.23 39.204 179.422 40.972C176.614 42.74 173.234 43.624 169.282 43.624ZM169.282 32.028C170.911 32.028 172.159 31.248 173.026 29.688C173.927 28.0933 174.378 25.996 174.378 23.396C174.378 20.8653 173.945 18.8893 173.078 17.468C172.211 16.0467 170.946 15.336 169.282 15.336C167.618 15.336 166.353 16.0467 165.486 17.468C164.619 18.8893 164.186 20.8653 164.186 23.396C164.186 25.996 164.619 28.0933 165.486 29.688C166.387 31.248 167.653 32.028 169.282 32.028ZM210.872 43.624C206.92 43.624 203.54 42.74 200.732 40.972C197.924 39.204 195.792 36.7773 194.336 33.692C192.88 30.572 192.152 27.0187 192.152 23.032C192.152 19.288 192.897 15.908 194.388 12.892C195.879 9.876 198.028 7.50133 200.836 5.768C203.679 4.03467 207.024 3.168 210.872 3.168C214.72 3.168 218.048 4.03467 220.856 5.768C223.699 7.50133 225.865 9.876 227.356 12.892C228.847 15.908 229.592 19.288 229.592 23.032C229.592 27.0187 228.864 30.572 227.408 33.692C225.952 36.7773 223.82 39.204 221.012 40.972C218.204 42.74 214.824 43.624 210.872 43.624ZM210.872 32.028C212.501 32.028 213.749 31.248 214.616 29.688C215.517 28.0933 215.968 25.996 215.968 23.396C215.968 20.8653 215.535 18.8893 214.668 17.468C213.801 16.0467 212.536 15.336 210.872 15.336C209.208 15.336 207.943 16.0467 207.076 17.468C206.209 18.8893 205.776 20.8653 205.776 23.396C205.776 25.996 206.209 28.0933 207.076 29.688C207.977 31.248 209.243 32.028 210.872 32.028Z"/>
</mask>
<path d="M18.1943 43H8.21028L16.6583 30.168L9.07428 18.872H18.9623L21.5863 24.28L24.1143 18.872H34.0023L26.4503 30.168L35.0583 43H25.0743L21.6503 36.408L18.1943 43ZM64.944 43.624C61.928 43.624 59.068 43.3293 56.364 42.74C53.66 42.1507 51.3027 41.388 49.292 40.452L50.852 29.844C52.4467 30.676 54.4574 31.4213 56.884 32.08C59.3107 32.7387 61.46 33.068 63.332 33.068C65.204 33.068 66.6947 32.7387 67.804 32.08C68.9134 31.3867 69.468 30.416 69.468 29.168C69.468 27.816 68.74 26.828 67.284 26.204C65.8627 25.58 63.9734 25.268 61.616 25.268C59.848 25.268 58.1494 25.4067 56.52 25.684C54.9254 25.9613 53.296 26.3947 51.632 26.984L51.268 26.932L54.648 3.792H81.324V14.764H64.528C64.3547 15.7 64.1814 16.532 64.008 17.26C63.8347 17.988 63.592 18.664 63.28 19.288C63.8347 18.6987 64.7707 18.2133 66.088 17.832C67.4054 17.416 68.8094 17.208 70.3 17.208C72.692 17.208 74.9107 17.728 76.956 18.768C79.036 19.7733 80.6827 21.212 81.896 23.084C83.1094 24.9213 83.716 27.0533 83.716 29.48C83.716 32.6347 82.832 35.2693 81.064 37.384C79.3307 39.4987 77.0254 41.076 74.148 42.116C71.3054 43.1213 68.2374 43.624 64.944 43.624ZM96.0754 43.624C94.7927 43.624 93.5447 43.364 92.3314 42.844C91.1527 42.324 90.182 41.5787 89.4194 40.608C88.6914 39.6373 88.3274 38.4933 88.3274 37.176C88.3274 35.8587 88.6914 34.6973 89.4194 33.692C90.182 32.6867 91.1527 31.924 92.3314 31.404C93.5447 30.8493 94.7927 30.572 96.0754 30.572C97.358 30.572 98.5887 30.8493 99.7674 31.404C100.981 31.924 101.951 32.6867 102.679 33.692C103.442 34.6973 103.823 35.8587 103.823 37.176C103.823 38.4933 103.442 39.6373 102.679 40.608C101.951 41.5787 100.981 42.324 99.7674 42.844C98.5887 43.364 97.358 43.624 96.0754 43.624ZM127.692 43.624C123.74 43.624 120.36 42.74 117.552 40.972C114.744 39.204 112.612 36.7773 111.156 33.692C109.7 30.572 108.972 27.0187 108.972 23.032C108.972 19.288 109.718 15.908 111.208 12.892C112.699 9.876 114.848 7.50133 117.656 5.768C120.499 4.03467 123.844 3.168 127.692 3.168C131.54 3.168 134.868 4.03467 137.676 5.768C140.519 7.50133 142.686 9.876 144.176 12.892C145.667 15.908 146.412 19.288 146.412 23.032C146.412 27.0187 145.684 30.572 144.228 33.692C142.772 36.7773 140.64 39.204 137.832 40.972C135.024 42.74 131.644 43.624 127.692 43.624ZM127.692 32.028C129.322 32.028 130.57 31.248 131.436 29.688C132.338 28.0933 132.788 25.996 132.788 23.396C132.788 20.8653 132.355 18.8893 131.488 17.468C130.622 16.0467 129.356 15.336 127.692 15.336C126.028 15.336 124.763 16.0467 123.896 17.468C123.03 18.8893 122.596 20.8653 122.596 23.396C122.596 25.996 123.03 28.0933 123.896 29.688C124.798 31.248 126.063 32.028 127.692 32.028ZM169.282 43.624C165.33 43.624 161.95 42.74 159.142 40.972C156.334 39.204 154.202 36.7773 152.746 33.692C151.29 30.572 150.562 27.0187 150.562 23.032C150.562 19.288 151.307 15.908 152.798 12.892C154.289 9.876 156.438 7.50133 159.246 5.768C162.089 4.03467 165.434 3.168 169.282 3.168C173.13 3.168 176.458 4.03467 179.266 5.768C182.109 7.50133 184.275 9.876 185.766 12.892C187.257 15.908 188.002 19.288 188.002 23.032C188.002 27.0187 187.274 30.572 185.818 33.692C184.362 36.7773 182.23 39.204 179.422 40.972C176.614 42.74 173.234 43.624 169.282 43.624ZM169.282 32.028C170.911 32.028 172.159 31.248 173.026 29.688C173.927 28.0933 174.378 25.996 174.378 23.396C174.378 20.8653 173.945 18.8893 173.078 17.468C172.211 16.0467 170.946 15.336 169.282 15.336C167.618 15.336 166.353 16.0467 165.486 17.468C164.619 18.8893 164.186 20.8653 164.186 23.396C164.186 25.996 164.619 28.0933 165.486 29.688C166.387 31.248 167.653 32.028 169.282 32.028ZM210.872 43.624C206.92 43.624 203.54 42.74 200.732 40.972C197.924 39.204 195.792 36.7773 194.336 33.692C192.88 30.572 192.152 27.0187 192.152 23.032C192.152 19.288 192.897 15.908 194.388 12.892C195.879 9.876 198.028 7.50133 200.836 5.768C203.679 4.03467 207.024 3.168 210.872 3.168C214.72 3.168 218.048 4.03467 220.856 5.768C223.699 7.50133 225.865 9.876 227.356 12.892C228.847 15.908 229.592 19.288 229.592 23.032C229.592 27.0187 228.864 30.572 227.408 33.692C225.952 36.7773 223.82 39.204 221.012 40.972C218.204 42.74 214.824 43.624 210.872 43.624ZM210.872 32.028C212.501 32.028 213.749 31.248 214.616 29.688C215.517 28.0933 215.968 25.996 215.968 23.396C215.968 20.8653 215.535 18.8893 214.668 17.468C213.801 16.0467 212.536 15.336 210.872 15.336C209.208 15.336 207.943 16.0467 207.076 17.468C206.209 18.8893 205.776 20.8653 205.776 23.396C205.776 25.996 206.209 28.0933 207.076 29.688C207.977 31.248 209.243 32.028 210.872 32.028Z" fill="white"/>
<path d="M18.1943 43V45H19.4039L19.9656 43.9287L18.1943 43ZM8.21028 43L6.5398 41.9002L4.49905 45H8.21028V43ZM16.6583 30.168L18.3288 31.2678L19.0599 30.1571L18.3188 29.0532L16.6583 30.168ZM9.07428 18.872V16.872H5.32255L7.41381 19.9868L9.07428 18.872ZM18.9623 18.872L20.7617 17.9989L20.2149 16.872H18.9623V18.872ZM21.5863 24.28L19.7869 25.1531L21.6199 28.9309L23.3981 25.1269L21.5863 24.28ZM24.1143 18.872V16.872H22.8415L22.3025 18.0251L24.1143 18.872ZM34.0023 18.872L35.6649 19.9836L37.7452 16.872H34.0023V18.872ZM26.4503 30.168L24.7876 29.0564L24.0432 30.1699L24.7894 31.2822L26.4503 30.168ZM35.0583 43V45H38.8082L36.7192 41.8858L35.0583 43ZM25.0743 43L23.2994 43.9219L23.8594 45H25.0743V43ZM21.6503 36.408L23.4251 35.4861L21.6585 32.085L19.879 35.4793L21.6503 36.408ZM18.1943 41H8.21028V45H18.1943V41ZM9.88076 44.0998L18.3288 31.2678L14.9878 29.0682L6.5398 41.9002L9.88076 44.0998ZM18.3188 29.0532L10.7348 17.7572L7.41381 19.9868L14.9978 31.2828L18.3188 29.0532ZM9.07428 20.872H18.9623V16.872H9.07428V20.872ZM17.1629 19.7451L19.7869 25.1531L23.3857 23.4069L20.7617 17.9989L17.1629 19.7451ZM23.3981 25.1269L25.9261 19.7189L22.3025 18.0251L19.7745 23.4331L23.3981 25.1269ZM24.1143 20.872H34.0023V16.872H24.1143V20.872ZM32.3396 17.7604L24.7876 29.0564L28.1129 31.2796L35.6649 19.9836L32.3396 17.7604ZM24.7894 31.2822L33.3974 44.1142L36.7192 41.8858L28.1112 29.0538L24.7894 31.2822ZM35.0583 41H25.0743V45H35.0583V41ZM26.8491 42.0781L23.4251 35.4861L19.8754 37.3299L23.2994 43.9219L26.8491 42.0781ZM19.879 35.4793L16.423 42.0713L19.9656 43.9287L23.4216 37.3367L19.879 35.4793ZM56.364 42.74L55.9381 44.6941L56.364 42.74ZM49.292 40.452L47.3133 40.161L47.0964 41.636L48.448 42.2652L49.292 40.452ZM50.852 29.844L51.7772 28.0708L49.2827 26.7694L48.8733 29.553L50.852 29.844ZM56.884 32.08L56.3601 34.0102L56.884 32.08ZM67.804 32.08L68.8251 33.7997L68.8447 33.7881L68.864 33.776L67.804 32.08ZM67.284 26.204L66.48 28.0353L66.4881 28.0388L66.4962 28.0423L67.284 26.204ZM56.52 25.684L56.1844 23.7123L56.1773 23.7136L56.52 25.684ZM51.632 26.984L51.3492 28.9639L51.8361 29.0335L52.2997 28.8693L51.632 26.984ZM51.268 26.932L49.289 26.6429L48.9991 28.6282L50.9852 28.9119L51.268 26.932ZM54.648 3.792V1.792H52.9189L52.669 3.50293L54.648 3.792ZM81.324 3.792H83.324V1.792H81.324V3.792ZM81.324 14.764V16.764H83.324V14.764H81.324ZM64.528 14.764V12.764H62.8644L62.5615 14.3998L64.528 14.764ZM63.28 19.288L61.4912 18.3936L64.7364 20.6587L63.28 19.288ZM66.088 17.832L66.6441 19.7531L66.6673 19.7464L66.6903 19.7392L66.088 17.832ZM76.956 18.768L76.0495 20.5508L76.0675 20.5599L76.0857 20.5687L76.956 18.768ZM81.896 23.084L80.2177 24.1718L80.2224 24.179L80.2271 24.1861L81.896 23.084ZM81.064 37.384L79.5297 36.1012L79.5234 36.1086L79.5173 36.1161L81.064 37.384ZM74.148 42.116L74.8149 44.0016L74.8279 43.9969L74.148 42.116ZM64.944 41.624C62.0585 41.624 59.3421 41.3421 56.7899 40.7859L55.9381 44.6941C58.7939 45.3165 61.7975 45.624 64.944 45.624V41.624ZM56.7899 40.7859C54.1962 40.2206 51.9849 39.4995 50.1361 38.6388L48.448 42.2652C50.6205 43.2765 53.1238 44.0807 55.9381 44.6941L56.7899 40.7859ZM51.2707 40.743L52.8307 30.135L48.8733 29.553L47.3133 40.161L51.2707 40.743ZM49.9269 31.6172C51.6885 32.5363 53.8449 33.3274 56.3601 34.0102L57.4079 30.1498C55.0699 29.5152 53.2049 28.8158 51.7772 28.0708L49.9269 31.6172ZM56.3601 34.0102C58.9032 34.7004 61.2344 35.068 63.332 35.068V31.068C61.6857 31.068 59.7182 30.7769 57.4079 30.1498L56.3601 34.0102ZM63.332 35.068C65.4111 35.068 67.2979 34.7065 68.8251 33.7997L66.783 30.3603C66.0915 30.7708 64.997 31.068 63.332 31.068V35.068ZM68.864 33.776C70.524 32.7385 71.468 31.1449 71.468 29.168H67.468C67.468 29.6871 67.3027 30.0348 66.744 30.384L68.864 33.776ZM71.468 29.168C71.468 28.1107 71.1752 27.0994 70.5321 26.2266C69.904 25.3741 69.0339 24.778 68.0719 24.3657L66.4962 28.0423C66.9901 28.254 67.2121 28.4639 67.3119 28.5994C67.3968 28.7146 67.468 28.8733 67.468 29.168H71.468ZM68.088 24.3727C66.3166 23.595 64.1204 23.268 61.616 23.268V27.268C63.8263 27.268 65.4088 27.565 66.48 28.0353L68.088 24.3727ZM61.616 23.268C59.7433 23.268 57.932 23.4149 56.1844 23.7124L56.8556 27.6556C58.3667 27.3984 59.9528 27.268 61.616 27.268V23.268ZM56.1773 23.7136C54.4627 24.0118 52.7247 24.4753 50.9643 25.0987L52.2997 28.8693C53.8674 28.314 55.388 27.9109 56.8627 27.6544L56.1773 23.7136ZM51.9149 25.0041L51.5509 24.9521L50.9852 28.9119L51.3492 28.9639L51.9149 25.0041ZM53.247 27.2211L56.627 4.08107L52.669 3.50293L49.289 26.6429L53.247 27.2211ZM54.648 5.792H81.324V1.792H54.648V5.792ZM79.324 3.792V14.764H83.324V3.792H79.324ZM81.324 12.764H64.528V16.764H81.324V12.764ZM62.5615 14.3998C62.3927 15.3111 62.2262 16.109 62.0624 16.7968L65.9536 17.7232C66.1366 16.955 66.3167 16.0889 66.4946 15.1282L62.5615 14.3998ZM62.0624 16.7968C61.9221 17.3862 61.7298 17.9164 61.4912 18.3936L65.0689 20.1824C65.4543 19.4116 65.7473 18.5897 65.9536 17.7232L62.0624 16.7968ZM64.7364 20.6587C64.9296 20.4535 65.46 20.0959 66.6441 19.7531L65.5319 15.9109C64.0814 16.3308 62.7398 16.9438 61.8236 17.9173L64.7364 20.6587ZM66.6903 19.7392C67.798 19.3894 68.9976 19.208 70.3 19.208V15.208C68.6212 15.208 67.0127 15.4426 65.4858 15.9248L66.6903 19.7392ZM70.3 19.208C72.3908 19.208 74.2971 19.6597 76.0495 20.5508L77.8625 16.9852C75.5243 15.7963 72.9933 15.208 70.3 15.208V19.208ZM76.0857 20.5687C77.8485 21.4207 79.2107 22.6181 80.2177 24.1718L83.5743 21.9962C82.1547 19.8059 80.2235 18.1259 77.8264 16.9673L76.0857 20.5687ZM80.2271 24.1861C81.2026 25.6634 81.716 27.4036 81.716 29.48H85.716C85.716 26.7031 85.0161 24.1793 83.565 21.9819L80.2271 24.1861ZM81.716 29.48C81.716 32.2374 80.9538 34.3977 79.5297 36.1012L82.5984 38.6668C84.7102 36.141 85.716 33.032 85.716 29.48H81.716ZM79.5173 36.1161C78.0387 37.92 76.0479 39.3027 73.4682 40.2351L74.8279 43.9969C78.0028 42.8493 80.6227 41.0774 82.6108 38.6519L79.5173 36.1161ZM73.4812 40.2304C70.8716 41.1534 68.0311 41.624 64.944 41.624V45.624C68.4436 45.624 71.7392 45.0893 74.8149 44.0016L73.4812 40.2304ZM92.3314 42.844L91.5241 44.6738L91.5338 44.6781L91.5435 44.6823L92.3314 42.844ZM89.4194 40.608L87.8194 41.808L87.8329 41.826L87.8467 41.8436L89.4194 40.608ZM89.4194 33.692L87.826 32.4832L87.8125 32.501L87.7995 32.519L89.4194 33.692ZM92.3314 31.404L93.1387 33.2338L93.1508 33.2285L93.1629 33.2229L92.3314 31.404ZM99.7674 31.404L98.9158 33.2136L98.9474 33.2285L98.9795 33.2423L99.7674 31.404ZM102.679 33.692L101.059 34.865L101.073 34.883L101.086 34.9008L102.679 33.692ZM102.679 40.608L101.107 39.3724L101.093 39.39L101.079 39.408L102.679 40.608ZM99.7674 42.844L98.9795 41.0057L98.9698 41.0099L98.9601 41.0142L99.7674 42.844ZM96.0754 41.624C95.0715 41.624 94.091 41.4222 93.1192 41.0057L91.5435 44.6823C92.9984 45.3058 94.5139 45.624 96.0754 45.624V41.624ZM93.1387 41.0142C92.2464 40.6205 91.5432 40.0738 90.992 39.3724L87.8467 41.8436C88.8209 43.0835 90.059 44.0275 91.5241 44.6738L93.1387 41.0142ZM91.0194 39.408C90.5736 38.8137 90.3274 38.0999 90.3274 37.176H86.3274C86.3274 38.8868 86.8091 40.461 87.8194 41.808L91.0194 39.408ZM90.3274 37.176C90.3274 36.2525 90.574 35.5076 91.0393 34.865L87.7995 32.519C86.8088 33.8871 86.3274 35.4648 86.3274 37.176H90.3274ZM91.0128 34.9008C91.5659 34.1716 92.2637 33.6199 93.1387 33.2338L91.5241 29.5742C90.0417 30.2281 88.7982 31.2017 87.826 32.4832L91.0128 34.9008ZM93.1629 33.2229C94.126 32.7827 95.0912 32.572 96.0754 32.572V28.572C94.4942 28.572 92.9634 28.916 91.4999 29.5851L93.1629 33.2229ZM96.0754 32.572C97.0589 32.572 97.9992 32.7823 98.9158 33.2136L100.619 29.5944C99.1782 28.9164 97.6572 28.572 96.0754 28.572V32.572ZM98.9795 33.2423C99.8824 33.6292 100.557 34.1713 101.059 34.865L104.299 32.519C103.346 31.202 102.079 30.2188 100.555 29.5657L98.9795 33.2423ZM101.086 34.9008C101.573 35.5423 101.823 36.2746 101.823 37.176H105.823C105.823 35.4427 105.311 33.8524 104.273 32.4832L101.086 34.9008ZM101.823 37.176C101.823 38.0774 101.573 38.7786 101.107 39.3724L104.252 41.8436C105.311 40.4961 105.823 38.9092 105.823 37.176H101.823ZM101.079 39.408C100.58 40.0741 99.9001 40.6112 98.9795 41.0057L100.555 44.6823C102.061 44.0368 103.323 43.0832 104.279 41.808L101.079 39.408ZM98.9601 41.0142C98.0346 41.4225 97.0788 41.624 96.0754 41.624V45.624C97.6373 45.624 99.1428 45.3055 100.575 44.6738L98.9601 41.0142ZM117.552 40.972L118.618 39.2795L117.552 40.972ZM111.156 33.692L109.344 34.5378L109.347 34.5456L111.156 33.692ZM111.208 12.892L109.415 12.0058V12.0058L111.208 12.892ZM117.656 5.768L116.615 4.06038L116.606 4.06613L117.656 5.768ZM137.676 5.768L136.626 7.4699L136.635 7.47559L137.676 5.768ZM144.176 12.892L142.383 13.7782L144.176 12.892ZM144.228 33.692L146.037 34.5456L146.041 34.5378L144.228 33.692ZM137.832 40.972L138.898 42.6645L137.832 40.972ZM131.436 29.688L129.695 28.7039L129.691 28.7103L129.688 28.7167L131.436 29.688ZM131.488 17.468L133.196 16.4268L131.488 17.468ZM123.896 17.468L122.189 16.4268L123.896 17.468ZM123.896 29.688L122.139 30.643L122.151 30.666L122.164 30.6886L123.896 29.688ZM127.692 41.624C124.044 41.624 121.05 40.811 118.618 39.2795L116.487 42.6645C119.67 44.669 123.436 45.624 127.692 45.624V41.624ZM118.618 39.2795C116.142 37.7206 114.263 35.5893 112.965 32.8384L109.347 34.5456C110.961 37.9654 113.347 40.6874 116.487 42.6645L118.618 39.2795ZM112.969 32.8462C111.654 30.0298 110.972 26.7724 110.972 23.032H106.972C106.972 27.265 107.746 31.1142 109.344 34.5378L112.969 32.8462ZM110.972 23.032C110.972 19.5603 111.661 16.4888 113.001 13.7782L109.415 12.0058C107.774 15.3272 106.972 19.0157 106.972 23.032H110.972ZM113.001 13.7782C114.329 11.0914 116.224 9.00225 118.707 7.46987L116.606 4.06613C113.472 6.00042 111.069 8.66064 109.415 12.0058L113.001 13.7782ZM118.697 7.47559C121.18 5.96169 124.153 5.168 127.692 5.168V1.168C123.535 1.168 119.818 2.10764 116.615 4.06041L118.697 7.47559ZM127.692 5.168C131.232 5.168 134.183 5.9619 136.626 7.46987L138.727 4.06613C135.554 2.10743 131.849 1.168 127.692 1.168V5.168ZM136.635 7.47559C139.151 9.00962 141.058 11.0979 142.383 13.7782L145.969 12.0058C144.313 8.65414 141.887 5.99304 138.717 4.06041L136.635 7.47559ZM142.383 13.7782C143.723 16.4888 144.412 19.5603 144.412 23.032H148.412C148.412 19.0157 147.611 15.3272 145.969 12.0058L142.383 13.7782ZM144.412 23.032C144.412 26.7724 143.73 30.0298 142.416 32.8462L146.041 34.5378C147.638 31.1142 148.412 27.265 148.412 23.032H144.412ZM142.419 32.8384C141.121 35.5893 139.243 37.7206 136.767 39.2795L138.898 42.6645C142.038 40.6874 144.423 37.9654 146.037 34.5456L142.419 32.8384ZM136.767 39.2795C134.334 40.811 131.34 41.624 127.692 41.624V45.624C131.948 45.624 135.714 44.669 138.898 42.6645L136.767 39.2795ZM127.692 34.028C130.129 34.028 132.006 32.7802 133.185 30.6593L129.688 28.7167C129.133 29.7158 128.514 30.028 127.692 30.028V34.028ZM133.177 30.6721C134.305 28.6773 134.788 26.2044 134.788 23.396H130.788C130.788 25.7876 130.37 27.5093 129.695 28.7039L133.177 30.6721ZM134.788 23.396C134.788 20.6748 134.329 18.2845 133.196 16.4268L129.781 18.5092C130.381 19.4942 130.788 21.0559 130.788 23.396H134.788ZM133.196 16.4268C131.966 14.4103 130.054 13.336 127.692 13.336V17.336C128.658 17.336 129.277 17.683 129.781 18.5092L133.196 16.4268ZM127.692 13.336C125.33 13.336 123.418 14.4103 122.189 16.4268L125.604 18.5092C126.108 17.683 126.726 17.336 127.692 17.336V13.336ZM122.189 16.4268C121.056 18.2845 120.596 20.6748 120.596 23.396H124.596C124.596 21.0559 125.003 19.4942 125.604 18.5092L122.189 16.4268ZM120.596 23.396C120.596 26.1943 121.059 28.6558 122.139 30.643L125.653 28.733C125 27.5309 124.596 25.7977 124.596 23.396H120.596ZM122.164 30.6886C123.377 32.7879 125.262 34.028 127.692 34.028V30.028C126.864 30.028 126.218 29.7081 125.628 28.6874L122.164 30.6886ZM159.142 40.972L160.208 39.2795L159.142 40.972ZM152.746 33.692L150.934 34.5378L150.937 34.5456L152.746 33.692ZM152.798 12.892L151.005 12.0058V12.0058L152.798 12.892ZM159.246 5.768L158.205 4.06038L158.195 4.06613L159.246 5.768ZM179.266 5.768L178.215 7.4699L178.225 7.47559L179.266 5.768ZM185.766 12.892L183.973 13.7782L185.766 12.892ZM185.818 33.692L187.627 34.5456L187.63 34.5378L185.818 33.692ZM179.422 40.972L180.488 42.6645L179.422 40.972ZM173.026 29.688L171.285 28.7039L171.281 28.7103L171.278 28.7167L173.026 29.688ZM173.078 17.468L174.786 16.4268L173.078 17.468ZM165.486 17.468L163.778 16.4268L165.486 17.468ZM165.486 29.688L163.729 30.643L163.741 30.666L163.754 30.6886L165.486 29.688ZM169.282 41.624C165.634 41.624 162.64 40.811 160.208 39.2795L158.076 42.6645C161.26 44.669 165.026 45.624 169.282 45.624V41.624ZM160.208 39.2795C157.732 37.7206 155.853 35.5893 154.555 32.8384L150.937 34.5456C152.551 37.9654 154.936 40.6874 158.076 42.6645L160.208 39.2795ZM154.558 32.8462C153.244 30.0298 152.562 26.7724 152.562 23.032H148.562C148.562 27.265 149.336 31.1142 150.934 34.5378L154.558 32.8462ZM152.562 23.032C152.562 19.5603 153.251 16.4888 154.591 13.7782L151.005 12.0058C149.363 15.3272 148.562 19.0157 148.562 23.032H152.562ZM154.591 13.7782C155.919 11.0914 157.814 9.00225 160.297 7.46987L158.195 4.06613C155.062 6.00042 152.658 8.66064 151.005 12.0058L154.591 13.7782ZM160.287 7.47559C162.77 5.96169 165.743 5.168 169.282 5.168V1.168C165.125 1.168 161.407 2.10764 158.205 4.06041L160.287 7.47559ZM169.282 5.168C172.822 5.168 175.773 5.9619 178.215 7.46987L180.317 4.06613C177.143 2.10743 173.438 1.168 169.282 1.168V5.168ZM178.225 7.47559C180.741 9.00962 182.648 11.0979 183.973 13.7782L187.559 12.0058C185.902 8.65414 183.477 5.99304 180.307 4.06041L178.225 7.47559ZM183.973 13.7782C185.313 16.4888 186.002 19.5603 186.002 23.032H190.002C190.002 19.0157 189.201 15.3272 187.559 12.0058L183.973 13.7782ZM186.002 23.032C186.002 26.7724 185.32 30.0298 184.006 32.8462L187.63 34.5378C189.228 31.1142 190.002 27.265 190.002 23.032H186.002ZM184.009 32.8384C182.711 35.5893 180.832 37.7206 178.356 39.2795L180.488 42.6645C183.628 40.6874 186.013 37.9654 187.627 34.5456L184.009 32.8384ZM178.356 39.2795C175.924 40.811 172.93 41.624 169.282 41.624V45.624C173.538 45.624 177.304 44.669 180.488 42.6645L178.356 39.2795ZM169.282 34.028C171.719 34.028 173.596 32.7802 174.774 30.6593L171.278 28.7167C170.723 29.7158 170.104 30.028 169.282 30.028V34.028ZM174.767 30.6721C175.895 28.6773 176.378 26.2044 176.378 23.396H172.378C172.378 25.7876 171.96 27.5093 171.285 28.7039L174.767 30.6721ZM176.378 23.396C176.378 20.6748 175.918 18.2845 174.786 16.4268L171.37 18.5092C171.971 19.4942 172.378 21.0559 172.378 23.396H176.378ZM174.786 16.4268C173.556 14.4103 171.644 13.336 169.282 13.336V17.336C170.248 17.336 170.867 17.683 171.37 18.5092L174.786 16.4268ZM169.282 13.336C166.92 13.336 165.008 14.4103 163.778 16.4268L167.194 18.5092C167.697 17.683 168.316 17.336 169.282 17.336V13.336ZM163.778 16.4268C162.646 18.2845 162.186 20.6748 162.186 23.396H166.186C166.186 21.0559 166.593 19.4942 167.194 18.5092L163.778 16.4268ZM162.186 23.396C162.186 26.1943 162.649 28.6558 163.729 30.643L167.243 28.733C166.59 27.5309 166.186 25.7977 166.186 23.396H162.186ZM163.754 30.6886C164.967 32.7879 166.851 34.028 169.282 34.028V30.028C168.454 30.028 167.807 29.7081 167.218 28.6874L163.754 30.6886ZM200.732 40.972L201.798 39.2795L200.732 40.972ZM194.336 33.692L192.523 34.5378L192.527 34.5456L194.336 33.692ZM194.388 12.892L192.595 12.0058V12.0058L194.388 12.892ZM200.836 5.768L199.795 4.06038L199.785 4.06613L200.836 5.768ZM220.856 5.768L219.805 7.4699L219.815 7.47559L220.856 5.768ZM227.356 12.892L225.563 13.7782L227.356 12.892ZM227.408 33.692L229.217 34.5456L229.22 34.5378L227.408 33.692ZM221.012 40.972L222.077 42.6645L221.012 40.972ZM214.616 29.688L212.875 28.7039L212.871 28.7103L212.868 28.7167L214.616 29.688ZM214.668 17.468L216.375 16.4268L214.668 17.468ZM207.076 17.468L205.368 16.4268L207.076 17.468ZM207.076 29.688L205.319 30.643L205.331 30.666L205.344 30.6886L207.076 29.688ZM210.872 41.624C207.224 41.624 204.23 40.811 201.798 39.2795L199.666 42.6645C202.85 44.669 206.616 45.624 210.872 45.624V41.624ZM201.798 39.2795C199.322 37.7206 197.443 35.5893 196.145 32.8384L192.527 34.5456C194.141 37.9654 196.526 40.6874 199.666 42.6645L201.798 39.2795ZM196.148 32.8462C194.834 30.0298 194.152 26.7724 194.152 23.032H190.152C190.152 27.265 190.926 31.1142 192.523 34.5378L196.148 32.8462ZM194.152 23.032C194.152 19.5603 194.841 16.4888 196.181 13.7782L192.595 12.0058C190.953 15.3272 190.152 19.0157 190.152 23.032H194.152ZM196.181 13.7782C197.509 11.0914 199.404 9.00225 201.886 7.46987L199.785 4.06613C196.652 6.00042 194.248 8.66064 192.595 12.0058L196.181 13.7782ZM201.877 7.47559C204.36 5.96169 207.333 5.168 210.872 5.168V1.168C206.715 1.168 202.997 2.10764 199.795 4.06041L201.877 7.47559ZM210.872 5.168C214.411 5.168 217.362 5.9619 219.805 7.46987L221.906 4.06613C218.733 2.10743 215.028 1.168 210.872 1.168V5.168ZM219.815 7.47559C222.33 9.00962 224.238 11.0979 225.563 13.7782L229.149 12.0058C227.492 8.65414 225.067 5.99304 221.897 4.06041L219.815 7.47559ZM225.563 13.7782C226.903 16.4888 227.592 19.5603 227.592 23.032H231.592C231.592 19.0157 230.79 15.3272 229.149 12.0058L225.563 13.7782ZM227.592 23.032C227.592 26.7724 226.91 30.0298 225.596 32.8462L229.22 34.5378C230.818 31.1142 231.592 27.265 231.592 23.032H227.592ZM225.599 32.8384C224.301 35.5893 222.422 37.7206 219.946 39.2795L222.077 42.6645C225.218 40.6874 227.603 37.9654 229.217 34.5456L225.599 32.8384ZM219.946 39.2795C217.514 40.811 214.52 41.624 210.872 41.624V45.624C215.128 45.624 218.894 44.669 222.077 42.6645L219.946 39.2795ZM210.872 34.028C213.308 34.028 215.186 32.7802 216.364 30.6593L212.868 28.7167C212.313 29.7158 211.694 30.028 210.872 30.028V34.028ZM216.357 30.6721C217.484 28.6773 217.968 26.2044 217.968 23.396H213.968C213.968 25.7876 213.55 27.5093 212.875 28.7039L216.357 30.6721ZM217.968 23.396C217.968 20.6748 217.508 18.2845 216.375 16.4268L212.96 18.5092C213.561 19.4942 213.968 21.0559 213.968 23.396H217.968ZM216.375 16.4268C215.146 14.4103 213.234 13.336 210.872 13.336V17.336C211.838 17.336 212.457 17.683 212.96 18.5092L216.375 16.4268ZM210.872 13.336C208.51 13.336 206.598 14.4103 205.368 16.4268L208.783 18.5092C209.287 17.683 209.906 17.336 210.872 17.336V13.336ZM205.368 16.4268C204.236 18.2845 203.776 20.6748 203.776 23.396H207.776C207.776 21.0559 208.183 19.4942 208.783 18.5092L205.368 16.4268ZM203.776 23.396C203.776 26.1943 204.239 28.6558 205.319 30.643L208.833 28.733C208.18 27.5309 207.776 25.7977 207.776 23.396H203.776ZM205.344 30.6886C206.557 32.7879 208.441 34.028 210.872 34.028V30.028C210.044 30.028 209.397 29.7081 208.808 28.6874L205.344 30.6886Z" fill="#FDD87B" mask="url(#path-1-outside-1_583_3956)"/>
</g>
<defs>
<filter id="filter0_d_583_3956" x="0.820549" y="0.432274" width="234.45" height="51.813" filterUnits="userSpaceOnUse" color-interpolation-filters="sRGB">
<feFlood flood-opacity="0" result="BackgroundImageFix"/>
<feColorMatrix in="SourceAlpha" type="matrix" values="0 0 0 0 0 0 0 0 0 0 0 0 0 0 0 0 0 0 127 0" result="hardAlpha"/>
<feOffset dy="2.94278"/>
<feGaussianBlur stdDeviation="1.83924"/>
<feComposite in2="hardAlpha" operator="out"/>
<feColorMatrix type="matrix" values="0 0 0 0 0 0 0 0 0 0 0 0 0 0 0 0 0 0 0.25 0"/>
<feBlend mode="normal" in2="BackgroundImageFix" result="effect1_dropShadow_583_3956"/>
<feBlend mode="normal" in="SourceGraphic" in2="effect1_dropShadow_583_3956" result="shape"/>
</filter>
</defs>
</svg>
