<svg width="154" height="30" viewBox="0 0 154 30" fill="none" xmlns="http://www.w3.org/2000/svg">
<path d="M19.5704 11.3988C18.9834 10.6487 18.2273 10.0479 17.364 9.64537C16.5007 9.24288 15.5545 9.05012 14.6025 9.08279C13.8212 9.08211 13.0479 9.23954 12.3291 9.5456C11.6103 9.85167 10.9608 10.3 10.4198 10.8637C9.87888 11.4274 9.45761 12.0947 9.18136 12.8255C8.90511 13.5563 8.7796 14.3355 8.81242 15.116C8.77113 15.9026 8.89506 16.689 9.1762 17.4247C9.45734 18.1605 9.88944 18.8291 10.4447 19.3877C11 19.9462 11.6661 20.3823 12.4002 20.6677C13.1342 20.9532 13.92 21.0817 14.7067 21.0451C15.6395 21.0311 16.5585 20.8172 17.4016 20.4176C18.2446 20.0181 18.9921 19.4422 19.5935 18.729V25.515C17.9905 26.0917 16.3055 26.4084 14.6025 26.453C11.5713 26.4475 8.65305 25.3026 6.42691 23.2453C5.28245 22.2093 4.37846 20.9355 3.77833 19.5132C3.17821 18.0909 2.89647 16.5545 2.95287 15.0118C2.94268 12.0361 4.09344 9.17372 6.16055 7.03312C8.35626 4.82432 11.3375 3.5752 14.4519 3.55908C16.2324 3.57619 17.9917 3.94617 19.6283 4.64762L19.5704 11.3988Z" fill="#D7007E"/>
<path d="M46.0658 14.5949C45.9688 17.7258 44.6567 20.696 42.4077 22.8765C40.1586 25.0569 37.1492 26.2762 34.0167 26.2762C30.8842 26.2762 27.8747 25.0569 25.6257 22.8765C23.3766 20.696 22.0646 17.7258 21.9675 14.5949C21.9675 8.00576 27.7576 3.38525 34.0225 3.38525C40.2873 3.38525 46.0658 8.00576 46.0658 14.5949ZM27.8619 14.5949C27.8258 15.4256 27.9583 16.255 28.2514 17.0332C28.5444 17.8113 28.992 18.5221 29.567 19.1227C30.1421 19.7232 30.8328 20.2012 31.5975 20.5277C32.3623 20.8542 33.1852 21.0225 34.0167 21.0225C34.8482 21.0225 35.6711 20.8542 36.4358 20.5277C37.2005 20.2012 37.8913 19.7232 38.4663 19.1227C39.0414 18.5221 39.4889 17.8113 39.782 17.0332C40.0751 16.255 40.2076 15.4256 40.1715 14.5949C40.0548 13.0424 39.3557 11.5913 38.2143 10.5325C37.0729 9.47371 35.5736 8.88536 34.0167 8.88536C32.4598 8.88536 30.9604 9.47371 29.819 10.5325C28.6776 11.5913 27.9786 13.0424 27.8619 14.5949Z" fill="#D7007E"/>
<path d="M51.1032 4.11475H56.6732L61.0969 15.7528L65.7289 4.11475H71.3569L74.6572 25.897H69.0293L67.4428 13.3557H67.3849L62.1507 25.897H59.8925L54.9015 13.3557H54.8436L53.0255 25.897H47.386L51.1032 4.11475Z" fill="#D7007E"/>
<path d="M77.1353 25.897V4.11475H85.2414C89.1091 4.11475 91.7147 5.6086 91.7147 9.77745C91.8006 10.6727 91.6186 11.5734 91.1918 12.3651C90.7651 13.1568 90.1127 13.8039 89.3176 14.2242V14.2821C92.4326 14.7106 93.7643 16.795 93.7643 19.829C93.7643 24.3916 89.8966 25.897 85.8783 25.897H77.1353ZM82.798 12.6609H83.4349C84.9634 12.6609 86.5036 12.4061 86.5036 10.5533C86.5036 8.70048 84.7087 8.44574 83.2032 8.44574H82.798V12.6609ZM82.798 21.5544H83.5275C85.2298 21.5544 88.0322 21.6471 88.0322 19.2384C88.0322 17.3277 86.4689 16.9224 84.8824 16.9224H82.798V21.5544Z" fill="#D7007E"/>
<path d="M119.669 14.5949C119.572 17.7258 118.26 20.696 116.011 22.8765C113.762 25.0569 110.752 26.2762 107.62 26.2762C104.487 26.2762 101.478 25.0569 99.2289 22.8765C96.9799 20.696 95.6679 17.7258 95.5708 14.5949C95.5708 8.00576 101.361 3.38525 107.614 3.38525C113.867 3.38525 119.669 8.00576 119.669 14.5949ZM101.465 14.5949C101.429 15.4256 101.562 16.255 101.855 17.0332C102.148 17.8113 102.595 18.5221 103.17 19.1227C103.745 19.7232 104.436 20.2012 105.201 20.5277C105.966 20.8542 106.788 21.0225 107.62 21.0225C108.451 21.0225 109.274 20.8542 110.039 20.5277C110.804 20.2012 111.494 19.7232 112.07 19.1227C112.645 18.5221 113.092 17.8113 113.385 17.0332C113.678 16.255 113.811 15.4256 113.775 14.5949C113.658 13.0424 112.959 11.5913 111.818 10.5325C110.676 9.47371 109.177 8.88536 107.62 8.88536C106.063 8.88536 104.564 9.47371 103.422 10.5325C102.281 11.5913 101.582 13.0424 101.465 14.5949Z" fill="#D7007E"/>
<path d="M19.5704 11.3988C18.9834 10.6487 18.2273 10.0479 17.364 9.64537C16.5007 9.24288 15.5545 9.05012 14.6025 9.08279C13.8212 9.08211 13.0479 9.23954 12.3291 9.5456C11.6103 9.85167 10.9608 10.3 10.4198 10.8637C9.87888 11.4274 9.45761 12.0947 9.18136 12.8255C8.90511 13.5563 8.7796 14.3355 8.81242 15.116C8.77113 15.9026 8.89506 16.689 9.1762 17.4247C9.45734 18.1605 9.88944 18.8291 10.4447 19.3877C11 19.9462 11.6661 20.3823 12.4002 20.6677C13.1342 20.9532 13.92 21.0817 14.7067 21.0451C15.6395 21.0311 16.5585 20.8172 17.4016 20.4176C18.2446 20.0181 18.9921 19.4422 19.5935 18.729V25.515C17.9905 26.0917 16.3055 26.4084 14.6025 26.453C11.5713 26.4475 8.65305 25.3026 6.42691 23.2453C5.28245 22.2093 4.37846 20.9355 3.77833 19.5132C3.17821 18.0909 2.89647 16.5545 2.95287 15.0118C2.94268 12.0361 4.09344 9.17372 6.16055 7.03312C8.35626 4.82432 11.3375 3.5752 14.4519 3.55908C16.2324 3.57619 17.9917 3.94617 19.6283 4.64762L19.5704 11.3988Z" fill="black"/>
<path d="M46.0658 14.5949C45.9688 17.7258 44.6567 20.696 42.4077 22.8765C40.1586 25.0569 37.1492 26.2762 34.0167 26.2762C30.8842 26.2762 27.8747 25.0569 25.6257 22.8765C23.3766 20.696 22.0646 17.7258 21.9675 14.5949C21.9675 8.00576 27.7576 3.38525 34.0225 3.38525C40.2873 3.38525 46.0658 8.00576 46.0658 14.5949ZM27.8619 14.5949C27.8258 15.4256 27.9583 16.255 28.2514 17.0332C28.5444 17.8113 28.992 18.5221 29.567 19.1227C30.1421 19.7232 30.8328 20.2012 31.5975 20.5277C32.3623 20.8542 33.1852 21.0225 34.0167 21.0225C34.8482 21.0225 35.6711 20.8542 36.4358 20.5277C37.2005 20.2012 37.8913 19.7232 38.4663 19.1227C39.0414 18.5221 39.4889 17.8113 39.782 17.0332C40.0751 16.255 40.2076 15.4256 40.1715 14.5949C40.0548 13.0424 39.3557 11.5913 38.2143 10.5325C37.0729 9.47371 35.5736 8.88536 34.0167 8.88536C32.4598 8.88536 30.9604 9.47371 29.819 10.5325C28.6776 11.5913 27.9786 13.0424 27.8619 14.5949Z" fill="black"/>
<path d="M51.1032 4.11475H56.6732L61.0969 15.7528L65.7289 4.11475H71.3569L74.6572 25.897H69.0293L67.4428 13.3557H67.3849L62.1507 25.897H59.8925L54.9015 13.3557H54.8436L53.0255 25.897H47.386L51.1032 4.11475Z" fill="black"/>
<path d="M77.1353 25.897V4.11475H85.2414C89.1091 4.11475 91.7147 5.6086 91.7147 9.77745C91.8006 10.6727 91.6186 11.5734 91.1918 12.3651C90.7651 13.1568 90.1127 13.8039 89.3176 14.2242V14.2821C92.4326 14.7106 93.7643 16.795 93.7643 19.829C93.7643 24.3916 89.8966 25.897 85.8783 25.897H77.1353ZM82.798 12.6609H83.4349C84.9634 12.6609 86.5036 12.4061 86.5036 10.5533C86.5036 8.70048 84.7087 8.44574 83.2032 8.44574H82.798V12.6609ZM82.798 21.5544H83.5275C85.2298 21.5544 88.0322 21.6471 88.0322 19.2384C88.0322 17.3277 86.4689 16.9224 84.8824 16.9224H82.798V21.5544Z" fill="black"/>
<path d="M119.669 14.5949C119.572 17.7258 118.26 20.696 116.011 22.8765C113.762 25.0569 110.752 26.2762 107.62 26.2762C104.487 26.2762 101.478 25.0569 99.2289 22.8765C96.9799 20.696 95.6679 17.7258 95.5708 14.5949C95.5708 8.00576 101.361 3.38525 107.614 3.38525C113.867 3.38525 119.669 8.00576 119.669 14.5949ZM101.465 14.5949C101.429 15.4256 101.562 16.255 101.855 17.0332C102.148 17.8113 102.595 18.5221 103.17 19.1227C103.745 19.7232 104.436 20.2012 105.201 20.5277C105.966 20.8542 106.788 21.0225 107.62 21.0225C108.451 21.0225 109.274 20.8542 110.039 20.5277C110.804 20.2012 111.494 19.7232 112.07 19.1227C112.645 18.5221 113.092 17.8113 113.385 17.0332C113.678 16.255 113.811 15.4256 113.775 14.5949C113.658 13.0424 112.959 11.5913 111.818 10.5325C110.676 9.47371 109.177 8.88536 107.62 8.88536C106.063 8.88536 104.564 9.47371 103.422 10.5325C102.281 11.5913 101.582 13.0424 101.465 14.5949Z" fill="black"/>
<path d="M19.5704 11.3988C18.9834 10.6487 18.2273 10.0479 17.364 9.64537C16.5007 9.24288 15.5545 9.05012 14.6025 9.08279C13.8212 9.08211 13.0479 9.23954 12.3291 9.5456C11.6103 9.85167 10.9608 10.3 10.4198 10.8637C9.87888 11.4274 9.45761 12.0947 9.18136 12.8255C8.90511 13.5563 8.7796 14.3355 8.81242 15.116C8.77113 15.9026 8.89506 16.689 9.1762 17.4247C9.45734 18.1605 9.88944 18.8291 10.4447 19.3877C11 19.9462 11.6661 20.3823 12.4002 20.6677C13.1342 20.9532 13.92 21.0817 14.7067 21.0451C15.6395 21.0311 16.5585 20.8172 17.4016 20.4176C18.2446 20.0181 18.9921 19.4422 19.5935 18.729V25.515C17.9905 26.0917 16.3055 26.4084 14.6025 26.453C11.5713 26.4475 8.65305 25.3026 6.42691 23.2453C5.28245 22.2093 4.37846 20.9355 3.77833 19.5132C3.17821 18.0909 2.89647 16.5545 2.95287 15.0118C2.94268 12.0361 4.09344 9.17372 6.16055 7.03312C8.35626 4.82432 11.3375 3.5752 14.4519 3.55908C16.2324 3.57619 17.9917 3.94617 19.6283 4.64762L19.5704 11.3988Z" fill="#030963"/>
<path d="M46.0658 14.5949C45.9688 17.7258 44.6567 20.696 42.4077 22.8765C40.1586 25.0569 37.1492 26.2762 34.0167 26.2762C30.8842 26.2762 27.8747 25.0569 25.6257 22.8765C23.3766 20.696 22.0646 17.7258 21.9675 14.5949C21.9675 8.00576 27.7576 3.38525 34.0225 3.38525C40.2873 3.38525 46.0658 8.00576 46.0658 14.5949ZM27.8619 14.5949C27.8258 15.4256 27.9583 16.255 28.2514 17.0332C28.5444 17.8113 28.992 18.5221 29.567 19.1227C30.1421 19.7232 30.8328 20.2012 31.5975 20.5277C32.3623 20.8542 33.1852 21.0225 34.0167 21.0225C34.8482 21.0225 35.6711 20.8542 36.4358 20.5277C37.2005 20.2012 37.8913 19.7232 38.4663 19.1227C39.0414 18.5221 39.4889 17.8113 39.782 17.0332C40.0751 16.255 40.2076 15.4256 40.1715 14.5949C40.0548 13.0424 39.3557 11.5913 38.2143 10.5325C37.0729 9.47371 35.5736 8.88536 34.0167 8.88536C32.4598 8.88536 30.9604 9.47371 29.819 10.5325C28.6776 11.5913 27.9786 13.0424 27.8619 14.5949Z" fill="#030963"/>
<path d="M51.1032 4.11475H56.6732L61.0969 15.7528L65.7289 4.11475H71.3569L74.6572 25.897H69.0293L67.4428 13.3557H67.3849L62.1507 25.897H59.8925L54.9015 13.3557H54.8436L53.0255 25.897H47.386L51.1032 4.11475Z" fill="#030963"/>
<path d="M77.1353 25.897V4.11475H85.2414C89.1091 4.11475 91.7147 5.6086 91.7147 9.77745C91.8006 10.6727 91.6186 11.5734 91.1918 12.3651C90.7651 13.1568 90.1127 13.8039 89.3176 14.2242V14.2821C92.4326 14.7106 93.7643 16.795 93.7643 19.829C93.7643 24.3916 89.8966 25.897 85.8783 25.897H77.1353ZM82.798 12.6609H83.4349C84.9634 12.6609 86.5036 12.4061 86.5036 10.5533C86.5036 8.70048 84.7087 8.44574 83.2032 8.44574H82.798V12.6609ZM82.798 21.5544H83.5275C85.2298 21.5544 88.0322 21.6471 88.0322 19.2384C88.0322 17.3277 86.4689 16.9224 84.8824 16.9224H82.798V21.5544Z" fill="#030963"/>
<path d="M119.669 14.5949C119.572 17.7258 118.26 20.696 116.011 22.8765C113.762 25.0569 110.752 26.2762 107.62 26.2762C104.487 26.2762 101.478 25.0569 99.2289 22.8765C96.9799 20.696 95.6679 17.7258 95.5708 14.5949C95.5708 8.00576 101.361 3.38525 107.614 3.38525C113.867 3.38525 119.669 8.00576 119.669 14.5949ZM101.465 14.5949C101.429 15.4256 101.562 16.255 101.855 17.0332C102.148 17.8113 102.595 18.5221 103.17 19.1227C103.745 19.7232 104.436 20.2012 105.201 20.5277C105.966 20.8542 106.788 21.0225 107.62 21.0225C108.451 21.0225 109.274 20.8542 110.039 20.5277C110.804 20.2012 111.494 19.7232 112.07 19.1227C112.645 18.5221 113.092 17.8113 113.385 17.0332C113.678 16.255 113.811 15.4256 113.775 14.5949C113.658 13.0424 112.959 11.5913 111.818 10.5325C110.676 9.47371 109.177 8.88536 107.62 8.88536C106.063 8.88536 104.564 9.47371 103.422 10.5325C102.281 11.5913 101.582 13.0424 101.465 14.5949Z" fill="#030963"/>
<path d="M150.472 21.2767V26.0824H132.905L141.834 16.3782C143.28 14.9417 144.167 13.0366 144.335 11.0051C144.373 10.2987 144.132 9.6055 143.665 9.07485C143.197 8.5442 142.539 8.21851 141.834 8.16793C141.502 8.17708 141.176 8.25497 140.876 8.39668C140.576 8.53839 140.309 8.74085 140.091 8.9912C139.873 9.24156 139.71 9.53437 139.611 9.85113C139.512 10.1679 139.481 10.5017 139.518 10.8314C139.515 11.1426 139.546 11.4532 139.61 11.7578H133.345C133.484 6.74358 136.704 3.35059 141.868 3.35059C146.443 3.35059 150.299 6.37303 150.299 11.1209C150.299 14.2591 148.967 16.054 146.825 18.069L143.432 21.2303L150.472 21.2767Z" fill="#D7007E"/>
<path d="M150.472 21.2767V26.0824H132.905L141.834 16.3782C143.28 14.9417 144.167 13.0366 144.335 11.0051C144.373 10.2987 144.132 9.6055 143.665 9.07485C143.197 8.5442 142.539 8.21851 141.834 8.16793C141.502 8.17708 141.176 8.25497 140.876 8.39668C140.576 8.53839 140.309 8.74085 140.091 8.9912C139.873 9.24156 139.71 9.53437 139.611 9.85113C139.512 10.1679 139.481 10.5017 139.518 10.8314C139.515 11.1426 139.546 11.4532 139.61 11.7578H133.345C133.484 6.74358 136.704 3.35059 141.868 3.35059C146.443 3.35059 150.299 6.37303 150.299 11.1209C150.299 14.2591 148.967 16.054 146.825 18.069L143.432 21.2303L150.472 21.2767Z" fill="black"/>
<path d="M150.472 21.2767V26.0824H132.905L141.834 16.3782C143.28 14.9417 144.167 13.0366 144.335 11.0051C144.373 10.2987 144.132 9.6055 143.665 9.07485C143.197 8.5442 142.539 8.21851 141.834 8.16793C141.502 8.17708 141.176 8.25497 140.876 8.39668C140.576 8.53839 140.309 8.74085 140.091 8.9912C139.873 9.24156 139.71 9.53437 139.611 9.85113C139.512 10.1679 139.481 10.5017 139.518 10.8314C139.515 11.1426 139.546 11.4532 139.61 11.7578H133.345C133.484 6.74358 136.704 3.35059 141.868 3.35059C146.443 3.35059 150.299 6.37303 150.299 11.1209C150.299 14.2591 148.967 16.054 146.825 18.069L143.432 21.2303L150.472 21.2767Z" fill="#030963"/>
</svg>
