<svg width="153" height="30" viewBox="0 0 153 30" fill="none" xmlns="http://www.w3.org/2000/svg">
<g clip-path="url(#clip0_177_4644)">
<path d="M116.126 5.38641H98.5266V22.9854H116.126V5.38641Z" fill="#FC9015"/>
<path d="M40.9834 5.38641H7.21741V22.9854H40.9834V5.38641Z" fill="#FC9015"/>
<path d="M19.5159 11.3913C18.9416 10.6248 18.1922 10.0069 17.3304 9.5891C16.4686 9.17125 15.5193 8.9656 14.5619 8.98932C13.7818 8.98857 13.0096 9.14591 12.292 9.45183C11.5744 9.75776 10.9262 10.2059 10.3865 10.7693C9.84693 11.3327 9.42708 11.9995 9.15232 12.7296C8.87756 13.4597 8.7536 14.238 8.78793 15.0173C8.74662 15.8012 8.8702 16.5849 9.15067 17.318C9.43113 18.0511 9.86225 18.7172 10.4162 19.2733C10.9701 19.8295 11.6345 20.2632 12.3665 20.5465C13.0985 20.8299 13.8818 20.9565 14.6658 20.9183C15.5962 20.9051 16.5128 20.6921 17.3537 20.2936C18.1945 19.8951 18.9398 19.3205 19.539 18.6087V25.4451C17.9408 26.0454 16.2563 26.3846 14.5503 26.4497C11.5265 26.45 8.61437 25.3074 6.39751 23.251C5.25561 22.2183 4.35372 20.9482 3.75522 19.5297C3.15671 18.1112 2.87611 16.5789 2.93314 15.0404C2.92599 12.0769 4.07336 9.22722 6.13193 7.09545C8.31276 4.87267 11.2864 3.60597 14.4002 3.57336C16.1771 3.58848 17.9326 3.96161 19.5621 4.67043L19.5159 11.3913Z" fill="#D7007E"/>
<path d="M45.9375 14.5554C45.8407 17.6777 44.5323 20.6396 42.2895 22.8139C40.0467 24.9883 37.0457 26.2042 33.9219 26.2042C30.7982 26.2042 27.7971 24.9883 25.5543 22.8139C23.3115 20.6396 22.0031 17.6777 21.9063 14.5554C21.9063 7.98467 27.6803 3.37708 33.9277 3.37708C40.1751 3.37708 45.9375 7.98467 45.9375 14.5554ZM27.7842 14.5554C27.7483 15.3838 27.8804 16.2109 28.1726 16.9869C28.4649 17.7629 28.9112 18.4717 29.4846 19.0706C30.0581 19.6695 30.7469 20.1461 31.5095 20.4717C32.2721 20.7973 33.0927 20.9652 33.9219 20.9652C34.7511 20.9652 35.5717 20.7973 36.3343 20.4717C37.0969 20.1461 37.7857 19.6695 38.3591 19.0706C38.9326 18.4717 39.3789 17.7629 39.6712 16.9869C39.9634 16.2109 40.0955 15.3838 40.0596 14.5554C39.9432 13.0072 39.2461 11.5602 38.1078 10.5044C36.9696 9.44853 35.4744 8.86182 33.9219 8.86182C32.3694 8.86182 30.8742 9.44853 29.7359 10.5044C28.5977 11.5602 27.9006 13.0072 27.7842 14.5554Z" fill="#D7007E"/>
<path d="M50.9608 4.09308H56.5153L60.9266 15.7102L65.5457 4.09308H71.158L74.4492 25.8262H68.8369L67.2548 13.3198H67.1971L61.9775 25.8262H59.7256L54.7485 13.3198H54.6907L52.8777 25.8262H47.2539L50.9608 4.09308Z" fill="#D7007E"/>
<path d="M76.9204 25.8262V4.09308H85.0039C88.8609 4.09308 91.4592 5.59429 91.4592 9.73997C91.5472 10.6346 91.3669 11.5353 90.9412 12.3271C90.5155 13.1189 89.8636 13.766 89.0688 14.1859V14.2436C92.1751 14.6709 93.5032 16.7495 93.5032 19.7751C93.5032 24.325 89.6462 25.8262 85.639 25.8262H76.9204ZM82.5673 12.6269H83.2025C84.7268 12.6269 86.2626 12.3613 86.2626 10.5252C86.2626 8.68911 84.4727 8.42353 82.9715 8.42353H82.5673V12.6269ZM82.5673 21.4957H83.2948C84.9924 21.4957 87.787 21.5881 87.787 19.1861C87.787 17.2807 86.228 16.8766 84.6459 16.8766H82.5673V21.4957Z" fill="#D7007E"/>
<path d="M119.336 14.5554C119.239 17.6777 117.931 20.6396 115.688 22.8139C113.445 24.9883 110.444 26.2042 107.32 26.2042C104.197 26.2042 101.195 24.9883 98.9526 22.8139C96.7098 20.6396 95.4015 17.6777 95.3047 14.5554C95.3047 7.98467 101.079 3.37708 107.314 3.37708C113.55 3.37708 119.336 7.98467 119.336 14.5554ZM101.183 14.5554C101.147 15.3838 101.279 16.2109 101.571 16.9869C101.863 17.7629 102.31 18.4717 102.883 19.0706C103.457 19.6695 104.145 20.1461 104.908 20.4717C105.67 20.7973 106.491 20.9652 107.32 20.9652C108.149 20.9652 108.97 20.7973 109.733 20.4717C110.495 20.1461 111.184 19.6695 111.757 19.0706C112.331 18.4717 112.777 17.7629 113.07 16.9869C113.362 16.2109 113.494 15.3838 113.458 14.5554C113.342 13.0072 112.644 11.5602 111.506 10.5044C110.368 9.44853 108.873 8.86182 107.32 8.86182C105.768 8.86182 104.273 9.44853 103.134 10.5044C101.996 11.5602 101.299 13.0072 101.183 14.5554Z" fill="#D7007E"/>
<path d="M19.5159 11.3913C18.9416 10.6248 18.1922 10.0069 17.3304 9.5891C16.4686 9.17125 15.5193 8.9656 14.5619 8.98932C13.7818 8.98857 13.0096 9.14591 12.292 9.45183C11.5744 9.75776 10.9262 10.2059 10.3865 10.7693C9.84693 11.3327 9.42708 11.9995 9.15232 12.7296C8.87756 13.4597 8.7536 14.238 8.78793 15.0173C8.74662 15.8012 8.8702 16.5849 9.15067 17.318C9.43113 18.0511 9.86225 18.7172 10.4162 19.2733C10.9701 19.8295 11.6345 20.2632 12.3665 20.5465C13.0985 20.8299 13.8818 20.9565 14.6658 20.9183C15.5962 20.9051 16.5128 20.6921 17.3537 20.2936C18.1945 19.8951 18.9398 19.3205 19.539 18.6087V25.4451C17.9408 26.0454 16.2563 26.3846 14.5503 26.4497C11.5265 26.45 8.61437 25.3074 6.39751 23.251C5.25561 22.2183 4.35372 20.9482 3.75522 19.5297C3.15671 18.1112 2.87611 16.5789 2.93314 15.0404C2.92599 12.0769 4.07336 9.22722 6.13193 7.09545C8.31276 4.87267 11.2864 3.60597 14.4002 3.57336C16.1771 3.58848 17.9326 3.96161 19.5621 4.67043L19.5159 11.3913Z" fill="black"/>
<path d="M45.9375 14.5554C45.8407 17.6777 44.5323 20.6396 42.2895 22.8139C40.0467 24.9883 37.0457 26.2042 33.9219 26.2042C30.7982 26.2042 27.7971 24.9883 25.5543 22.8139C23.3115 20.6396 22.0031 17.6777 21.9063 14.5554C21.9063 7.98467 27.6803 3.37708 33.9277 3.37708C40.1751 3.37708 45.9375 7.98467 45.9375 14.5554ZM27.7842 14.5554C27.7483 15.3838 27.8804 16.2109 28.1726 16.9869C28.4649 17.7629 28.9112 18.4717 29.4846 19.0706C30.0581 19.6695 30.7469 20.1461 31.5095 20.4717C32.2721 20.7973 33.0927 20.9652 33.9219 20.9652C34.7511 20.9652 35.5717 20.7973 36.3343 20.4717C37.0969 20.1461 37.7857 19.6695 38.3591 19.0706C38.9326 18.4717 39.3789 17.7629 39.6712 16.9869C39.9634 16.2109 40.0955 15.3838 40.0596 14.5554C39.9432 13.0072 39.2461 11.5602 38.1078 10.5044C36.9696 9.44853 35.4744 8.86182 33.9219 8.86182C32.3694 8.86182 30.8742 9.44853 29.7359 10.5044C28.5977 11.5602 27.9006 13.0072 27.7842 14.5554Z" fill="black"/>
<path d="M50.9608 4.09308H56.5153L60.9266 15.7102L65.5457 4.09308H71.158L74.4492 25.8262H68.8369L67.2548 13.3198H67.1971L61.9775 25.8262H59.7256L54.7485 13.3198H54.6907L52.8777 25.8262H47.2539L50.9608 4.09308Z" fill="black"/>
<path d="M76.9204 25.8262V4.09308H85.0039C88.8609 4.09308 91.4592 5.59429 91.4592 9.73997C91.5472 10.6346 91.3669 11.5353 90.9412 12.3271C90.5155 13.1189 89.8636 13.766 89.0688 14.1859V14.2436C92.1751 14.6709 93.5032 16.7495 93.5032 19.7751C93.5032 24.325 89.6462 25.8262 85.639 25.8262H76.9204ZM82.5673 12.6269H83.2025C84.7268 12.6269 86.2626 12.3613 86.2626 10.5252C86.2626 8.68911 84.4727 8.42353 82.9715 8.42353H82.5673V12.6269ZM82.5673 21.4957H83.2948C84.9924 21.4957 87.787 21.5881 87.787 19.1861C87.787 17.2807 86.228 16.8766 84.6459 16.8766H82.5673V21.4957Z" fill="black"/>
<path d="M119.336 14.5554C119.239 17.6777 117.931 20.6396 115.688 22.8139C113.445 24.9883 110.444 26.2042 107.32 26.2042C104.197 26.2042 101.195 24.9883 98.9526 22.8139C96.7098 20.6396 95.4015 17.6777 95.3047 14.5554C95.3047 7.98467 101.079 3.37708 107.314 3.37708C113.55 3.37708 119.336 7.98467 119.336 14.5554ZM101.183 14.5554C101.147 15.3838 101.279 16.2109 101.571 16.9869C101.863 17.7629 102.31 18.4717 102.883 19.0706C103.457 19.6695 104.145 20.1461 104.908 20.4717C105.67 20.7973 106.491 20.9652 107.32 20.9652C108.149 20.9652 108.97 20.7973 109.733 20.4717C110.495 20.1461 111.184 19.6695 111.757 19.0706C112.331 18.4717 112.777 17.7629 113.07 16.9869C113.362 16.2109 113.494 15.3838 113.458 14.5554C113.342 13.0072 112.644 11.5602 111.506 10.5044C110.368 9.44853 108.873 8.86182 107.32 8.86182C105.768 8.86182 104.273 9.44853 103.134 10.5044C101.996 11.5602 101.299 13.0072 101.183 14.5554Z" fill="black"/>
<path d="M19.5159 11.3913C18.9416 10.6248 18.1922 10.0069 17.3304 9.5891C16.4686 9.17125 15.5193 8.9656 14.5619 8.98932C13.7818 8.98857 13.0096 9.14591 12.292 9.45183C11.5744 9.75776 10.9262 10.2059 10.3865 10.7693C9.84693 11.3327 9.42708 11.9995 9.15232 12.7296C8.87756 13.4597 8.7536 14.238 8.78793 15.0173C8.74662 15.8012 8.8702 16.5849 9.15067 17.318C9.43113 18.0511 9.86225 18.7172 10.4162 19.2733C10.9701 19.8295 11.6345 20.2632 12.3665 20.5465C13.0985 20.8299 13.8818 20.9565 14.6658 20.9183C15.5962 20.9051 16.5128 20.6921 17.3537 20.2936C18.1945 19.8951 18.9398 19.3205 19.539 18.6087V25.4451C17.9408 26.0454 16.2563 26.3846 14.5503 26.4497C11.5265 26.45 8.61437 25.3074 6.39751 23.251C5.25561 22.2183 4.35372 20.9482 3.75522 19.5297C3.15671 18.1112 2.87611 16.5789 2.93314 15.0404C2.92599 12.0769 4.07336 9.22722 6.13193 7.09545C8.31276 4.87267 11.2864 3.60597 14.4002 3.57336C16.1771 3.58848 17.9326 3.96161 19.5621 4.67043L19.5159 11.3913Z" stroke="#FC9015" stroke-width="5" stroke-miterlimit="10"/>
<path d="M45.9375 14.5554C45.8407 17.6777 44.5323 20.6396 42.2895 22.8139C40.0467 24.9883 37.0457 26.2042 33.9219 26.2042C30.7982 26.2042 27.7971 24.9883 25.5543 22.8139C23.3115 20.6396 22.0031 17.6777 21.9063 14.5554C21.9063 7.98467 27.6803 3.37708 33.9277 3.37708C40.1751 3.37708 45.9375 7.98467 45.9375 14.5554ZM27.7842 14.5554C27.7483 15.3838 27.8804 16.2109 28.1726 16.9869C28.4649 17.7629 28.9112 18.4717 29.4846 19.0706C30.0581 19.6695 30.7469 20.1461 31.5095 20.4717C32.2721 20.7973 33.0927 20.9652 33.9219 20.9652C34.7511 20.9652 35.5717 20.7973 36.3343 20.4717C37.0969 20.1461 37.7857 19.6695 38.3592 19.0706C38.9326 18.4717 39.3789 17.7629 39.6712 16.9869C39.9634 16.2109 40.0955 15.3838 40.0596 14.5554C39.9432 13.0073 39.2461 11.5602 38.1078 10.5044C36.9696 9.44853 35.4744 8.86182 33.9219 8.86182C32.3694 8.86182 30.8742 9.44853 29.7359 10.5044C28.5977 11.5602 27.9006 13.0073 27.7842 14.5554V14.5554Z" stroke="#FC9015" stroke-width="5" stroke-miterlimit="10"/>
<path d="M50.9608 4.09308H56.5153L60.9266 15.7102L65.5457 4.09308H71.158L74.4491 25.8262H68.8369L67.2548 13.3198H67.1971L61.9775 25.8262H59.7256L54.7485 13.3198H54.6907L52.8777 25.8262H47.2539L50.9608 4.09308Z" stroke="#FC9015" stroke-width="5" stroke-miterlimit="10"/>
<path d="M76.9204 25.8262V4.09308H85.0039C88.8609 4.09308 91.4592 5.59428 91.4592 9.73997C91.5472 10.6346 91.3669 11.5353 90.9412 12.3271C90.5155 13.1189 89.8636 13.766 89.0688 14.1859V14.2436C92.1751 14.6709 93.5032 16.7495 93.5032 19.7751C93.5032 24.325 89.6462 25.8262 85.639 25.8262H76.9204ZM82.5673 12.6269H83.2025C84.7268 12.6269 86.2626 12.3613 86.2626 10.5252C86.2626 8.68911 84.4727 8.42353 82.9715 8.42353H82.5673V12.6269ZM82.5673 21.4957H83.2948C84.9924 21.4957 87.787 21.5881 87.787 19.1861C87.787 17.2807 86.228 16.8766 84.6459 16.8766H82.5673V21.4957Z" stroke="#FC9015" stroke-width="5" stroke-miterlimit="10"/>
<path d="M119.336 14.5554C119.239 17.6777 117.931 20.6396 115.688 22.8139C113.445 24.9883 110.444 26.2042 107.32 26.2042C104.197 26.2042 101.195 24.9883 98.9526 22.8139C96.7098 20.6396 95.4015 17.6777 95.3047 14.5554C95.3047 7.98467 101.079 3.37708 107.314 3.37708C113.55 3.37708 119.336 7.98467 119.336 14.5554ZM101.183 14.5554C101.147 15.3838 101.279 16.2109 101.571 16.9869C101.863 17.7629 102.31 18.4717 102.883 19.0706C103.457 19.6695 104.145 20.1461 104.908 20.4717C105.67 20.7973 106.491 20.9652 107.32 20.9652C108.149 20.9652 108.97 20.7973 109.733 20.4717C110.495 20.1461 111.184 19.6695 111.758 19.0706C112.331 18.4717 112.777 17.7629 113.07 16.9869C113.362 16.2109 113.494 15.3838 113.458 14.5554C113.342 13.0073 112.644 11.5602 111.506 10.5044C110.368 9.44853 108.873 8.86182 107.32 8.86182C105.768 8.86182 104.273 9.44853 103.134 10.5044C101.996 11.5602 101.299 13.0073 101.183 14.5554Z" stroke="#FC9015" stroke-width="5" stroke-miterlimit="10"/>
<path d="M19.5159 11.3913C18.9416 10.6248 18.1922 10.0069 17.3304 9.5891C16.4686 9.17125 15.5193 8.9656 14.5619 8.98932C13.7818 8.98857 13.0096 9.14591 12.292 9.45183C11.5744 9.75776 10.9262 10.2059 10.3865 10.7693C9.84693 11.3327 9.42708 11.9995 9.15232 12.7296C8.87756 13.4597 8.7536 14.238 8.78793 15.0173C8.74662 15.8012 8.8702 16.5849 9.15067 17.318C9.43113 18.0511 9.86225 18.7172 10.4162 19.2733C10.9701 19.8295 11.6345 20.2632 12.3665 20.5465C13.0985 20.8299 13.8818 20.9565 14.6658 20.9183C15.5962 20.9051 16.5128 20.6921 17.3537 20.2936C18.1945 19.8951 18.9398 19.3205 19.539 18.6087V25.4451C17.9408 26.0454 16.2563 26.3846 14.5503 26.4497C11.5265 26.45 8.61437 25.3074 6.39751 23.251C5.25561 22.2183 4.35372 20.9482 3.75522 19.5297C3.15671 18.1112 2.87611 16.5789 2.93314 15.0404C2.92599 12.0769 4.07336 9.22722 6.13193 7.09545C8.31276 4.87267 11.2864 3.60597 14.4002 3.57336C16.1771 3.58848 17.9326 3.96161 19.5621 4.67043L19.5159 11.3913Z" fill="white"/>
<path d="M45.9375 14.5554C45.8407 17.6777 44.5323 20.6396 42.2895 22.8139C40.0467 24.9883 37.0457 26.2042 33.9219 26.2042C30.7982 26.2042 27.7971 24.9883 25.5543 22.8139C23.3115 20.6396 22.0031 17.6777 21.9063 14.5554C21.9063 7.98467 27.6803 3.37708 33.9277 3.37708C40.1751 3.37708 45.9375 7.98467 45.9375 14.5554ZM27.7842 14.5554C27.7483 15.3838 27.8804 16.2109 28.1726 16.9869C28.4649 17.7629 28.9112 18.4717 29.4846 19.0706C30.0581 19.6695 30.7469 20.1461 31.5095 20.4717C32.2721 20.7973 33.0927 20.9652 33.9219 20.9652C34.7511 20.9652 35.5717 20.7973 36.3343 20.4717C37.0969 20.1461 37.7857 19.6695 38.3591 19.0706C38.9326 18.4717 39.3789 17.7629 39.6712 16.9869C39.9634 16.2109 40.0955 15.3838 40.0596 14.5554C39.9432 13.0072 39.2461 11.5602 38.1078 10.5044C36.9696 9.44853 35.4744 8.86182 33.9219 8.86182C32.3694 8.86182 30.8742 9.44853 29.7359 10.5044C28.5977 11.5602 27.9006 13.0072 27.7842 14.5554Z" fill="white"/>
<path d="M50.9608 4.09308H56.5153L60.9266 15.7102L65.5457 4.09308H71.158L74.4492 25.8262H68.8369L67.2548 13.3198H67.1971L61.9775 25.8262H59.7256L54.7485 13.3198H54.6907L52.8777 25.8262H47.2539L50.9608 4.09308Z" fill="white"/>
<path d="M76.9204 25.8262V4.09308H85.0039C88.8609 4.09308 91.4592 5.59429 91.4592 9.73997C91.5472 10.6346 91.3669 11.5353 90.9412 12.3271C90.5155 13.1189 89.8636 13.766 89.0688 14.1859V14.2436C92.1751 14.6709 93.5032 16.7495 93.5032 19.7751C93.5032 24.325 89.6462 25.8262 85.639 25.8262H76.9204ZM82.5673 12.6269H83.2025C84.7268 12.6269 86.2626 12.3613 86.2626 10.5252C86.2626 8.68911 84.4727 8.42353 82.9715 8.42353H82.5673V12.6269ZM82.5673 21.4957H83.2948C84.9924 21.4957 87.787 21.5881 87.787 19.1861C87.787 17.2807 86.228 16.8766 84.6459 16.8766H82.5673V21.4957Z" fill="white"/>
<path d="M119.336 14.5554C119.239 17.6777 117.931 20.6396 115.688 22.8139C113.445 24.9883 110.444 26.2042 107.32 26.2042C104.197 26.2042 101.195 24.9883 98.9526 22.8139C96.7098 20.6396 95.4015 17.6777 95.3047 14.5554C95.3047 7.98467 101.079 3.37708 107.314 3.37708C113.55 3.37708 119.336 7.98467 119.336 14.5554ZM101.183 14.5554C101.147 15.3838 101.279 16.2109 101.571 16.9869C101.863 17.7629 102.31 18.4717 102.883 19.0706C103.457 19.6695 104.145 20.1461 104.908 20.4717C105.67 20.7973 106.491 20.9652 107.32 20.9652C108.149 20.9652 108.97 20.7973 109.733 20.4717C110.495 20.1461 111.184 19.6695 111.757 19.0706C112.331 18.4717 112.777 17.7629 113.07 16.9869C113.362 16.2109 113.494 15.3838 113.458 14.5554C113.342 13.0072 112.644 11.5602 111.506 10.5044C110.368 9.44853 108.873 8.86182 107.32 8.86182C105.768 8.86182 104.273 9.44853 103.134 10.5044C101.996 11.5602 101.299 13.0072 101.183 14.5554Z" fill="white"/>
<path d="M146.092 5.31714H139.036V22.4196H146.092V5.31714Z" fill="#FC9015"/>
<path d="M133.69 10.4905C134.152 5.94068 137.304 3.34241 141.773 3.34241C145.711 3.34241 148.702 5.59426 148.702 9.67066C148.747 10.5565 148.557 11.4385 148.151 12.2273C147.746 13.0161 147.139 13.6838 146.393 14.1628C148.702 14.7633 149.949 17.3962 149.949 19.648C149.949 24.3942 145.815 26.877 141.473 26.877C140.279 26.9455 139.083 26.763 137.963 26.3414C136.843 25.9197 135.824 25.2682 134.972 24.4288C133.481 22.9752 132.594 21.0118 132.489 18.932H138.263C138.245 19.3382 138.311 19.7437 138.457 20.1233C138.603 20.5029 138.825 20.8485 139.11 21.1387C139.394 21.4289 139.736 21.6574 140.113 21.8102C140.489 21.963 140.893 22.0368 141.3 22.0269C141.696 22.0527 142.092 21.9958 142.465 21.8596C142.837 21.7235 143.177 21.5112 143.463 21.2362C143.749 20.9613 143.974 20.6298 144.125 20.2629C144.275 19.896 144.347 19.5017 144.337 19.1053C144.316 18.3231 143.99 17.58 143.43 17.0343C142.869 16.4886 142.117 16.1834 141.335 16.1837C141.001 16.1938 140.67 16.2521 140.353 16.3569V12.5692H140.93C141.256 12.594 141.583 12.5495 141.89 12.4387C142.197 12.3278 142.477 12.1531 142.712 11.9262C142.946 11.6992 143.13 11.4251 143.251 11.1219C143.372 10.8187 143.427 10.4933 143.413 10.1672C143.427 9.87251 143.378 9.57827 143.27 9.30362C143.163 9.02897 142.998 8.7801 142.788 8.57314C142.578 8.36618 142.326 8.20579 142.05 8.10242C141.774 7.99904 141.479 7.95498 141.184 7.97312C140.863 7.97181 140.544 8.03768 140.25 8.16652C139.955 8.29537 139.691 8.48434 139.473 8.72133C139.256 8.95831 139.09 9.23811 138.987 9.54277C138.884 9.84743 138.846 10.1702 138.875 10.4905H133.69Z" fill="#D7007E"/>
<path d="M133.69 10.4905C134.152 5.94068 137.304 3.34241 141.773 3.34241C145.711 3.34241 148.702 5.59426 148.702 9.67066C148.747 10.5565 148.557 11.4385 148.151 12.2273C147.746 13.0161 147.139 13.6838 146.393 14.1628C148.702 14.7633 149.949 17.3962 149.949 19.648C149.949 24.3942 145.815 26.877 141.473 26.877C140.279 26.9455 139.083 26.763 137.963 26.3414C136.843 25.9197 135.824 25.2682 134.972 24.4288C133.481 22.9752 132.594 21.0118 132.489 18.932H138.263C138.245 19.3382 138.311 19.7437 138.457 20.1233C138.603 20.5029 138.825 20.8485 139.11 21.1387C139.394 21.4289 139.736 21.6574 140.113 21.8102C140.489 21.963 140.893 22.0368 141.3 22.0269C141.696 22.0527 142.092 21.9958 142.465 21.8596C142.837 21.7235 143.177 21.5112 143.463 21.2362C143.749 20.9613 143.974 20.6298 144.125 20.2629C144.275 19.896 144.347 19.5017 144.337 19.1053C144.316 18.3231 143.99 17.58 143.43 17.0343C142.869 16.4886 142.117 16.1834 141.335 16.1837C141.001 16.1938 140.67 16.2521 140.353 16.3569V12.5692H140.93C141.256 12.594 141.583 12.5495 141.89 12.4387C142.197 12.3278 142.477 12.1531 142.712 11.9262C142.946 11.6992 143.13 11.4251 143.251 11.1219C143.372 10.8187 143.427 10.4933 143.413 10.1672C143.427 9.87251 143.378 9.57827 143.27 9.30362C143.163 9.02897 142.998 8.7801 142.788 8.57314C142.578 8.36618 142.326 8.20579 142.05 8.10242C141.774 7.99904 141.479 7.95498 141.184 7.97312C140.863 7.97181 140.544 8.03768 140.25 8.16652C139.955 8.29537 139.691 8.48434 139.473 8.72133C139.256 8.95831 139.09 9.23811 138.987 9.54277C138.884 9.84743 138.846 10.1702 138.875 10.4905H133.69Z" fill="black"/>
<path d="M133.69 10.4905C134.152 5.94068 137.304 3.34241 141.773 3.34241C145.711 3.34241 148.702 5.59426 148.702 9.67066C148.747 10.5565 148.557 11.4385 148.151 12.2273C147.746 13.0161 147.139 13.6838 146.393 14.1628C148.702 14.7633 149.949 17.3962 149.949 19.648C149.949 24.3942 145.815 26.877 141.473 26.877C140.279 26.9455 139.083 26.763 137.963 26.3414C136.843 25.9197 135.824 25.2682 134.972 24.4288C133.481 22.9752 132.594 21.0118 132.489 18.932H138.263C138.245 19.3382 138.311 19.7437 138.457 20.1233C138.603 20.5029 138.825 20.8485 139.11 21.1387C139.394 21.4289 139.736 21.6574 140.113 21.8102C140.489 21.963 140.893 22.0368 141.3 22.0269C141.696 22.0527 142.092 21.9958 142.465 21.8596C142.837 21.7235 143.177 21.5112 143.463 21.2362C143.749 20.9613 143.974 20.6298 144.125 20.2629C144.275 19.896 144.347 19.5017 144.337 19.1053C144.316 18.3231 143.99 17.58 143.43 17.0343C142.869 16.4886 142.117 16.1834 141.335 16.1837C141.001 16.1938 140.67 16.2521 140.353 16.3569V12.5692H140.93C141.256 12.594 141.583 12.5495 141.89 12.4387C142.197 12.3278 142.477 12.1531 142.712 11.9262C142.946 11.6992 143.13 11.4251 143.251 11.1219C143.372 10.8187 143.427 10.4933 143.413 10.1672C143.427 9.87251 143.378 9.57827 143.27 9.30362C143.163 9.02897 142.998 8.7801 142.788 8.57314C142.578 8.36618 142.326 8.20579 142.05 8.10242C141.774 7.99904 141.479 7.95498 141.184 7.97312C140.863 7.97181 140.544 8.03768 140.25 8.16652C139.955 8.29537 139.691 8.48434 139.473 8.72133C139.256 8.95832 139.09 9.23811 138.987 9.54277C138.884 9.84743 138.846 10.1702 138.875 10.4905H133.69Z" stroke="#FC9015" stroke-width="4.56" stroke-miterlimit="10"/>
<path d="M133.69 10.4905C134.152 5.94068 137.304 3.34241 141.773 3.34241C145.711 3.34241 148.702 5.59426 148.702 9.67066C148.747 10.5565 148.557 11.4385 148.151 12.2273C147.746 13.0161 147.139 13.6838 146.393 14.1628C148.702 14.7633 149.949 17.3962 149.949 19.648C149.949 24.3942 145.815 26.877 141.473 26.877C140.279 26.9455 139.083 26.763 137.963 26.3414C136.843 25.9197 135.824 25.2682 134.972 24.4288C133.481 22.9752 132.594 21.0118 132.489 18.932H138.263C138.245 19.3382 138.311 19.7437 138.457 20.1233C138.603 20.5029 138.825 20.8485 139.11 21.1387C139.394 21.4289 139.736 21.6574 140.113 21.8102C140.489 21.963 140.893 22.0368 141.3 22.0269C141.696 22.0527 142.092 21.9958 142.465 21.8596C142.837 21.7235 143.177 21.5112 143.463 21.2362C143.749 20.9613 143.974 20.6298 144.125 20.2629C144.275 19.896 144.347 19.5017 144.337 19.1053C144.316 18.3231 143.99 17.58 143.43 17.0343C142.869 16.4886 142.117 16.1834 141.335 16.1837C141.001 16.1938 140.67 16.2521 140.353 16.3569V12.5692H140.93C141.256 12.594 141.583 12.5495 141.89 12.4387C142.197 12.3278 142.477 12.1531 142.712 11.9262C142.946 11.6992 143.13 11.4251 143.251 11.1219C143.372 10.8187 143.427 10.4933 143.413 10.1672C143.427 9.87251 143.378 9.57827 143.27 9.30362C143.163 9.02897 142.998 8.7801 142.788 8.57314C142.578 8.36618 142.326 8.20579 142.05 8.10242C141.774 7.99904 141.479 7.95498 141.184 7.97312C140.863 7.97181 140.544 8.03768 140.25 8.16652C139.955 8.29537 139.691 8.48434 139.473 8.72133C139.256 8.95831 139.09 9.23811 138.987 9.54277C138.884 9.84743 138.846 10.1702 138.875 10.4905H133.69Z" fill="white"/>
</g>
<defs>
<clipPath id="clip0_177_4644">
<rect width="152.663" height="29.0198" fill="white" transform="translate(0 0.490112)"/>
</clipPath>
</defs>
</svg>
