<svg width="154" height="30" viewBox="0 0 154 30" fill="none" xmlns="http://www.w3.org/2000/svg">
<path d="M19.5704 11.3986C18.9834 10.6484 18.2273 10.0476 17.364 9.64512C16.5007 9.24264 15.5545 9.04987 14.6025 9.08255C13.8212 9.08186 13.0479 9.23929 12.3291 9.54536C11.6103 9.85143 10.9608 10.2998 10.4198 10.8635C9.87888 11.4271 9.45761 12.0945 9.18136 12.8253C8.90511 13.5561 8.7796 14.3352 8.81242 15.1158C8.77113 15.9023 8.89506 16.6888 9.1762 17.4245C9.45734 18.1602 9.88944 18.8289 10.4447 19.3874C11 19.946 11.6661 20.382 12.4002 20.6675C13.1342 20.953 13.92 21.0815 14.7067 21.0448C15.6395 21.0309 16.5585 20.8169 17.4016 20.4174C18.2446 20.0178 18.9921 19.442 19.5935 18.7288V25.5148C17.9905 26.0915 16.3055 26.4081 14.6025 26.4528C11.5713 26.4473 8.65305 25.3023 6.42691 23.2451C5.28245 22.2091 4.37846 20.9352 3.77833 19.5129C3.17821 18.0906 2.89647 16.5543 2.95287 15.0116C2.94268 12.0358 4.09344 9.17347 6.16055 7.03288C8.35626 4.82408 11.3375 3.57495 14.4519 3.55884C16.2324 3.57594 17.9917 3.94593 19.6283 4.64737L19.5704 11.3986Z" fill="#D7007E"/>
<path d="M46.0658 14.5947C45.9688 17.7257 44.6567 20.6959 42.4077 22.8763C40.1586 25.0567 37.1492 26.2761 34.0167 26.2761C30.8842 26.2761 27.8747 25.0567 25.6257 22.8763C23.3766 20.6959 22.0646 17.7257 21.9675 14.5947C21.9675 8.00563 27.7576 3.38513 34.0225 3.38513C40.2873 3.38513 46.0658 8.00563 46.0658 14.5947ZM27.8619 14.5947C27.8258 15.4255 27.9583 16.2549 28.2514 17.033C28.5444 17.8112 28.992 18.522 29.567 19.1225C30.1421 19.7231 30.8328 20.201 31.5975 20.5275C32.3623 20.8541 33.1852 21.0224 34.0167 21.0224C34.8482 21.0224 35.6711 20.8541 36.4358 20.5275C37.2005 20.201 37.8913 19.7231 38.4663 19.1225C39.0414 18.522 39.4889 17.8112 39.782 17.033C40.0751 16.2549 40.2076 15.4255 40.1715 14.5947C40.0548 13.0422 39.3557 11.5912 38.2143 10.5324C37.0729 9.47359 35.5736 8.88524 34.0167 8.88524C32.4598 8.88524 30.9604 9.47359 29.819 10.5324C28.6776 11.5912 27.9786 13.0422 27.8619 14.5947Z" fill="#D7007E"/>
<path d="M51.1032 4.11475H56.6732L61.0969 15.7528L65.7289 4.11475H71.3569L74.6572 25.897H69.0293L67.4428 13.3557H67.3849L62.1507 25.897H59.8925L54.9015 13.3557H54.8436L53.0255 25.897H47.386L51.1032 4.11475Z" fill="#D7007E"/>
<path d="M77.1353 25.897V4.11475H85.2414C89.1091 4.11475 91.7147 5.6086 91.7147 9.77745C91.8006 10.6727 91.6186 11.5734 91.1918 12.3651C90.7651 13.1568 90.1127 13.8039 89.3176 14.2242V14.2821C92.4326 14.7106 93.7643 16.795 93.7643 19.829C93.7643 24.3916 89.8966 25.897 85.8783 25.897H77.1353ZM82.798 12.6609H83.4349C84.9634 12.6609 86.5036 12.4061 86.5036 10.5533C86.5036 8.70048 84.7087 8.44574 83.2032 8.44574H82.798V12.6609ZM82.798 21.5544H83.5275C85.2298 21.5544 88.0322 21.6471 88.0322 19.2384C88.0322 17.3277 86.4689 16.9224 84.8824 16.9224H82.798V21.5544Z" fill="#D7007E"/>
<path d="M119.669 14.5947C119.572 17.7257 118.26 20.6959 116.011 22.8763C113.762 25.0567 110.752 26.2761 107.62 26.2761C104.487 26.2761 101.478 25.0567 99.2289 22.8763C96.9799 20.6959 95.6679 17.7257 95.5708 14.5947C95.5708 8.00563 101.361 3.38513 107.614 3.38513C113.867 3.38513 119.669 8.00563 119.669 14.5947ZM101.465 14.5947C101.429 15.4255 101.562 16.2549 101.855 17.033C102.148 17.8112 102.595 18.522 103.17 19.1225C103.745 19.7231 104.436 20.201 105.201 20.5275C105.966 20.8541 106.788 21.0224 107.62 21.0224C108.451 21.0224 109.274 20.8541 110.039 20.5275C110.804 20.201 111.494 19.7231 112.07 19.1225C112.645 18.522 113.092 17.8112 113.385 17.033C113.678 16.2549 113.811 15.4255 113.775 14.5947C113.658 13.0422 112.959 11.5912 111.818 10.5324C110.676 9.47359 109.177 8.88524 107.62 8.88524C106.063 8.88524 104.564 9.47359 103.422 10.5324C102.281 11.5912 101.582 13.0422 101.465 14.5947Z" fill="#D7007E"/>
<path d="M19.5704 11.3986C18.9834 10.6484 18.2273 10.0476 17.364 9.64512C16.5007 9.24264 15.5545 9.04987 14.6025 9.08255C13.8212 9.08186 13.0479 9.23929 12.3291 9.54536C11.6103 9.85143 10.9608 10.2998 10.4198 10.8635C9.87888 11.4271 9.45761 12.0945 9.18136 12.8253C8.90511 13.5561 8.7796 14.3352 8.81242 15.1158C8.77113 15.9023 8.89506 16.6888 9.1762 17.4245C9.45734 18.1602 9.88944 18.8289 10.4447 19.3874C11 19.946 11.6661 20.382 12.4002 20.6675C13.1342 20.953 13.92 21.0815 14.7067 21.0448C15.6395 21.0309 16.5585 20.8169 17.4016 20.4174C18.2446 20.0178 18.9921 19.442 19.5935 18.7288V25.5148C17.9905 26.0915 16.3055 26.4081 14.6025 26.4528C11.5713 26.4473 8.65305 25.3023 6.42691 23.2451C5.28245 22.2091 4.37846 20.9352 3.77833 19.5129C3.17821 18.0906 2.89647 16.5543 2.95287 15.0116C2.94268 12.0358 4.09344 9.17347 6.16055 7.03288C8.35626 4.82408 11.3375 3.57495 14.4519 3.55884C16.2324 3.57594 17.9917 3.94593 19.6283 4.64737L19.5704 11.3986Z" fill="black"/>
<path d="M46.0658 14.5947C45.9688 17.7257 44.6567 20.6959 42.4077 22.8763C40.1586 25.0567 37.1492 26.2761 34.0167 26.2761C30.8842 26.2761 27.8747 25.0567 25.6257 22.8763C23.3766 20.6959 22.0646 17.7257 21.9675 14.5947C21.9675 8.00563 27.7576 3.38513 34.0225 3.38513C40.2873 3.38513 46.0658 8.00563 46.0658 14.5947ZM27.8619 14.5947C27.8258 15.4255 27.9583 16.2549 28.2514 17.033C28.5444 17.8112 28.992 18.522 29.567 19.1225C30.1421 19.7231 30.8328 20.201 31.5975 20.5275C32.3623 20.8541 33.1852 21.0224 34.0167 21.0224C34.8482 21.0224 35.6711 20.8541 36.4358 20.5275C37.2005 20.201 37.8913 19.7231 38.4663 19.1225C39.0414 18.522 39.4889 17.8112 39.782 17.033C40.0751 16.2549 40.2076 15.4255 40.1715 14.5947C40.0548 13.0422 39.3557 11.5912 38.2143 10.5324C37.0729 9.47359 35.5736 8.88524 34.0167 8.88524C32.4598 8.88524 30.9604 9.47359 29.819 10.5324C28.6776 11.5912 27.9786 13.0422 27.8619 14.5947Z" fill="black"/>
<path d="M51.1032 4.11475H56.6732L61.0969 15.7528L65.7289 4.11475H71.3569L74.6572 25.897H69.0293L67.4428 13.3557H67.3849L62.1507 25.897H59.8925L54.9015 13.3557H54.8436L53.0255 25.897H47.386L51.1032 4.11475Z" fill="black"/>
<path d="M77.1353 25.897V4.11475H85.2414C89.1091 4.11475 91.7147 5.6086 91.7147 9.77745C91.8006 10.6727 91.6186 11.5734 91.1918 12.3651C90.7651 13.1568 90.1127 13.8039 89.3176 14.2242V14.2821C92.4326 14.7106 93.7643 16.795 93.7643 19.829C93.7643 24.3916 89.8966 25.897 85.8783 25.897H77.1353ZM82.798 12.6609H83.4349C84.9634 12.6609 86.5036 12.4061 86.5036 10.5533C86.5036 8.70048 84.7087 8.44574 83.2032 8.44574H82.798V12.6609ZM82.798 21.5544H83.5275C85.2298 21.5544 88.0322 21.6471 88.0322 19.2384C88.0322 17.3277 86.4689 16.9224 84.8824 16.9224H82.798V21.5544Z" fill="black"/>
<path d="M119.669 14.5947C119.572 17.7257 118.26 20.6959 116.011 22.8763C113.762 25.0567 110.752 26.2761 107.62 26.2761C104.487 26.2761 101.478 25.0567 99.2289 22.8763C96.9799 20.6959 95.6679 17.7257 95.5708 14.5947C95.5708 8.00563 101.361 3.38513 107.614 3.38513C113.867 3.38513 119.669 8.00563 119.669 14.5947ZM101.465 14.5947C101.429 15.4255 101.562 16.2549 101.855 17.033C102.148 17.8112 102.595 18.522 103.17 19.1225C103.745 19.7231 104.436 20.201 105.201 20.5275C105.966 20.8541 106.788 21.0224 107.62 21.0224C108.451 21.0224 109.274 20.8541 110.039 20.5275C110.804 20.201 111.494 19.7231 112.07 19.1225C112.645 18.522 113.092 17.8112 113.385 17.033C113.678 16.2549 113.811 15.4255 113.775 14.5947C113.658 13.0422 112.959 11.5912 111.818 10.5324C110.676 9.47359 109.177 8.88524 107.62 8.88524C106.063 8.88524 104.564 9.47359 103.422 10.5324C102.281 11.5912 101.582 13.0422 101.465 14.5947Z" fill="black"/>
<path d="M19.5704 11.3986C18.9834 10.6484 18.2273 10.0476 17.364 9.64512C16.5007 9.24264 15.5545 9.04987 14.6025 9.08255C13.8212 9.08186 13.0479 9.23929 12.3291 9.54536C11.6103 9.85143 10.9608 10.2998 10.4198 10.8635C9.87888 11.4271 9.45761 12.0945 9.18136 12.8253C8.90511 13.5561 8.7796 14.3352 8.81242 15.1158C8.77113 15.9023 8.89506 16.6888 9.1762 17.4245C9.45734 18.1602 9.88944 18.8289 10.4447 19.3874C11 19.946 11.6661 20.382 12.4002 20.6675C13.1342 20.953 13.92 21.0815 14.7067 21.0448C15.6395 21.0309 16.5585 20.8169 17.4016 20.4174C18.2446 20.0178 18.9921 19.442 19.5935 18.7288V25.5148C17.9905 26.0915 16.3055 26.4081 14.6025 26.4528C11.5713 26.4473 8.65305 25.3023 6.42691 23.2451C5.28245 22.2091 4.37846 20.9352 3.77833 19.5129C3.17821 18.0906 2.89647 16.5543 2.95287 15.0116C2.94268 12.0358 4.09344 9.17347 6.16055 7.03288C8.35626 4.82408 11.3375 3.57495 14.4519 3.55884C16.2324 3.57594 17.9917 3.94593 19.6283 4.64737L19.5704 11.3986Z" fill="white"/>
<path d="M46.0658 14.5947C45.9688 17.7257 44.6567 20.6959 42.4077 22.8763C40.1586 25.0567 37.1492 26.2761 34.0167 26.2761C30.8842 26.2761 27.8747 25.0567 25.6257 22.8763C23.3766 20.6959 22.0646 17.7257 21.9675 14.5947C21.9675 8.00563 27.7576 3.38513 34.0225 3.38513C40.2873 3.38513 46.0658 8.00563 46.0658 14.5947ZM27.8619 14.5947C27.8258 15.4255 27.9583 16.2549 28.2514 17.033C28.5444 17.8112 28.992 18.522 29.567 19.1225C30.1421 19.7231 30.8328 20.201 31.5975 20.5275C32.3623 20.8541 33.1852 21.0224 34.0167 21.0224C34.8482 21.0224 35.6711 20.8541 36.4358 20.5275C37.2005 20.201 37.8913 19.7231 38.4663 19.1225C39.0414 18.522 39.4889 17.8112 39.782 17.033C40.0751 16.2549 40.2076 15.4255 40.1715 14.5947C40.0548 13.0422 39.3557 11.5912 38.2143 10.5324C37.0729 9.47359 35.5736 8.88524 34.0167 8.88524C32.4598 8.88524 30.9604 9.47359 29.819 10.5324C28.6776 11.5912 27.9786 13.0422 27.8619 14.5947Z" fill="white"/>
<path d="M51.1032 4.11475H56.6732L61.0969 15.7528L65.7289 4.11475H71.3569L74.6572 25.897H69.0293L67.4428 13.3557H67.3849L62.1507 25.897H59.8925L54.9015 13.3557H54.8436L53.0255 25.897H47.386L51.1032 4.11475Z" fill="white"/>
<path d="M77.1353 25.897V4.11475H85.2414C89.1091 4.11475 91.7147 5.6086 91.7147 9.77745C91.8006 10.6727 91.6186 11.5734 91.1918 12.3651C90.7651 13.1568 90.1127 13.8039 89.3176 14.2242V14.2821C92.4326 14.7106 93.7643 16.795 93.7643 19.829C93.7643 24.3916 89.8966 25.897 85.8783 25.897H77.1353ZM82.798 12.6609H83.4349C84.9634 12.6609 86.5036 12.4061 86.5036 10.5533C86.5036 8.70048 84.7087 8.44574 83.2032 8.44574H82.798V12.6609ZM82.798 21.5544H83.5275C85.2298 21.5544 88.0322 21.6471 88.0322 19.2384C88.0322 17.3277 86.4689 16.9224 84.8824 16.9224H82.798V21.5544Z" fill="white"/>
<path d="M119.669 14.5947C119.572 17.7257 118.26 20.6959 116.011 22.8763C113.762 25.0567 110.752 26.2761 107.62 26.2761C104.487 26.2761 101.478 25.0567 99.2289 22.8763C96.9799 20.6959 95.6679 17.7257 95.5708 14.5947C95.5708 8.00563 101.361 3.38513 107.614 3.38513C113.867 3.38513 119.669 8.00563 119.669 14.5947ZM101.465 14.5947C101.429 15.4255 101.562 16.2549 101.855 17.033C102.148 17.8112 102.595 18.522 103.17 19.1225C103.745 19.7231 104.436 20.201 105.201 20.5275C105.966 20.8541 106.788 21.0224 107.62 21.0224C108.451 21.0224 109.274 20.8541 110.039 20.5275C110.804 20.201 111.494 19.7231 112.07 19.1225C112.645 18.522 113.092 17.8112 113.385 17.033C113.678 16.2549 113.811 15.4255 113.775 14.5947C113.658 13.0422 112.959 11.5912 111.818 10.5324C110.676 9.47359 109.177 8.88524 107.62 8.88524C106.063 8.88524 104.564 9.47359 103.422 10.5324C102.281 11.5912 101.582 13.0422 101.465 14.5947Z" fill="white"/>
<path d="M150.472 21.2764V26.0822H132.905L141.834 16.378C143.28 14.9415 144.167 13.0364 144.335 11.0048C144.373 10.2984 144.132 9.60526 143.665 9.07461C143.197 8.54396 142.539 8.21826 141.834 8.16768C141.502 8.17683 141.176 8.25473 140.876 8.39644C140.576 8.53815 140.309 8.7406 140.091 8.99096C139.873 9.24131 139.71 9.53413 139.611 9.85088C139.512 10.1676 139.481 10.5014 139.518 10.8311C139.515 11.1424 139.546 11.453 139.61 11.7575H133.345C133.484 6.74333 136.704 3.35034 141.868 3.35034C146.443 3.35034 150.299 6.37278 150.299 11.1206C150.299 14.2589 148.967 16.0538 146.825 18.0687L143.432 21.2301L150.472 21.2764Z" fill="#D7007E"/>
<path d="M150.472 21.2764V26.0822H132.905L141.834 16.378C143.28 14.9415 144.167 13.0364 144.335 11.0048C144.373 10.2984 144.132 9.60526 143.665 9.07461C143.197 8.54396 142.539 8.21826 141.834 8.16768C141.502 8.17683 141.176 8.25473 140.876 8.39644C140.576 8.53815 140.309 8.7406 140.091 8.99096C139.873 9.24131 139.71 9.53413 139.611 9.85088C139.512 10.1676 139.481 10.5014 139.518 10.8311C139.515 11.1424 139.546 11.453 139.61 11.7575H133.345C133.484 6.74333 136.704 3.35034 141.868 3.35034C146.443 3.35034 150.299 6.37278 150.299 11.1206C150.299 14.2589 148.967 16.0538 146.825 18.0687L143.432 21.2301L150.472 21.2764Z" fill="black"/>
<path d="M150.472 21.2764V26.0822H132.905L141.834 16.378C143.28 14.9415 144.167 13.0364 144.335 11.0048C144.373 10.2984 144.132 9.60526 143.665 9.07461C143.197 8.54396 142.539 8.21826 141.834 8.16768C141.502 8.17683 141.176 8.25473 140.876 8.39644C140.576 8.53815 140.309 8.7406 140.091 8.99096C139.873 9.24131 139.71 9.53413 139.611 9.85088C139.512 10.1676 139.481 10.5014 139.518 10.8311C139.515 11.1424 139.546 11.453 139.61 11.7575H133.345C133.484 6.74333 136.704 3.35034 141.868 3.35034C146.443 3.35034 150.299 6.37278 150.299 11.1206C150.299 14.2589 148.967 16.0538 146.825 18.0687L143.432 21.2301L150.472 21.2764Z" fill="white"/>
</svg>
