<svg width="24" height="18" viewBox="0 0 24 18" fill="none" xmlns="http://www.w3.org/2000/svg">
<path d="M15.1885 15.7021C15.8336 15.7023 16.3564 16.2171 16.3564 16.8516C16.3562 17.4858 15.8334 17.9998 15.1885 18H1.16797C0.523047 17.9998 0.000262529 17.4858 0 16.8516C0 16.2171 0.522885 15.7023 1.16797 15.7021H15.1885ZM21.9004 2.73633C22.3778 2.27735 23.1329 2.27747 23.6104 2.73633C24.1146 3.2212 24.115 4.02821 23.6113 4.51367L20.252 7.75098C19.4356 8.53759 19.4356 9.84523 20.252 10.6318L23.6113 13.8691C24.115 14.3546 24.1146 15.1616 23.6104 15.6465C23.1329 16.1053 22.3778 16.1054 21.9004 15.6465L16.6865 10.6328C15.8686 9.84599 15.8686 8.53683 16.6865 7.75L21.9004 2.73633ZM11.2939 8.04297C11.9391 8.04307 12.4619 8.55693 12.4619 9.19141C12.4619 9.82588 11.9391 10.3407 11.2939 10.3408H1.16797C0.522885 10.3406 0 9.82583 0 9.19141C5.68213e-06 8.55699 0.522888 8.04316 1.16797 8.04297H11.2939ZM15.1885 0C15.8336 0.000170063 16.3564 0.514979 16.3564 1.14941C16.3562 1.78363 15.8334 2.29768 15.1885 2.29785H1.16797C0.523047 2.29767 0.000262529 1.78362 0 1.14941C0 0.514989 0.522885 0.000186497 1.16797 0H15.1885Z" fill="white"/>
</svg>
