<svg width="28" height="28" viewBox="0 0 28 28" fill="none" xmlns="http://www.w3.org/2000/svg">
<path fill-rule="evenodd" clip-rule="evenodd" d="M15.3252 4.45929e-05C15.8646 0.00538545 16.2983 0.447935 16.293 0.987349L16.2793 2.30278V2.30961C16.2568 3.54807 15.259 4.55864 14 4.55864H13.9619C13.7979 4.55864 13.6496 4.6943 13.6494 4.88383C13.6494 5.06067 13.7978 5.21001 13.9746 5.21001H17.9072C21.2593 5.21004 23.8598 5.87448 25.5977 7.61235C27.3354 9.35026 28 11.9507 28 15.3028V17.9073C28 21.2593 27.3355 23.8598 25.5977 25.5977C23.8598 27.3356 21.2593 28 17.9072 28H10.0928C6.74074 28 4.14021 27.3356 2.40234 25.5977C0.664539 23.8598 0 21.2593 0 17.9073V15.3028C0 11.9507 0.664569 9.35026 2.40234 7.61235C4.14021 5.87448 6.74074 5.21004 10.0928 5.21001H11.7217C11.7063 5.1034 11.6953 4.99459 11.6953 4.88383C11.6955 3.64106 12.6935 2.60551 13.9619 2.60551H14C14.1735 2.60551 14.3236 2.46852 14.3271 2.27446L14.3398 0.966841C14.3455 0.42786 14.7862 -0.00505489 15.3252 4.45929e-05ZM10.0928 7.16313C6.93344 7.16316 4.97549 7.80092 3.7832 8.99321C2.591 10.1855 1.95312 12.1435 1.95312 15.3028V17.9073C1.95312 21.0666 2.59098 23.0245 3.7832 24.2168C4.97549 25.4091 6.93344 26.0469 10.0928 26.0469H17.9072C21.0666 26.0469 23.0245 25.4091 24.2168 24.2168C25.409 23.0245 26.0469 21.0666 26.0469 17.9073V15.3028C26.0469 12.1435 25.409 10.1855 24.2168 8.99321C23.0245 7.80092 21.0666 7.16316 17.9072 7.16313H10.0928ZM18.5586 17.8555C19.2776 17.8558 19.8602 18.4383 19.8604 19.1573V19.1827C19.8604 19.9018 19.2776 20.4851 18.5586 20.4854C17.8393 20.4854 17.2559 19.9019 17.2559 19.1827V19.1573C17.256 18.4381 17.8394 17.8555 18.5586 17.8555ZM10.1436 13.9092C10.525 13.5278 11.1439 13.5279 11.5254 13.9092C11.9064 14.2906 11.9065 14.9087 11.5254 15.2901L10.2295 16.585L11.5645 17.92C11.9457 18.3014 11.9458 18.9194 11.5645 19.3008C11.1831 19.6822 10.5651 19.6821 10.1836 19.3008L8.84766 17.9659L7.55273 19.2618C7.17129 19.6431 6.55329 19.6432 6.17188 19.2618C5.79071 18.8803 5.7906 18.2623 6.17188 17.8809L7.4668 16.585L6.21094 15.3291C5.82965 14.9477 5.82955 14.3287 6.21094 13.9473C6.59233 13.5659 7.21132 13.566 7.59277 13.9473L8.84863 15.2032L10.1436 13.9092ZM16.0059 15.3028C16.7249 15.3029 17.3074 15.8856 17.3076 16.6045C17.3076 17.3237 16.725 17.9071 16.0059 17.9073H15.9932C15.2739 17.9073 14.6904 17.3238 14.6904 16.6045C14.6907 15.8855 15.2741 15.3028 15.9932 15.3028H16.0059ZM21.1357 15.3028C21.8548 15.3028 22.4382 15.8855 22.4385 16.6045C22.4385 17.3238 21.855 17.9073 21.1357 17.9073H21.123C20.4039 17.9071 19.8213 17.3237 19.8213 16.6045C19.8215 15.8856 20.4041 15.303 21.123 15.3028H21.1357ZM18.5586 12.7237C19.2776 12.7239 19.8604 13.3073 19.8604 14.0264V14.0518C19.8604 14.7709 19.2776 15.3543 18.5586 15.3545C17.8393 15.3545 17.2559 14.7711 17.2559 14.0518V14.0264C17.2559 13.3072 17.8393 12.7237 18.5586 12.7237Z" fill="white"/>
</svg>
