<svg width="28" height="28" viewBox="0 0 28 28" fill="none" xmlns="http://www.w3.org/2000/svg">
<path fill-rule="evenodd" clip-rule="evenodd" d="M10.8769 1.04256C12.616 -0.351753 15.3773 -0.348139 17.1259 1.05721H17.1249L26.1474 8.26912L26.1513 8.27205C26.8197 8.81058 27.3202 9.60005 27.6269 10.4039C27.9334 11.2078 28.0864 12.1298 27.9481 12.9781L27.9462 12.982L26.2147 23.3472V23.3502C25.8226 25.6537 23.6333 27.5089 21.2938 27.5094H6.70889C4.35741 27.5091 2.18015 25.6684 1.78799 23.3502L1.78701 23.3472L0.0545905 12.982L0.0565436 12.981C-0.0891553 12.131 0.0584066 11.2083 0.365137 10.4039C0.67267 9.59778 1.17828 8.80744 1.8544 8.26912L10.8769 1.04256ZM15.9022 2.57869C14.8643 1.74496 13.1197 1.74908 12.0985 2.56795L3.0751 9.79451L3.07217 9.79646C2.73383 10.0654 2.40654 10.5325 2.19033 11.0992C2.0012 11.595 1.92637 12.0892 1.95986 12.4888L1.98135 12.6539L1.9833 12.6607H1.98135L3.71377 23.024L3.77041 23.2799C4.11761 24.5429 5.39835 25.556 6.70889 25.5562H21.2938C22.6768 25.5557 24.0536 24.3926 24.288 23.026L26.0194 12.6607C26.0882 12.2339 26.0192 11.6669 25.8026 11.0992C25.5859 10.5311 25.2605 10.0646 24.9276 9.79549L15.9042 2.58162L15.9022 2.57869ZM14.0019 16.689C14.5412 16.689 14.9794 17.1262 14.9794 17.6656V21.5719C14.9794 22.1112 14.5412 22.5484 14.0019 22.5484C13.4627 22.5482 13.0253 22.1111 13.0253 21.5719V17.6656C13.0253 17.1264 13.4627 16.6893 14.0019 16.689Z" fill="white"/>
</svg>
