<svg width="28" height="28" viewBox="0 0 28 28" fill="none" xmlns="http://www.w3.org/2000/svg">
<path d="M14 0C15.8385 0 17.6598 0.36284 19.3584 1.06641C21.0566 1.76994 22.5996 2.80085 23.8994 4.10059C25.1993 5.40052 26.231 6.94416 26.9346 8.64258C27.638 10.341 28 12.1617 28 14C28 15.8385 27.6381 17.6598 26.9346 19.3584C26.231 21.0568 25.1993 22.6005 23.8994 23.9004C22.5997 25.2001 21.0565 26.2311 19.3584 26.9346C17.6598 27.6381 15.8385 28 14 28C12.1615 28 10.3402 27.6381 8.6416 26.9346C6.94348 26.2311 5.40035 25.2001 4.10059 23.9004C2.80067 22.6005 1.76899 21.0568 1.06543 19.3584C0.361864 17.6598 0 15.8385 0 14C3.2099e-05 12.1617 0.361993 10.341 1.06543 8.64258C1.76899 6.94416 2.80066 5.40052 4.10059 4.10059C5.40036 2.80085 6.94344 1.76994 8.6416 1.06641C10.3402 0.36284 12.1615 4.30482e-08 14 0ZM14 2.1543C12.4444 2.1543 10.904 2.4604 9.4668 3.05566C8.02964 3.65097 6.72302 4.52311 5.62305 5.62305C4.52306 6.72303 3.65099 8.02961 3.05566 9.4668C2.46037 10.904 2.15433 12.4444 2.1543 14C2.1543 15.5557 2.46034 17.0969 3.05566 18.5342C3.65096 19.9712 4.52323 21.2771 5.62305 22.377C6.72304 23.477 8.02959 24.349 9.4668 24.9443C10.904 25.5396 12.4444 25.8467 14 25.8467C15.5556 25.8467 17.096 25.5396 18.5332 24.9443C19.9704 24.349 21.277 23.477 22.377 22.377C23.4768 21.2771 24.349 19.9711 24.9443 18.5342C25.5397 17.0969 25.8457 15.5557 25.8457 14C25.8457 12.4444 25.5396 10.904 24.9443 9.4668C24.349 8.02961 23.4769 6.72303 22.377 5.62305C21.277 4.52311 19.9704 3.65097 18.5332 3.05566C17.096 2.4604 15.5556 2.1543 14 2.1543ZM14 20.1025C14.5946 20.1027 15.0762 20.585 15.0762 21.1797V21.1934C15.0762 21.788 14.5946 22.2703 14 22.2705C13.4052 22.2705 12.9229 21.7881 12.9229 21.1934V21.1797C12.9229 20.5849 13.4052 20.1025 14 20.1025ZM14.1162 5.70215C14.8602 5.70431 15.5937 5.87837 16.2588 6.21191C16.9241 6.54572 17.5035 7.03054 17.9502 7.62598C18.3967 8.22136 18.6988 8.91255 18.833 9.64453C18.9672 10.3769 18.9301 11.1314 18.7236 11.8467C18.5171 12.5617 18.1481 13.2196 17.6445 13.7676C17.1408 14.3157 16.5156 14.7399 15.8203 15.0059C15.8115 15.0092 15.8019 15.0125 15.793 15.0156C15.5731 15.093 15.3843 15.2397 15.2549 15.4336C15.1255 15.6278 15.062 15.8598 15.0752 16.0928C15.1084 16.6861 14.6539 17.1946 14.0605 17.2285C13.4673 17.2618 12.958 16.808 12.9238 16.2148C12.8842 15.5157 13.0725 14.821 13.4609 14.2383C13.8441 13.6636 14.4027 13.2279 15.0518 12.9932L15.332 12.8672C15.6038 12.7253 15.8501 12.5364 16.0586 12.3096C16.3365 12.007 16.5403 11.6437 16.6543 11.249C16.7683 10.854 16.789 10.4376 16.7148 10.0332C16.6408 9.62905 16.474 9.24772 16.2275 8.91895C15.9809 8.59014 15.6613 8.32207 15.2939 8.1377C14.9265 7.95334 14.5205 7.85664 14.1094 7.85547C13.6985 7.85439 13.2921 7.94871 12.9238 8.13086C12.5557 8.31311 12.2347 8.57907 11.9863 8.90625C11.6269 9.37986 10.9513 9.47254 10.4775 9.11328C10.0038 8.75384 9.91023 8.07831 10.2695 7.60449C10.7195 7.01137 11.3024 6.53136 11.9697 6.20117C12.6369 5.87114 13.3719 5.70008 14.1162 5.70215Z" fill="white"/>
</svg>
