<svg width="17" height="18" viewBox="0 0 17 18" fill="none" xmlns="http://www.w3.org/2000/svg">
<path d="M15.8317 0C16.4769 0 17 0.514396 17 1.14894C17 1.78348 16.4769 2.29787 15.8317 2.29787L1.16832 2.29787C0.523075 2.29787 0 1.78348 0 1.14894C0 0.514396 0.523075 0 1.16832 0H15.8317Z" fill="white"/>
<path d="M15.8317 15.7021C16.4769 15.7021 17 16.2165 17 16.8511C17 17.4856 16.4769 18 15.8317 18H1.16832C0.523075 18 0 17.4856 0 16.8511C0 16.2165 0.523075 15.7021 1.16832 15.7021H15.8317Z" fill="white"/>
<path d="M15.8317 8.04248C16.4769 8.04248 17 8.55688 17 9.19142C17 9.82596 16.4769 10.3404 15.8317 10.3404H1.16832C0.523075 10.3404 0 9.82596 0 9.19142C0 8.55688 0.523075 8.04248 1.16832 8.04248H15.8317Z" fill="white"/>
</svg>
