<svg width="28" height="31" viewBox="0 0 28 31" fill="none" xmlns="http://www.w3.org/2000/svg">
<path fill-rule="evenodd" clip-rule="evenodd" d="M12.6709 0.383131C13.506 -0.128184 14.4988 -0.127237 15.334 0.383131C18.5031 2.31846 22.004 3.52656 25.7109 3.92708L25.71 3.9261C27.0069 4.06639 28.0007 5.08801 28 6.41048V13.9925C27.9991 19.5866 24.8792 24.6808 20.002 27.3851L15.3105 29.9866C14.4708 30.4523 13.5768 30.4743 12.7617 30.0218L7.88184 27.3109C3.02636 24.6141 -0.00189284 19.4843 8.87668e-07 13.9281V6.4095C0.00116272 5.08987 0.99606 4.0664 2.29297 3.92708C5.99992 3.52939 9.5027 2.32228 12.6709 0.383131ZM14.2363 2.22883C14.0782 2.13131 13.8888 2.15558 13.7363 2.24837C10.3134 4.34282 6.49853 5.63782 2.49902 6.06868C2.32116 6.08855 2.15164 6.23263 2.15137 6.4095L2.15723 13.9964C2.16105 18.7762 4.81623 23.15 8.9834 25.4632L13.6982 28.0814C13.9018 28.194 14.0688 28.216 14.3018 28.0863L19.0596 25.4417C23.2125 23.1332 25.8409 18.7601 25.8447 13.9964L25.8516 6.4095C25.8513 6.23451 25.6789 6.08467 25.502 6.06575C21.4912 5.6349 17.6677 4.33458 14.2363 2.22883ZM17.8818 10.8265C18.2985 10.3824 18.9502 10.3638 19.3877 10.7445H19.3896C19.8195 11.1185 19.9025 11.8175 19.4717 12.2767L14.1045 17.9945C13.7134 18.4107 13.0599 18.5238 12.6094 18.1253L9.35742 15.2493C8.86315 14.8119 8.8701 14.1121 9.27442 13.6898C9.70335 13.242 10.3614 13.2585 10.8291 13.6741L13.2139 15.7933L17.8818 10.8265Z" fill="white"/>
</svg>
