<svg width="22" height="21" viewBox="0 0 22 21" fill="none" xmlns="http://www.w3.org/2000/svg">
<path fill-rule="evenodd" clip-rule="evenodd" d="M11.8652 1.19629C12.5384 0.0648519 14.0135 -0.35537 15.1738 0.334962L15.1729 0.335939L16.8916 1.31836H16.8926C18.0854 2.00026 18.5391 3.47693 17.9922 4.69531L17.8691 4.93555C17.4944 5.58221 17.5529 5.99617 17.6699 6.19922C17.7873 6.40236 18.1157 6.66016 18.8604 6.66016C20.3117 6.66035 21.5096 7.84305 21.5098 9.30957V11.0703C21.5093 12.5214 20.3267 13.7195 18.8604 13.7197C18.1151 13.7197 17.787 13.9775 17.6699 14.1807C17.5677 14.3585 17.5099 14.6971 17.748 15.2119L17.8691 15.4434L17.8711 15.4482C18.5938 16.7138 18.1657 18.3339 16.8926 19.0615L16.8916 19.0605L15.1621 20.0508L15.1611 20.0498C14.0027 20.7303 12.5362 20.3109 11.8652 19.1836L11.8613 19.1758L11.751 18.9854L11.749 18.9824C11.3791 18.3374 10.9934 18.1826 10.7588 18.1826C10.523 18.1826 10.1339 18.3391 9.75879 18.9863L9.75781 18.9854L9.64941 19.1758L9.64453 19.1836C8.97334 20.3111 7.50615 20.731 6.34766 20.0498V20.0508L4.61816 19.0605V19.0615C3.34566 18.3344 2.91402 16.7024 3.64062 15.4443L3.6416 15.4434C4.01598 14.7972 3.95671 14.3838 3.83984 14.1807C3.72271 13.9775 3.39521 13.7198 2.65039 13.7197C1.18392 13.7197 0.000499775 12.5215 0 11.0703V9.30957C0.000166853 7.85806 1.18372 6.66016 2.65039 6.66016C3.39464 6.66007 3.72249 6.4023 3.83984 6.19922C3.95686 5.99617 4.0163 5.58221 3.6416 4.93555H3.64062C2.9591 3.75598 3.29606 2.2478 4.38965 1.46485L4.61816 1.31836L6.33691 0.335939V0.334962C7.49716 -0.35498 8.97146 0.06507 9.64453 1.19629L9.64941 1.2041L9.75879 1.39453L9.76074 1.39649C10.1305 2.04139 10.5164 2.19715 10.751 2.19727C10.9867 2.19727 11.3759 2.04044 11.751 1.39356L11.8613 1.2041L11.8652 1.19629ZM14.4062 1.62402C13.989 1.3761 13.4268 1.51274 13.1582 1.95508L13.0488 2.14551C12.514 3.06812 11.7076 3.69727 10.751 3.69727C9.79335 3.69715 8.98893 3.06684 8.45898 2.14258V2.1416L8.35059 1.95606V1.95508C8.08178 1.51311 7.52057 1.37606 7.10352 1.62402L7.09277 1.63086L5.3623 2.6211C4.8155 2.93371 4.62639 3.64191 4.93848 4.1836C5.47337 5.10663 5.61755 6.11894 5.13965 6.94824C4.66171 7.77706 3.71479 8.16006 2.65039 8.16016C2.01727 8.16016 1.50017 8.68135 1.5 9.30957V11.0703C1.5005 11.6983 2.01748 12.2197 2.65039 12.2197C3.71498 12.2198 4.66179 12.6025 5.13965 13.4316C5.61718 14.2607 5.47296 15.2716 4.93848 16.1943C4.64525 16.7023 4.79332 17.3578 5.26367 17.6953L5.3623 17.7588L7.09277 18.749L7.10352 18.7549L7.18359 18.7979C7.59234 18.9864 8.10524 18.8362 8.35547 18.416L8.46094 18.2344V18.2334C8.99581 17.3107 9.80215 16.6826 10.7588 16.6826C11.7157 16.6826 12.5188 17.3113 13.0488 18.2344L13.1543 18.416C13.4212 18.8642 13.9867 19.0043 14.4062 18.7549L14.417 18.749H14.418L16.1475 17.7588L16.2461 17.6953C16.716 17.3591 16.8649 16.7119 16.5684 16.1924V16.1914C16.0356 15.2697 15.8932 14.2596 16.3701 13.4316C16.848 12.6023 17.7956 12.2197 18.8604 12.2197C19.4931 12.2195 20.0093 11.6981 20.0098 11.0703V9.30957C20.0096 8.67661 19.4884 8.16035 18.8604 8.16016C17.7958 8.16016 16.8481 7.77723 16.3701 6.94824C15.8922 6.11894 16.0364 5.10663 16.5713 4.1836C16.8835 3.6419 16.6943 2.93373 16.1475 2.6211L14.418 1.63086L14.4062 1.625L14.79 0.979494L14.4062 1.62402ZM10.75 6.43945C12.8211 6.43945 14.5 8.11839 14.5 10.1895C14.5 12.2605 12.8211 13.9395 10.75 13.9395C8.67893 13.9395 7 12.2605 7 10.1895C7 8.11839 8.67893 6.43945 10.75 6.43945ZM10.75 7.93945C9.50736 7.93945 8.5 8.94681 8.5 10.1895C8.5 11.4321 9.50736 12.4395 10.75 12.4395C11.9926 12.4395 13 11.4321 13 10.1895C13 8.94681 11.9926 7.93945 10.75 7.93945Z" fill="white"/>
</svg>
