<svg width="28" height="28" viewBox="0 0 28 28" fill="none" xmlns="http://www.w3.org/2000/svg">
<path fill-rule="evenodd" clip-rule="evenodd" d="M21.18 25.9404C21.7171 25.9404 22.1526 26.3753 22.1526 26.9121C22.1526 27.4489 21.7172 27.8838 21.18 27.8838H6.91437C6.37729 27.8837 5.94171 27.4489 5.94171 26.9121C5.94176 26.3754 6.37732 25.9406 6.91437 25.9404H21.18ZM14.053 0C14.646 8.79125e-05 15.1287 0.301566 15.4749 0.672852C15.8175 1.04038 16.0852 1.53132 16.2933 2.08789L18.5726 8.16113L18.6448 8.30469C18.7202 8.42336 18.8022 8.46776 18.8528 8.4834C18.9192 8.50381 19.0579 8.51544 19.2581 8.375L23.9974 4.99609L24.4124 4.71777C24.8249 4.45973 25.2301 4.26635 25.6185 4.16113C26.1265 4.02361 26.7692 4.00011 27.304 4.4043C27.8372 4.80755 27.9908 5.43039 27.9993 5.95508C28.0079 6.49109 27.8745 7.09934 27.6468 7.74316L27.6458 7.74707L22.4066 22.4043C22.403 22.4143 22.3987 22.4247 22.3948 22.4346C22.2112 22.8993 21.8647 23.2719 21.4993 23.5234C21.1334 23.7753 20.6558 23.9697 20.1419 23.9697H7.9505C7.43629 23.9695 6.95523 23.7749 6.58527 23.5137C6.215 23.2521 5.86902 22.8626 5.69757 22.373V22.3721L0.330383 7.37109V7.36914C0.118854 6.77426 -0.00704821 6.20692 0.000305357 5.70312C0.00759405 5.21043 0.150908 4.60767 0.670227 4.21777C1.18933 3.82834 1.80834 3.85788 2.28253 3.9873C2.7673 4.11975 3.27513 4.39721 3.78449 4.7627L8.82843 8.36914C9.03842 8.51443 9.18441 8.50444 9.25323 8.4834C9.32191 8.4622 9.444 8.39096 9.53253 8.16113L11.8128 2.08887C12.021 1.5319 12.2893 1.04059 12.6321 0.672852C12.9783 0.301751 13.4603 0.000139312 14.053 0ZM14.053 2.00098C13.9431 2.11985 13.789 2.35841 13.6351 2.77051V2.77148L11.3528 8.84961L11.3499 8.85645C11.0755 9.57125 10.5361 10.1231 9.82355 10.3418C9.1111 10.5602 8.35454 10.4054 7.72198 9.96777L7.71027 9.95898L2.65167 6.34277H2.6507C2.36321 6.13641 2.13215 6.00772 1.95929 5.93262C1.98354 6.12076 2.04347 6.38055 2.16339 6.71777H2.16144L7.53156 21.7246L7.53448 21.7314C7.54521 21.761 7.59446 21.8447 7.70929 21.9258C7.82407 22.0067 7.91943 22.026 7.9505 22.0264H20.1419C20.1726 22.0264 20.2732 22.0069 20.3968 21.9219C20.5162 21.8395 20.5708 21.7542 20.5843 21.7236L25.8148 7.09277C25.9803 6.6242 26.0396 6.28483 26.0491 6.06348C25.8403 6.13455 25.5339 6.28797 25.1321 6.57617L25.1292 6.57715L20.3831 9.96094L20.3773 9.96387C19.7482 10.4059 18.992 10.5607 18.2806 10.3418C17.5701 10.1229 17.0314 9.57072 16.7571 8.85645L16.7542 8.84961L14.472 2.77148L14.471 2.77051C14.317 2.35823 14.163 2.1198 14.053 2.00098ZM17.2894 15.5713C17.8265 15.5713 18.262 16.0071 18.262 16.5439C18.2619 17.0807 17.8265 17.5156 17.2894 17.5156H10.805C10.268 17.5155 9.83247 17.0806 9.83234 16.5439C9.83234 16.0072 10.2679 15.5714 10.805 15.5713H17.2894Z" fill="white"/>
</svg>
