<svg width="23" height="22" viewBox="0 0 23 22" fill="none" xmlns="http://www.w3.org/2000/svg">
<path d="M12.5186 1.26172C13.2288 0.0683214 14.7847 -0.374722 16.0088 0.353516L16.0078 0.354492L17.8213 1.39062H17.8223C19.0807 2.10991 19.5591 3.66772 18.9824 4.95312L18.8525 5.20703C18.457 5.88948 18.5191 6.32577 18.6426 6.54004C18.7662 6.75441 19.1123 7.02637 19.8984 7.02637C21.4294 7.0267 22.6929 8.27437 22.6934 9.82129V11.6797C22.6929 13.2107 21.4454 14.4743 19.8984 14.4746C19.1123 14.4746 18.7662 14.7466 18.6426 14.9609C18.5346 15.1484 18.4733 15.5054 18.7246 16.0488L18.8525 16.293L18.8545 16.2979C19.6173 17.6331 19.1655 19.3426 17.8223 20.1104L17.8213 20.1094L15.9961 21.1543L15.9951 21.1533C14.773 21.8712 13.2264 21.4286 12.5186 20.2393L12.5137 20.2305L12.3975 20.0303L12.3955 20.0273C12.0052 19.3468 11.5981 19.1826 11.3506 19.1826C11.1018 19.1827 10.6915 19.3487 10.2959 20.0312L10.2949 20.0303L10.1807 20.2305L10.1748 20.2393C9.46673 21.4288 7.91951 21.8719 6.69727 21.1533V21.1543L4.87207 20.1094V20.1104C3.52953 19.3431 3.07395 17.6212 3.84082 16.2939L3.8418 16.293C4.23701 15.6108 4.17422 15.1751 4.05078 14.9609C3.92715 14.7466 3.58155 14.4747 2.7959 14.4746C1.24882 14.4744 0.000414207 13.2108 0 11.6797V9.82129C0.000427977 8.29023 1.24883 7.02655 2.7959 7.02637C3.58158 7.02627 3.92716 6.75436 4.05078 6.54004C4.17426 6.32577 4.23736 5.88949 3.8418 5.20703H3.84082C3.1218 3.96249 3.47693 2.3709 4.63086 1.54492L4.87207 1.39062L6.68555 0.354492V0.353516C7.90949 -0.374308 9.46458 0.0685622 10.1748 1.26172L10.1807 1.27051L10.2959 1.4707L10.2979 1.47363C10.688 2.15409 11.0952 2.31823 11.3428 2.31836C11.5916 2.31827 12.0018 2.15235 12.3975 1.46973L12.5137 1.27051L12.5186 1.26172ZM15.1992 1.71289C14.7591 1.45133 14.1653 1.59583 13.8818 2.0625L13.7666 2.26367C13.2023 3.23705 12.352 3.9003 11.3428 3.90039C10.3325 3.90026 9.48391 3.23584 8.9248 2.26074V2.25977L8.81055 2.06348V2.0625C8.52695 1.59621 7.93415 1.45128 7.49414 1.71289L7.4834 1.7207L5.65723 2.76562C5.08038 3.09546 4.88071 3.84259 5.20996 4.41406C5.7743 5.38778 5.92677 6.45516 5.42285 7.33008C4.91868 8.20477 3.91903 8.60928 2.7959 8.60938C2.12825 8.60956 1.58344 9.15882 1.58301 9.82129V11.6797C1.58343 12.3422 2.12824 12.8914 2.7959 12.8916C3.91907 12.8917 4.9187 13.2961 5.42285 14.1709C5.92665 15.0455 5.77377 16.1115 5.20996 17.085C4.9003 17.6209 5.05735 18.3127 5.55371 18.6689L5.65723 18.7363L7.4834 19.7803L7.49414 19.7871L7.5791 19.832C8.0104 20.031 8.55145 19.8732 8.81543 19.4297L8.92676 19.2373V19.2363C9.49102 18.2631 10.3415 17.6007 11.3506 17.6006C12.36 17.6006 13.2074 18.2637 13.7666 19.2373L13.8779 19.4297C14.1595 19.9028 14.7565 20.0505 15.1992 19.7871L15.21 19.7803H15.2109L17.0361 18.7363L17.1396 18.6689C17.6355 18.3142 17.7936 17.6311 17.4805 17.083V17.082C16.9184 16.1096 16.7673 15.0444 17.2705 14.1709C17.7747 13.296 18.7751 12.8916 19.8984 12.8916C20.566 12.8913 21.1109 12.3421 21.1113 11.6797V9.82129C21.1109 9.15379 20.5608 8.60972 19.8984 8.60938C18.7751 8.60938 17.7747 8.20495 17.2705 7.33008C16.7666 6.45517 16.9191 5.38777 17.4834 4.41406C17.8127 3.84257 17.613 3.09547 17.0361 2.76562L15.2109 1.7207L15.1992 1.71387L15.6035 1.0332L15.1992 1.71289ZM11.3418 6.79395C13.5267 6.79408 15.2979 8.56603 15.2979 10.751C15.2976 12.9357 13.5266 14.7069 11.3418 14.707C9.15691 14.707 7.385 12.9358 7.38477 10.751C7.38477 8.56594 9.15676 6.79395 11.3418 6.79395ZM11.3418 8.37695C10.0308 8.37695 8.96777 9.43996 8.96777 10.751C8.96801 12.0618 10.0309 13.124 11.3418 13.124C12.6526 13.1239 13.7156 12.0617 13.7158 10.751C13.7158 9.44004 12.6527 8.37709 11.3418 8.37695Z" fill="white"/>
</svg>
