<svg
    class="h-[96px] w-auto"
    viewBox="0 0 182 96"
    fill="none"
    xmlns="http://www.w3.org/2000/svg"
    aria-hidden="true"
    focusable="false">
    <path
    d="M91.427 45.6412H95.4916L109.572 65.5178C109.472 64.5378 109.409 62.3885 109.383 59.0622C109.357 55.7358 109.346 51.2639 109.346 45.6412H113.637V72.3702H109.533L95.4916 52.6433C95.5915 53.6733 95.6545 55.523 95.6808 58.1951C95.7044 60.8672 95.7176 65.5914 95.7176 72.3675H91.427V45.6386V45.6412Z"
    fill="#004A5A" />
    <path
    d="M121.842 71.4847C120.287 70.6439 119.068 69.4589 118.19 67.9272C117.312 66.3954 116.874 64.6271 116.874 62.6197C116.874 60.6124 117.299 58.986 118.153 57.4437C119.007 55.9014 120.197 54.6822 121.729 53.7915C123.261 52.9008 124.979 52.4542 126.887 52.4542C128.794 52.4542 130.626 52.9008 132.158 53.7915C133.689 54.6822 134.869 55.9881 135.697 57.7064C136.524 59.4248 136.913 61.4768 136.863 63.8625H121.164C121.264 65.4442 121.884 66.7238 123.027 67.7012C124.17 68.6812 125.555 69.1699 127.186 69.1699C128.516 69.1699 129.646 68.8809 130.576 68.3029C131.503 67.7248 132.194 66.9734 132.646 66.0433L136.411 66.4584C136.059 67.6381 135.444 68.7049 134.567 69.6586C133.689 70.6124 132.602 71.3665 131.311 71.9182C130.019 72.47 128.631 72.7459 127.152 72.7459C125.169 72.7459 123.4 72.3255 121.845 71.4847H121.842ZM132.46 60.8882C132.41 59.4589 131.863 58.2713 130.823 57.3307C129.782 56.3901 128.469 55.9198 126.889 55.9198C125.31 55.9198 123.952 56.3848 122.898 57.3123C121.845 58.2424 121.267 59.4326 121.167 60.8882H132.46Z"
    fill="#004A5A" />
    <path
    d="M143.902 62.5462L136.259 52.8325H141.191C142.846 54.8898 144.034 56.4347 144.748 57.4621C145.463 58.492 145.959 59.3565 146.235 60.0606C146.511 59.3827 147.013 58.542 147.741 57.5383C148.469 56.5346 149.698 54.966 151.43 52.8325H156.361L148.721 62.3202L156.361 72.3702H151.43C149.774 70.263 148.568 68.6497 147.814 67.533C147.06 66.4164 146.535 65.4679 146.233 64.6902C145.931 65.4942 145.41 66.4584 144.669 67.5882C143.928 68.718 142.767 70.3129 141.188 72.3702H136.256L143.9 62.5435L143.902 62.5462Z"
    fill="#004A5A" />
    <path
    d="M160.09 56.2219H157.039V52.8325H160.09V47.1862H164.38V52.8325H168.71V56.2219H164.38V72.3728H160.09V56.2219Z"
    fill="#004A5A" />
    <path
    d="M46.9024 81.4138C65.7913 81.4138 81.1038 66.1013 81.1038 47.2124C81.1038 28.3235 65.7913 13.0111 46.9024 13.0111C28.0135 13.0111 12.701 28.3235 12.701 47.2124C12.701 66.1013 28.0135 81.4138 46.9024 81.4138Z"
    fill="#63C3D1" />
    <path
    d="M45.7279 55.1998C41.3138 55.1998 37.7353 51.6213 37.7353 47.2072C37.7353 42.7931 41.3138 39.2145 45.7279 39.2145C50.142 39.2145 53.7206 42.7931 53.7206 47.2072C53.7206 51.6213 50.142 55.1998 45.7279 55.1998ZM52.9403 32.4804C50.8147 29.3695 47.5514 27.4699 42.8456 27.4699C33.8887 27.4699 25.6149 34.9843 25.6149 47.2046C25.6149 59.4248 33.9649 66.9392 42.617 66.9392C47.2466 66.9392 50.7385 65.0422 52.9403 61.7028V66.1799H65.8436V28.2292H52.9403V32.4804Z"
    fill="#004A5A" />
    <path d="M107.922 16.7525H103.962V34.1698H107.922V16.7525Z" fill="#004A5A" />
    <path d="M113.461 16.7525H109.501V34.1698H113.461V16.7525Z" fill="#004A5A" />
    <path
    d="M149.84 22.0022C148.553 22.0022 147.478 22.5986 146.763 23.576V22.2386H142.73V34.1698H146.787V27.6091C146.787 26.1772 147.454 25.5098 148.385 25.5098C149.436 25.5098 149.935 26.2008 149.935 27.4436V34.1725H154.062V26.5608C154.062 23.6732 152.391 22.0022 149.84 22.0022Z"
    fill="#004A5A" />
    <path
    d="M138.742 22.2413L136.495 28.6653L134.375 22.2413H130.387L128.264 28.6811L126.141 22.2413H122.633L120.366 28.6811L118.361 22.2413H114.304L116.206 27.9665L118.266 34.1698H122.037L124.301 27.9428L126.474 34.1698H130.245L132.426 27.9402L134.472 33.668L132.157 39.6822H136.262L142.893 22.2413H138.742Z"
    fill="#004A5A" />
    <path
    d="M96.0618 30.7174C94.6745 30.7174 93.5499 29.5928 93.5499 28.2055C93.5499 26.8183 94.6745 25.6937 96.0618 25.6937C97.449 25.6937 98.5736 26.8183 98.5736 28.2055C98.5736 29.5928 97.449 30.7174 96.0618 30.7174ZM98.3266 23.576C97.6592 22.5986 96.6319 22.0022 95.1527 22.0022C92.3361 22.0022 89.7375 24.3642 89.7375 28.2055C89.7375 32.0469 92.3623 34.4089 95.0817 34.4089C96.5373 34.4089 97.6356 33.8125 98.3266 32.7615V34.1698H102.383V22.2386H98.3266V23.576Z"
    fill="#004A5A" />
</svg>