<svg width="20" height="20" viewBox="0 0 20 20" fill="none" xmlns="http://www.w3.org/2000/svg">
<path d="M10 0C10.3851 1.23055e-05 10.697 0.312198 10.6973 0.697266C10.6973 1.08255 10.3853 1.3955 10 1.39551C5.25058 1.39551 1.39574 5.24996 1.39551 9.99902C1.39551 14.7483 5.25044 18.6035 10 18.6035C14.7495 18.6035 18.6045 14.7483 18.6045 9.99902C18.6047 9.61393 18.9176 9.30176 19.3027 9.30176C19.6877 9.302 19.9998 9.61408 20 9.99902C20 15.5189 15.5202 19.999 10 19.999C4.47981 19.999 0 15.5189 0 9.99902C0.00023157 4.47938 4.47996 0 10 0ZM10.582 6.03809C11.2233 5.94935 11.877 6.0154 12.4873 6.23145C12.8858 6.37253 13.0942 6.8105 12.9531 7.20898C12.8119 7.60716 12.3749 7.81566 11.9766 7.6748C11.5972 7.54051 11.1906 7.49953 10.792 7.55469C10.3935 7.60987 10.0141 7.76002 9.68555 7.99219C9.35697 8.22444 9.08833 8.53234 8.90332 8.88965C8.83828 9.01533 8.785 9.14635 8.74219 9.28027H10.0439C10.4667 9.28027 10.8096 9.62318 10.8096 10.0459C10.8094 10.4685 10.4666 10.8115 10.0439 10.8115H8.74219C8.78502 10.9454 8.83825 11.0765 8.90332 11.2021C9.08836 11.5594 9.35695 11.8674 9.68555 12.0996C10.0141 12.3317 10.3935 12.482 10.792 12.5371C11.1906 12.5923 11.5972 12.5503 11.9766 12.416C12.375 12.2752 12.8121 12.4845 12.9531 12.8828C13.0939 13.2811 12.8856 13.7183 12.4873 13.8594C11.877 14.0754 11.2233 14.1415 10.582 14.0527C9.94093 13.964 9.33031 13.7231 8.80176 13.3496C8.27319 12.976 7.84162 12.481 7.54395 11.9062C7.36491 11.5605 7.23828 11.1912 7.16504 10.8115H6.76367C6.34107 10.8115 5.9982 10.4685 5.99805 10.0459C5.99805 9.62321 6.34097 9.28033 6.76367 9.28027H7.16504C7.23824 8.90046 7.36489 8.5314 7.54395 8.18555C7.84159 7.61073 8.27316 7.11582 8.80176 6.74219C9.33036 6.3686 9.94085 6.12686 10.582 6.03809ZM19.3027 0.000976562C19.4375 0.000937159 19.5719 0.0405684 19.6885 0.118164C19.7087 0.131673 19.7265 0.148592 19.7451 0.164062C19.7617 0.177747 19.7804 0.189603 19.7959 0.205078C19.9346 0.343871 20.0027 0.527159 20 0.708984V4.41895C19.9997 4.80401 19.6869 5.11718 19.3018 5.11719C18.9167 5.1171 18.6048 4.80396 18.6045 4.41895V2.38379L15.1455 5.84277C14.8731 6.11489 14.4306 6.11489 14.1582 5.84277C13.8861 5.57046 13.8862 5.12885 14.1582 4.85645L17.6182 1.39648H15.5811C15.1961 1.39648 14.8843 1.08406 14.8838 0.699219C14.8838 0.313929 15.1957 0.000976562 15.5811 0.000976562H19.3027Z" fill="white"/>
</svg>
