<svg width="27" height="26" viewBox="0 0 27 26" fill="none" xmlns="http://www.w3.org/2000/svg">
<path d="M23.4108 6.61133H20.4086V9.61351H23.4108V6.61133Z" fill="#FC9015"/>
<path d="M10.5925 6.61133H4.83243V9.61351H10.5925V6.61133Z" fill="#FC9015"/>
<path d="M6.93007 7.63564C6.83209 7.5049 6.70426 7.39949 6.55724 7.32822C6.41023 7.25694 6.2483 7.22185 6.08496 7.2259C5.95189 7.22577 5.82016 7.25261 5.69775 7.3048C5.57533 7.35699 5.46476 7.43344 5.3727 7.52954C5.28065 7.62565 5.20903 7.7394 5.16216 7.86395C5.11529 7.9885 5.09414 8.12126 5.1 8.25421C5.09295 8.38792 5.11403 8.52162 5.16188 8.64668C5.20972 8.77174 5.28327 8.88537 5.37776 8.98023C5.47225 9.0751 5.58559 9.14909 5.71046 9.19743C5.83533 9.24576 5.96895 9.26736 6.10269 9.26084C6.2614 9.2586 6.41778 9.22226 6.56121 9.15428C6.70464 9.0863 6.83178 8.98828 6.93401 8.86685V10.0331C6.66137 10.1355 6.37402 10.1933 6.08299 10.2044C5.56717 10.2045 5.07039 10.0096 4.69222 9.65877C4.49743 9.48262 4.34358 9.26594 4.24148 9.02396C4.13938 8.78199 4.09151 8.52059 4.10124 8.25814C4.10002 7.75261 4.29575 7.26648 4.64692 6.90283C5.01894 6.52365 5.52621 6.30756 6.05738 6.302C6.3605 6.30458 6.65998 6.36823 6.93794 6.48915L6.93007 7.63564Z" fill="#D7007E"/>
<path d="M11.4377 8.17545C11.4212 8.70807 11.198 9.21334 10.8154 9.58426C10.4328 9.95517 9.92088 10.1626 9.38801 10.1626C8.85513 10.1626 8.34318 9.95517 7.96059 9.58426C7.57799 9.21334 7.3548 8.70807 7.33829 8.17545C7.33829 7.05456 8.32325 6.26855 9.38899 6.26855C10.4547 6.26855 11.4377 7.05456 11.4377 8.17545ZM8.34099 8.17545C8.33486 8.31677 8.3574 8.45786 8.40725 8.59024C8.4571 8.72261 8.53323 8.84352 8.63106 8.94569C8.72889 9.04785 8.84639 9.12915 8.97648 9.1847C9.10657 9.24024 9.24656 9.26888 9.38801 9.26888C9.52946 9.26888 9.66944 9.24024 9.79953 9.1847C9.92962 9.12915 10.0471 9.04785 10.1449 8.94569C10.2428 8.84352 10.3189 8.72261 10.3688 8.59024C10.4186 8.45786 10.4412 8.31677 10.435 8.17545C10.4152 7.91135 10.2962 7.66451 10.1021 7.48439C9.90791 7.30427 9.65285 7.20419 9.38801 7.20419C9.12316 7.20419 8.8681 7.30427 8.67393 7.48439C8.47977 7.66451 8.36084 7.91135 8.34099 8.17545Z" fill="#D7007E"/>
<path d="M12.2944 6.39062H13.2419L13.9944 8.37238L14.7824 6.39062H15.7398L16.3012 10.098H15.3438L15.0739 7.9646H15.0641L14.1737 10.098H13.7895L12.9405 7.9646H12.9307L12.6214 10.098H11.662L12.2944 6.39062Z" fill="#D7007E"/>
<path d="M16.7231 10.098V6.39062H18.102C18.76 6.39062 19.2032 6.64671 19.2032 7.35392C19.2182 7.50654 19.1875 7.66018 19.1148 7.79525C19.0422 7.93032 18.931 8.04071 18.7954 8.11234V8.12219C19.3253 8.19508 19.5519 8.54967 19.5519 9.06579C19.5519 9.84194 18.8939 10.098 18.2103 10.098H16.7231ZM17.6864 7.8464H17.7947C18.0547 7.8464 18.3167 7.80109 18.3167 7.48787C18.3167 7.17465 18.0114 7.12935 17.7553 7.12935H17.6864V7.8464ZM17.6864 9.35931H17.8105C18.1 9.35931 18.5768 9.37507 18.5768 8.96532C18.5768 8.64028 18.3108 8.57134 18.0409 8.57134H17.6864V9.35931Z" fill="#D7007E"/>
<path d="M23.9582 8.17545C23.9417 8.70807 23.7185 9.21334 23.3359 9.58426C22.9533 9.95517 22.4414 10.1626 21.9085 10.1626C21.3756 10.1626 20.8637 9.95517 20.4811 9.58426C20.0985 9.21334 19.8753 8.70807 19.8588 8.17545C19.8588 7.05456 20.8438 6.26855 21.9075 6.26855C22.9713 6.26855 23.9582 7.05456 23.9582 8.17545ZM20.8615 8.17545C20.8554 8.31677 20.8779 8.45786 20.9278 8.59024C20.9776 8.72261 21.0537 8.84352 21.1516 8.94569C21.2494 9.04785 21.3669 9.12915 21.497 9.1847C21.6271 9.24024 21.7671 9.26888 21.9085 9.26888C22.05 9.26888 22.19 9.24024 22.32 9.1847C22.4501 9.12915 22.5676 9.04785 22.6655 8.94569C22.7633 8.84352 22.8394 8.72261 22.8893 8.59024C22.9391 8.45786 22.9617 8.31677 22.9555 8.17545C22.9357 7.91135 22.8167 7.66451 22.6226 7.48439C22.4284 7.30427 22.1734 7.20419 21.9085 7.20419C21.6437 7.20419 21.3886 7.30427 21.1944 7.48439C21.0003 7.66451 20.8813 7.91135 20.8615 8.17545Z" fill="#D7007E"/>
<path d="M6.93007 7.63564C6.83209 7.5049 6.70426 7.39949 6.55724 7.32822C6.41023 7.25694 6.2483 7.22185 6.08496 7.2259C5.95189 7.22577 5.82016 7.25261 5.69775 7.3048C5.57533 7.35699 5.46476 7.43344 5.3727 7.52954C5.28065 7.62565 5.20903 7.7394 5.16216 7.86395C5.11529 7.9885 5.09414 8.12126 5.1 8.25421C5.09295 8.38792 5.11403 8.52162 5.16188 8.64668C5.20972 8.77174 5.28327 8.88537 5.37776 8.98023C5.47225 9.0751 5.58559 9.14909 5.71046 9.19743C5.83533 9.24576 5.96895 9.26736 6.10269 9.26084C6.2614 9.2586 6.41778 9.22226 6.56121 9.15428C6.70464 9.0863 6.83178 8.98828 6.93401 8.86685V10.0331C6.66137 10.1355 6.37402 10.1933 6.08299 10.2044C5.56717 10.2045 5.07039 10.0096 4.69222 9.65877C4.49743 9.48262 4.34358 9.26594 4.24148 9.02396C4.13938 8.78199 4.09151 8.52059 4.10124 8.25814C4.10002 7.75261 4.29575 7.26648 4.64692 6.90283C5.01894 6.52365 5.52621 6.30756 6.05738 6.302C6.3605 6.30458 6.65998 6.36823 6.93794 6.48915L6.93007 7.63564Z" fill="black"/>
<path d="M11.4377 8.17545C11.4212 8.70807 11.198 9.21334 10.8154 9.58426C10.4328 9.95517 9.92088 10.1626 9.38801 10.1626C8.85513 10.1626 8.34318 9.95517 7.96059 9.58426C7.57799 9.21334 7.3548 8.70807 7.33829 8.17545C7.33829 7.05456 8.32325 6.26855 9.38899 6.26855C10.4547 6.26855 11.4377 7.05456 11.4377 8.17545ZM8.34099 8.17545C8.33486 8.31677 8.3574 8.45786 8.40725 8.59024C8.4571 8.72261 8.53323 8.84352 8.63106 8.94569C8.72889 9.04785 8.84639 9.12915 8.97648 9.1847C9.10657 9.24024 9.24656 9.26888 9.38801 9.26888C9.52946 9.26888 9.66944 9.24024 9.79953 9.1847C9.92962 9.12915 10.0471 9.04785 10.1449 8.94569C10.2428 8.84352 10.3189 8.72261 10.3688 8.59024C10.4186 8.45786 10.4412 8.31677 10.435 8.17545C10.4152 7.91135 10.2962 7.66451 10.1021 7.48439C9.90791 7.30427 9.65285 7.20419 9.38801 7.20419C9.12316 7.20419 8.8681 7.30427 8.67393 7.48439C8.47977 7.66451 8.36084 7.91135 8.34099 8.17545Z" fill="black"/>
<path d="M12.2944 6.39062H13.2419L13.9944 8.37238L14.7824 6.39062H15.7398L16.3012 10.098H15.3438L15.0739 7.9646H15.0641L14.1737 10.098H13.7895L12.9405 7.9646H12.9307L12.6214 10.098H11.662L12.2944 6.39062Z" fill="black"/>
<path d="M16.7231 10.098V6.39062H18.102C18.76 6.39062 19.2032 6.64671 19.2032 7.35392C19.2182 7.50654 19.1875 7.66018 19.1148 7.79525C19.0422 7.93032 18.931 8.04071 18.7954 8.11234V8.12219C19.3253 8.19508 19.5519 8.54967 19.5519 9.06579C19.5519 9.84194 18.8939 10.098 18.2103 10.098H16.7231ZM17.6864 7.8464H17.7947C18.0547 7.8464 18.3167 7.80109 18.3167 7.48787C18.3167 7.17465 18.0114 7.12935 17.7553 7.12935H17.6864V7.8464ZM17.6864 9.35931H17.8105C18.1 9.35931 18.5768 9.37507 18.5768 8.96532C18.5768 8.64028 18.3108 8.57134 18.0409 8.57134H17.6864V9.35931Z" fill="black"/>
<path d="M23.9582 8.17545C23.9417 8.70807 23.7185 9.21334 23.3359 9.58426C22.9533 9.95517 22.4414 10.1626 21.9085 10.1626C21.3756 10.1626 20.8637 9.95517 20.4811 9.58426C20.0985 9.21334 19.8753 8.70807 19.8588 8.17545C19.8588 7.05456 20.8438 6.26855 21.9075 6.26855C22.9713 6.26855 23.9582 7.05456 23.9582 8.17545ZM20.8615 8.17545C20.8554 8.31677 20.8779 8.45786 20.9278 8.59024C20.9776 8.72261 21.0537 8.84352 21.1516 8.94569C21.2494 9.04785 21.3669 9.12915 21.497 9.1847C21.6271 9.24024 21.7671 9.26888 21.9085 9.26888C22.05 9.26888 22.19 9.24024 22.32 9.1847C22.4501 9.12915 22.5676 9.04785 22.6655 8.94569C22.7633 8.84352 22.8394 8.72261 22.8893 8.59024C22.9391 8.45786 22.9617 8.31677 22.9555 8.17545C22.9357 7.91135 22.8167 7.66451 22.6226 7.48439C22.4284 7.30427 22.1734 7.20419 21.9085 7.20419C21.6437 7.20419 21.3886 7.30427 21.1944 7.48439C21.0003 7.66451 20.8813 7.91135 20.8615 8.17545Z" fill="black"/>
<path d="M6.93007 7.63564C6.83209 7.5049 6.70426 7.39949 6.55724 7.32822C6.41023 7.25694 6.2483 7.22185 6.08496 7.2259C5.95189 7.22577 5.82016 7.25261 5.69775 7.3048C5.57533 7.35699 5.46476 7.43344 5.3727 7.52954C5.28065 7.62565 5.20903 7.7394 5.16216 7.86395C5.11529 7.9885 5.09414 8.12126 5.1 8.25421C5.09295 8.38792 5.11403 8.52162 5.16188 8.64668C5.20972 8.77174 5.28327 8.88537 5.37776 8.98023C5.47225 9.0751 5.58559 9.14909 5.71046 9.19743C5.83533 9.24576 5.96895 9.26736 6.10269 9.26084C6.2614 9.2586 6.41778 9.22226 6.56121 9.15428C6.70464 9.0863 6.83178 8.98828 6.93401 8.86685V10.0331C6.66137 10.1355 6.37402 10.1933 6.08299 10.2044C5.56717 10.2045 5.07039 10.0096 4.69222 9.65877C4.49743 9.48262 4.34358 9.26594 4.24148 9.02396C4.13938 8.78199 4.09151 8.52059 4.10124 8.25814C4.10002 7.75261 4.29575 7.26648 4.64692 6.90283C5.01894 6.52365 5.52621 6.30756 6.05738 6.302C6.3605 6.30458 6.65998 6.36823 6.93794 6.48915L6.93007 7.63564Z" stroke="#FC9015" stroke-width="0.852941" stroke-miterlimit="10"/>
<path d="M11.4377 8.17545C11.4212 8.70807 11.198 9.21334 10.8154 9.58426C10.4328 9.95517 9.92088 10.1626 9.38801 10.1626C8.85513 10.1626 8.34318 9.95517 7.96059 9.58426C7.57799 9.21334 7.3548 8.70807 7.33829 8.17545C7.33829 7.05456 8.32325 6.26855 9.38899 6.26855C10.4547 6.26855 11.4377 7.05456 11.4377 8.17545ZM8.34099 8.17545C8.33486 8.31677 8.3574 8.45786 8.40725 8.59024C8.4571 8.72261 8.53323 8.84352 8.63106 8.94569C8.72889 9.04785 8.84639 9.12915 8.97648 9.1847C9.10657 9.24024 9.24656 9.26888 9.38801 9.26888C9.52946 9.26888 9.66944 9.24024 9.79953 9.1847C9.92962 9.12915 10.0471 9.04785 10.1449 8.94569C10.2428 8.84352 10.3189 8.72261 10.3688 8.59024C10.4186 8.45786 10.4412 8.31677 10.435 8.17545C10.4152 7.91135 10.2962 7.66451 10.1021 7.48439C9.90791 7.30427 9.65285 7.20419 9.38801 7.20419C9.12316 7.20419 8.8681 7.30427 8.67393 7.48439C8.47977 7.66451 8.36084 7.91135 8.34099 8.17545V8.17545Z" stroke="#FC9015" stroke-width="0.852941" stroke-miterlimit="10"/>
<path d="M12.2944 6.39062H13.2419L13.9944 8.37238L14.7824 6.39062H15.7398L16.3012 10.098H15.3438L15.0739 7.9646H15.0641L14.1737 10.098H13.7895L12.9405 7.9646H12.9307L12.6214 10.098H11.662L12.2944 6.39062Z" stroke="#FC9015" stroke-width="0.852941" stroke-miterlimit="10"/>
<path d="M16.7231 10.098V6.39062H18.102C18.76 6.39062 19.2032 6.64671 19.2032 7.35392C19.2182 7.50654 19.1875 7.66018 19.1148 7.79525C19.0422 7.93032 18.931 8.04071 18.7954 8.11234V8.12219C19.3253 8.19508 19.5519 8.54967 19.5519 9.06579C19.5519 9.84194 18.8939 10.098 18.2103 10.098H16.7231ZM17.6864 7.8464H17.7947C18.0547 7.8464 18.3167 7.80109 18.3167 7.48787C18.3167 7.17465 18.0114 7.12935 17.7553 7.12935H17.6864V7.8464ZM17.6864 9.35931H17.8105C18.1 9.35931 18.5768 9.37507 18.5768 8.96532C18.5768 8.64028 18.3108 8.57134 18.0409 8.57134H17.6864V9.35931Z" stroke="#FC9015" stroke-width="0.852941" stroke-miterlimit="10"/>
<path d="M23.9582 8.17545C23.9417 8.70807 23.7185 9.21334 23.3359 9.58426C22.9533 9.95517 22.4414 10.1626 21.9085 10.1626C21.3756 10.1626 20.8637 9.95517 20.4811 9.58426C20.0985 9.21334 19.8753 8.70807 19.8588 8.17545C19.8588 7.05456 20.8438 6.26855 21.9075 6.26855C22.9713 6.26855 23.9582 7.05456 23.9582 8.17545ZM20.8615 8.17545C20.8554 8.31677 20.8779 8.45786 20.9278 8.59024C20.9776 8.72261 21.0537 8.84352 21.1516 8.94569C21.2494 9.04785 21.3669 9.12915 21.497 9.1847C21.6271 9.24024 21.7671 9.26888 21.9085 9.26888C22.05 9.26888 22.19 9.24024 22.32 9.1847C22.4501 9.12915 22.5676 9.04785 22.6655 8.94569C22.7633 8.84352 22.8394 8.72261 22.8893 8.59024C22.9391 8.45786 22.9617 8.31677 22.9555 8.17545C22.9357 7.91135 22.8167 7.66451 22.6226 7.48439C22.4284 7.30427 22.1734 7.20419 21.9085 7.20419C21.6437 7.20419 21.3886 7.30427 21.1944 7.48439C21.0003 7.66451 20.8813 7.91135 20.8615 8.17545Z" stroke="#FC9015" stroke-width="0.852941" stroke-miterlimit="10"/>
<path d="M6.93007 7.63564C6.83209 7.5049 6.70426 7.39949 6.55724 7.32822C6.41023 7.25694 6.2483 7.22185 6.08496 7.2259C5.95189 7.22577 5.82016 7.25261 5.69775 7.3048C5.57533 7.35699 5.46476 7.43344 5.3727 7.52954C5.28065 7.62565 5.20903 7.7394 5.16216 7.86395C5.11529 7.9885 5.09414 8.12126 5.1 8.25421C5.09295 8.38792 5.11403 8.52162 5.16188 8.64668C5.20972 8.77174 5.28327 8.88537 5.37776 8.98023C5.47225 9.0751 5.58559 9.14909 5.71046 9.19743C5.83533 9.24576 5.96895 9.26736 6.10269 9.26084C6.2614 9.2586 6.41778 9.22226 6.56121 9.15428C6.70464 9.0863 6.83178 8.98828 6.93401 8.86685V10.0331C6.66137 10.1355 6.37402 10.1933 6.08299 10.2044C5.56717 10.2045 5.07039 10.0096 4.69222 9.65877C4.49743 9.48262 4.34358 9.26594 4.24148 9.02396C4.13938 8.78199 4.09151 8.52059 4.10124 8.25814C4.10002 7.75261 4.29575 7.26648 4.64692 6.90283C5.01894 6.52365 5.52621 6.30756 6.05738 6.302C6.3605 6.30458 6.65998 6.36823 6.93794 6.48915L6.93007 7.63564Z" fill="white"/>
<path d="M11.4377 8.17545C11.4212 8.70807 11.198 9.21334 10.8154 9.58426C10.4328 9.95517 9.92088 10.1626 9.38801 10.1626C8.85513 10.1626 8.34318 9.95517 7.96059 9.58426C7.57799 9.21334 7.3548 8.70807 7.33829 8.17545C7.33829 7.05456 8.32325 6.26855 9.38899 6.26855C10.4547 6.26855 11.4377 7.05456 11.4377 8.17545ZM8.34099 8.17545C8.33486 8.31677 8.3574 8.45786 8.40725 8.59024C8.4571 8.72261 8.53323 8.84352 8.63106 8.94569C8.72889 9.04785 8.84639 9.12915 8.97648 9.1847C9.10657 9.24024 9.24656 9.26888 9.38801 9.26888C9.52946 9.26888 9.66944 9.24024 9.79953 9.1847C9.92962 9.12915 10.0471 9.04785 10.1449 8.94569C10.2428 8.84352 10.3189 8.72261 10.3688 8.59024C10.4186 8.45786 10.4412 8.31677 10.435 8.17545C10.4152 7.91135 10.2962 7.66451 10.1021 7.48439C9.90791 7.30427 9.65285 7.20419 9.38801 7.20419C9.12316 7.20419 8.8681 7.30427 8.67393 7.48439C8.47977 7.66451 8.36084 7.91135 8.34099 8.17545Z" fill="white"/>
<path d="M12.2944 6.39062H13.2419L13.9944 8.37238L14.7824 6.39062H15.7398L16.3012 10.098H15.3438L15.0739 7.9646H15.0641L14.1737 10.098H13.7895L12.9405 7.9646H12.9307L12.6214 10.098H11.662L12.2944 6.39062Z" fill="white"/>
<path d="M16.7231 10.098V6.39062H18.102C18.76 6.39062 19.2032 6.64671 19.2032 7.35392C19.2182 7.50654 19.1875 7.66018 19.1148 7.79525C19.0422 7.93032 18.931 8.04071 18.7954 8.11234V8.12219C19.3253 8.19508 19.5519 8.54967 19.5519 9.06579C19.5519 9.84194 18.8939 10.098 18.2103 10.098H16.7231ZM17.6864 7.8464H17.7947C18.0547 7.8464 18.3167 7.80109 18.3167 7.48787C18.3167 7.17465 18.0114 7.12935 17.7553 7.12935H17.6864V7.8464ZM17.6864 9.35931H17.8105C18.1 9.35931 18.5768 9.37507 18.5768 8.96532C18.5768 8.64028 18.3108 8.57134 18.0409 8.57134H17.6864V9.35931Z" fill="white"/>
<path d="M23.9582 8.17545C23.9417 8.70807 23.7185 9.21334 23.3359 9.58426C22.9533 9.95517 22.4414 10.1626 21.9085 10.1626C21.3756 10.1626 20.8637 9.95517 20.4811 9.58426C20.0985 9.21334 19.8753 8.70807 19.8588 8.17545C19.8588 7.05456 20.8438 6.26855 21.9075 6.26855C22.9713 6.26855 23.9582 7.05456 23.9582 8.17545ZM20.8615 8.17545C20.8554 8.31677 20.8779 8.45786 20.9278 8.59024C20.9776 8.72261 21.0537 8.84352 21.1516 8.94569C21.2494 9.04785 21.3669 9.12915 21.497 9.1847C21.6271 9.24024 21.7671 9.26888 21.9085 9.26888C22.05 9.26888 22.19 9.24024 22.32 9.1847C22.4501 9.12915 22.5676 9.04785 22.6655 8.94569C22.7633 8.84352 22.8394 8.72261 22.8893 8.59024C22.9391 8.45786 22.9617 8.31677 22.9555 8.17545C22.9357 7.91135 22.8167 7.66451 22.6226 7.48439C22.4284 7.30427 22.1734 7.20419 21.9085 7.20419C21.6437 7.20419 21.3886 7.30427 21.1944 7.48439C21.0003 7.66451 20.8813 7.91135 20.8615 8.17545Z" fill="white"/>
<path d="M15.9063 12.821H13.9323V17.6059H15.9063V12.821Z" fill="#FC9015"/>
<path d="M12.436 14.2685C12.5652 12.9955 13.4473 12.2686 14.6976 12.2686C15.7993 12.2686 16.6361 12.8986 16.6361 14.0391C16.6486 14.2869 16.5955 14.5337 16.482 14.7544C16.3686 14.9751 16.1988 15.1619 15.9899 15.2959C16.6361 15.4639 16.985 16.2005 16.985 16.8305C16.985 18.1584 15.8284 18.853 14.6136 18.853C14.2794 18.8722 13.9449 18.8211 13.6316 18.7032C13.3183 18.5852 13.0332 18.4029 12.7946 18.1681C12.3775 17.7614 12.1293 17.2121 12.1 16.6302H13.7154C13.7105 16.7438 13.729 16.8573 13.7698 16.9635C13.8105 17.0697 13.8727 17.1664 13.9524 17.2476C14.032 17.3288 14.1275 17.3927 14.2329 17.4354C14.3384 17.4782 14.4514 17.4988 14.5651 17.4961C14.6759 17.5033 14.7869 17.4874 14.8911 17.4493C14.9953 17.4112 15.0904 17.3518 15.1704 17.2749C15.2503 17.1979 15.3134 17.1052 15.3555 17.0025C15.3976 16.8999 15.4178 16.7896 15.4149 16.6787C15.409 16.4598 15.3179 16.2519 15.161 16.0993C15.0041 15.9466 14.7938 15.8612 14.5748 15.8613C14.4814 15.8641 14.3889 15.8804 14.3002 15.9097V14.85H14.4618C14.5528 14.8569 14.6443 14.8445 14.7302 14.8135C14.8161 14.7825 14.8945 14.7336 14.9601 14.6701C15.0257 14.6066 15.0772 14.5299 15.111 14.4451C15.1448 14.3603 15.1603 14.2692 15.1564 14.178C15.1602 14.0955 15.1466 14.0132 15.1164 13.9364C15.0863 13.8595 15.0403 13.7899 14.9815 13.732C14.9227 13.6741 14.8523 13.6292 14.775 13.6003C14.6977 13.5714 14.6152 13.5591 14.5328 13.5641C14.4429 13.5638 14.3538 13.5822 14.2713 13.6182C14.1889 13.6543 14.1149 13.7072 14.0541 13.7735C13.9932 13.8398 13.9469 13.918 13.9181 14.0033C13.8893 14.0885 13.8786 14.1788 13.8867 14.2685H12.436Z" fill="#D7007E"/>
<path d="M12.436 14.2685C12.5652 12.9955 13.4473 12.2686 14.6976 12.2686C15.7993 12.2686 16.6361 12.8986 16.6361 14.0391C16.6486 14.2869 16.5955 14.5337 16.482 14.7544C16.3686 14.9751 16.1988 15.1619 15.9899 15.2959C16.6361 15.4639 16.985 16.2005 16.985 16.8305C16.985 18.1584 15.8284 18.853 14.6136 18.853C14.2794 18.8722 13.9449 18.8211 13.6316 18.7032C13.3183 18.5852 13.0332 18.4029 12.7946 18.1681C12.3775 17.7614 12.1293 17.2121 12.1 16.6302H13.7154C13.7105 16.7438 13.729 16.8573 13.7698 16.9635C13.8105 17.0697 13.8727 17.1664 13.9524 17.2476C14.032 17.3288 14.1275 17.3927 14.2329 17.4354C14.3384 17.4782 14.4514 17.4988 14.5651 17.4961C14.6759 17.5033 14.7869 17.4874 14.8911 17.4493C14.9953 17.4112 15.0904 17.3518 15.1704 17.2749C15.2503 17.1979 15.3134 17.1052 15.3555 17.0025C15.3976 16.8999 15.4178 16.7896 15.4149 16.6787C15.409 16.4598 15.3179 16.2519 15.161 16.0993C15.0041 15.9466 14.7938 15.8612 14.5748 15.8613C14.4814 15.8641 14.3889 15.8804 14.3002 15.9097V14.85H14.4618C14.5528 14.8569 14.6443 14.8445 14.7302 14.8135C14.8161 14.7825 14.8945 14.7336 14.9601 14.6701C15.0257 14.6066 15.0772 14.5299 15.111 14.4451C15.1448 14.3603 15.1603 14.2692 15.1564 14.178C15.1602 14.0955 15.1466 14.0132 15.1164 13.9364C15.0863 13.8595 15.0403 13.7899 14.9815 13.732C14.9227 13.6741 14.8523 13.6292 14.775 13.6003C14.6977 13.5714 14.6152 13.5591 14.5328 13.5641C14.4429 13.5638 14.3538 13.5822 14.2713 13.6182C14.1889 13.6543 14.1149 13.7072 14.0541 13.7735C13.9932 13.8398 13.9469 13.918 13.9181 14.0033C13.8893 14.0885 13.8786 14.1788 13.8867 14.2685H12.436Z" fill="black"/>
<path d="M12.436 14.2685C12.5652 12.9955 13.4473 12.2686 14.6976 12.2686C15.7993 12.2686 16.6361 12.8986 16.6361 14.0391C16.6486 14.2869 16.5955 14.5337 16.482 14.7544C16.3686 14.9751 16.1988 15.1619 15.9899 15.2959C16.6361 15.4639 16.985 16.2005 16.985 16.8305C16.985 18.1584 15.8284 18.853 14.6136 18.853C14.2794 18.8722 13.9449 18.8211 13.6316 18.7032C13.3183 18.5852 13.0332 18.4029 12.7946 18.1681C12.3775 17.7614 12.1293 17.2121 12.1 16.6302H13.7154C13.7105 16.7438 13.729 16.8573 13.7698 16.9635C13.8105 17.0697 13.8727 17.1664 13.9524 17.2476C14.032 17.3288 14.1275 17.3927 14.2329 17.4354C14.3384 17.4782 14.4514 17.4988 14.5651 17.4961C14.6759 17.5033 14.7869 17.4874 14.8911 17.4493C14.9953 17.4112 15.0904 17.3518 15.1704 17.2749C15.2503 17.1979 15.3134 17.1052 15.3555 17.0025C15.3976 16.8999 15.4178 16.7896 15.4149 16.6787C15.409 16.4598 15.3179 16.2519 15.161 16.0993C15.0041 15.9466 14.7938 15.8612 14.5748 15.8613C14.4814 15.8641 14.3889 15.8804 14.3002 15.9097V14.85H14.4618C14.5528 14.8569 14.6443 14.8445 14.7302 14.8135C14.8161 14.7825 14.8945 14.7336 14.9601 14.6701C15.0257 14.6066 15.0772 14.5299 15.111 14.4451C15.1448 14.3603 15.1603 14.2692 15.1564 14.178C15.1602 14.0955 15.1466 14.0132 15.1164 13.9364C15.0863 13.8595 15.0403 13.7899 14.9815 13.732C14.9227 13.6741 14.8523 13.6292 14.775 13.6003C14.6977 13.5714 14.6152 13.5591 14.5328 13.5641C14.4429 13.5638 14.3538 13.5822 14.2713 13.6182C14.1889 13.6543 14.1149 13.7072 14.0541 13.7735C13.9932 13.8398 13.9469 13.918 13.9181 14.0033C13.8893 14.0885 13.8786 14.1788 13.8867 14.2685H12.436Z" stroke="#FC9015" stroke-width="1.27579" stroke-miterlimit="10"/>
<path d="M12.436 14.2685C12.5652 12.9955 13.4473 12.2686 14.6976 12.2686C15.7993 12.2686 16.6361 12.8986 16.6361 14.0391C16.6486 14.2869 16.5955 14.5337 16.482 14.7544C16.3686 14.9751 16.1988 15.1619 15.9899 15.2959C16.6361 15.4639 16.985 16.2005 16.985 16.8305C16.985 18.1584 15.8284 18.853 14.6136 18.853C14.2794 18.8722 13.9449 18.8211 13.6316 18.7032C13.3183 18.5852 13.0332 18.4029 12.7946 18.1681C12.3775 17.7614 12.1293 17.2121 12.1 16.6302H13.7154C13.7105 16.7438 13.729 16.8573 13.7698 16.9635C13.8105 17.0697 13.8727 17.1664 13.9524 17.2476C14.032 17.3288 14.1275 17.3927 14.2329 17.4354C14.3384 17.4782 14.4514 17.4988 14.5651 17.4961C14.6759 17.5033 14.7869 17.4874 14.8911 17.4493C14.9953 17.4112 15.0904 17.3518 15.1704 17.2749C15.2503 17.1979 15.3134 17.1052 15.3555 17.0025C15.3976 16.8999 15.4178 16.7896 15.4149 16.6787C15.409 16.4598 15.3179 16.2519 15.161 16.0993C15.0041 15.9466 14.7938 15.8612 14.5748 15.8613C14.4814 15.8641 14.3889 15.8804 14.3002 15.9097V14.85H14.4618C14.5528 14.8569 14.6443 14.8445 14.7302 14.8135C14.8161 14.7825 14.8945 14.7336 14.9601 14.6701C15.0257 14.6066 15.0772 14.5299 15.111 14.4451C15.1448 14.3603 15.1603 14.2692 15.1564 14.178C15.1602 14.0955 15.1466 14.0132 15.1164 13.9364C15.0863 13.8595 15.0403 13.7899 14.9815 13.732C14.9227 13.6741 14.8523 13.6292 14.775 13.6003C14.6977 13.5714 14.6152 13.5591 14.5328 13.5641C14.4429 13.5638 14.3538 13.5822 14.2713 13.6182C14.1889 13.6543 14.1149 13.7072 14.0541 13.7735C13.9932 13.8398 13.9469 13.918 13.9181 14.0033C13.8893 14.0885 13.8786 14.1788 13.8867 14.2685H12.436Z" fill="white"/>
</svg>
