<svg width="27" height="26" viewBox="0 0 27 26" fill="none" xmlns="http://www.w3.org/2000/svg">
<path d="M23.1584 7.16455H20.1479V10.1751H23.1584V7.16455Z" fill="#00CD4E"/>
<path d="M10.3039 7.16455H4.52774V10.1751H10.3039V7.16455Z" fill="#00CD4E"/>
<path d="M6.63176 8.186C6.53162 8.05803 6.40266 7.95554 6.25538 7.88688C6.10811 7.81822 5.9467 7.78534 5.7843 7.79091C5.65103 7.7908 5.51911 7.81765 5.39648 7.86986C5.27386 7.92207 5.16307 7.99856 5.07079 8.09472C4.97851 8.19087 4.90665 8.30471 4.85952 8.42938C4.8124 8.55404 4.79098 8.68696 4.79658 8.82011C4.78954 8.95428 4.81068 9.08845 4.85864 9.21395C4.9066 9.33946 4.98031 9.45352 5.07504 9.5488C5.16976 9.64408 5.28339 9.71847 5.40861 9.76717C5.53383 9.81586 5.66787 9.83779 5.80208 9.83153C5.96121 9.82916 6.11798 9.79266 6.26179 9.7245C6.40561 9.65635 6.53312 9.55811 6.63571 9.43645V10.5941C6.36225 10.6924 6.07482 10.7465 5.7843 10.7541C5.26722 10.7531 4.7694 10.5578 4.38964 10.2069C4.19441 10.0301 4.0402 9.81284 3.93783 9.57022C3.83545 9.32759 3.78739 9.0655 3.79701 8.80233C3.79528 8.29471 3.99158 7.80642 4.34421 7.44126C4.71877 7.06447 5.22733 6.85138 5.75862 6.84863C6.06234 6.85155 6.36247 6.91467 6.64164 7.03432L6.63176 8.186Z" fill="#D7007E"/>
<path d="M11.1513 8.73107C11.1348 9.26518 10.9109 9.77187 10.5273 10.1438C10.1436 10.5158 9.63025 10.7238 9.09588 10.7238C8.56152 10.7238 8.04814 10.5158 7.66448 10.1438C7.28081 9.77187 7.057 9.26518 7.04044 8.73107C7.04044 7.60705 8.02815 6.81885 9.09686 6.81885C10.1656 6.81885 11.1513 7.60705 11.1513 8.73107ZM8.04594 8.73107C8.03979 8.87279 8.06239 9.01428 8.11238 9.14702C8.16238 9.27976 8.23872 9.40101 8.33682 9.50346C8.43492 9.60591 8.55275 9.68744 8.6832 9.74314C8.81366 9.79884 8.95404 9.82756 9.09588 9.82756C9.23773 9.82756 9.3781 9.79884 9.50855 9.74314C9.63901 9.68744 9.75684 9.60591 9.85494 9.50346C9.95304 9.40101 10.0294 9.27976 10.0794 9.14702C10.1294 9.01428 10.152 8.87279 10.1458 8.73107C10.1259 8.46624 10.0067 8.21871 9.81195 8.03809C9.61724 7.85747 9.36147 7.7571 9.09588 7.7571C8.8303 7.7571 8.57452 7.85747 8.37981 8.03809C8.1851 8.21871 8.06585 8.46624 8.04594 8.73107Z" fill="#D7007E"/>
<path d="M12.011 6.94336H12.9612L13.7158 8.92868L14.506 6.94336H15.466L16.029 10.6592H15.069L14.7983 8.51976H14.7884L13.8955 10.6592H13.5103L12.6589 8.51976H12.649L12.3389 10.6592H11.3769L12.011 6.94336Z" fill="#D7007E"/>
<path d="M16.4516 10.6592V6.94336H17.8344C18.4942 6.94336 18.9386 7.19819 18.9386 7.90935C18.9533 8.06208 18.9223 8.21571 18.8495 8.35077C18.7767 8.48582 18.6654 8.59621 18.5297 8.66792V8.67779C19.0611 8.75088 19.2883 9.10646 19.2883 9.62403C19.2883 10.4023 18.6285 10.6592 17.943 10.6592H16.4516ZM17.4176 8.40123H17.5262C17.787 8.40123 18.0497 8.35777 18.0497 8.0417C18.0497 7.72563 17.7435 7.68218 17.4867 7.68218H17.4176V8.40123ZM17.4176 9.91837H17.542C17.8324 9.91837 18.3105 9.93417 18.3105 9.52328C18.3105 9.19733 18.0438 9.12819 17.7731 9.12819H17.4176V9.91837Z" fill="#D7007E"/>
<path d="M23.7075 8.73107C23.6909 9.26518 23.4671 9.77187 23.0834 10.1438C22.6998 10.5158 22.1864 10.7238 21.652 10.7238C21.1177 10.7238 20.6043 10.5158 20.2206 10.1438C19.837 9.77187 19.6131 9.26518 19.5966 8.73107C19.5966 7.60705 20.5843 6.81885 21.651 6.81885C22.7178 6.81885 23.7075 7.60705 23.7075 8.73107ZM20.6021 8.73107C20.5959 8.87279 20.6185 9.01428 20.6685 9.14702C20.7185 9.27976 20.7949 9.40101 20.893 9.50346C20.9911 9.60591 21.1089 9.68744 21.2394 9.74314C21.3698 9.79884 21.5102 9.82756 21.652 9.82756C21.7939 9.82756 21.9343 9.79884 22.0647 9.74314C22.1952 9.68744 22.313 9.60591 22.4111 9.50346C22.5092 9.40101 22.5855 9.27976 22.6355 9.14702C22.6855 9.01428 22.7081 8.87279 22.702 8.73107C22.6821 8.46624 22.5628 8.21871 22.3681 8.03809C22.1734 7.85747 21.9176 7.7571 21.652 7.7571C21.3864 7.7571 21.1307 7.85747 20.936 8.03809C20.7412 8.21871 20.622 8.46624 20.6021 8.73107Z" fill="#D7007E"/>
<path d="M6.63176 8.186C6.53162 8.05803 6.40266 7.95554 6.25538 7.88688C6.10811 7.81822 5.9467 7.78534 5.7843 7.79091C5.65103 7.7908 5.51911 7.81765 5.39648 7.86986C5.27386 7.92207 5.16307 7.99856 5.07079 8.09472C4.97851 8.19087 4.90665 8.30471 4.85952 8.42938C4.8124 8.55404 4.79098 8.68696 4.79658 8.82011C4.78954 8.95428 4.81068 9.08845 4.85864 9.21395C4.9066 9.33946 4.98031 9.45352 5.07504 9.5488C5.16976 9.64408 5.28339 9.71847 5.40861 9.76717C5.53383 9.81586 5.66787 9.83779 5.80208 9.83153C5.96121 9.82916 6.11798 9.79266 6.26179 9.7245C6.40561 9.65635 6.53312 9.55811 6.63571 9.43645V10.5941C6.36225 10.6924 6.07482 10.7465 5.7843 10.7541C5.26722 10.7531 4.7694 10.5578 4.38964 10.2069C4.19441 10.0301 4.0402 9.81284 3.93783 9.57022C3.83545 9.32759 3.78739 9.0655 3.79701 8.80233C3.79528 8.29471 3.99158 7.80642 4.34421 7.44126C4.71877 7.06447 5.22733 6.85138 5.75862 6.84863C6.06234 6.85155 6.36247 6.91467 6.64164 7.03432L6.63176 8.186Z" fill="black"/>
<path d="M11.1513 8.73107C11.1348 9.26518 10.9109 9.77187 10.5273 10.1438C10.1436 10.5158 9.63025 10.7238 9.09588 10.7238C8.56152 10.7238 8.04814 10.5158 7.66448 10.1438C7.28081 9.77187 7.057 9.26518 7.04044 8.73107C7.04044 7.60705 8.02815 6.81885 9.09686 6.81885C10.1656 6.81885 11.1513 7.60705 11.1513 8.73107ZM8.04594 8.73107C8.03979 8.87279 8.06239 9.01428 8.11238 9.14702C8.16238 9.27976 8.23872 9.40101 8.33682 9.50346C8.43492 9.60591 8.55275 9.68744 8.6832 9.74314C8.81366 9.79884 8.95404 9.82756 9.09588 9.82756C9.23773 9.82756 9.3781 9.79884 9.50855 9.74314C9.63901 9.68744 9.75684 9.60591 9.85494 9.50346C9.95304 9.40101 10.0294 9.27976 10.0794 9.14702C10.1294 9.01428 10.152 8.87279 10.1458 8.73107C10.1259 8.46624 10.0067 8.21871 9.81195 8.03809C9.61724 7.85747 9.36147 7.7571 9.09588 7.7571C8.8303 7.7571 8.57452 7.85747 8.37981 8.03809C8.1851 8.21871 8.06585 8.46624 8.04594 8.73107Z" fill="black"/>
<path d="M12.011 6.94336H12.9612L13.7158 8.92868L14.506 6.94336H15.466L16.029 10.6592H15.069L14.7983 8.51976H14.7884L13.8955 10.6592H13.5103L12.6589 8.51976H12.649L12.3389 10.6592H11.3769L12.011 6.94336Z" fill="black"/>
<path d="M16.4516 10.6592V6.94336H17.8344C18.4942 6.94336 18.9386 7.19819 18.9386 7.90935C18.9533 8.06208 18.9223 8.21571 18.8495 8.35077C18.7767 8.48582 18.6654 8.59621 18.5297 8.66792V8.67779C19.0611 8.75088 19.2883 9.10646 19.2883 9.62403C19.2883 10.4023 18.6285 10.6592 17.943 10.6592H16.4516ZM17.4176 8.40123H17.5262C17.787 8.40123 18.0497 8.35777 18.0497 8.0417C18.0497 7.72563 17.7435 7.68218 17.4867 7.68218H17.4176V8.40123ZM17.4176 9.91837H17.542C17.8324 9.91837 18.3105 9.93417 18.3105 9.52328C18.3105 9.19733 18.0438 9.12819 17.7731 9.12819H17.4176V9.91837Z" fill="black"/>
<path d="M23.7075 8.73107C23.6909 9.26518 23.4671 9.77187 23.0834 10.1438C22.6998 10.5158 22.1864 10.7238 21.652 10.7238C21.1177 10.7238 20.6043 10.5158 20.2206 10.1438C19.837 9.77187 19.6131 9.26518 19.5966 8.73107C19.5966 7.60705 20.5843 6.81885 21.651 6.81885C22.7178 6.81885 23.7075 7.60705 23.7075 8.73107ZM20.6021 8.73107C20.5959 8.87279 20.6185 9.01428 20.6685 9.14702C20.7185 9.27976 20.7949 9.40101 20.893 9.50346C20.9911 9.60591 21.1089 9.68744 21.2394 9.74314C21.3698 9.79884 21.5102 9.82756 21.652 9.82756C21.7939 9.82756 21.9343 9.79884 22.0647 9.74314C22.1952 9.68744 22.313 9.60591 22.4111 9.50346C22.5092 9.40101 22.5855 9.27976 22.6355 9.14702C22.6855 9.01428 22.7081 8.87279 22.702 8.73107C22.6821 8.46624 22.5628 8.21871 22.3681 8.03809C22.1734 7.85747 21.9176 7.7571 21.652 7.7571C21.3864 7.7571 21.1307 7.85747 20.936 8.03809C20.7412 8.21871 20.622 8.46624 20.6021 8.73107Z" fill="black"/>
<path d="M6.63176 8.186C6.53162 8.05803 6.40266 7.95554 6.25538 7.88688C6.10811 7.81822 5.9467 7.78534 5.7843 7.79091C5.65103 7.7908 5.51911 7.81765 5.39648 7.86986C5.27386 7.92207 5.16307 7.99856 5.07079 8.09472C4.97851 8.19087 4.90665 8.30471 4.85952 8.42938C4.8124 8.55404 4.79098 8.68696 4.79658 8.82011C4.78954 8.95428 4.81068 9.08845 4.85864 9.21395C4.9066 9.33946 4.98031 9.45352 5.07504 9.5488C5.16976 9.64408 5.28339 9.71847 5.40861 9.76717C5.53383 9.81586 5.66787 9.83779 5.80208 9.83153C5.96121 9.82916 6.11798 9.79266 6.26179 9.7245C6.40561 9.65635 6.53312 9.55811 6.63571 9.43645V10.5941C6.36225 10.6924 6.07482 10.7465 5.7843 10.7541C5.26722 10.7531 4.7694 10.5578 4.38964 10.2069C4.19441 10.0301 4.0402 9.81284 3.93783 9.57022C3.83545 9.32759 3.78739 9.0655 3.79701 8.80233C3.79528 8.29471 3.99158 7.80642 4.34421 7.44126C4.71877 7.06447 5.22733 6.85138 5.75862 6.84863C6.06234 6.85155 6.36247 6.91467 6.64164 7.03432L6.63176 8.186Z" stroke="#00CD4E" stroke-width="0.852941" stroke-miterlimit="10"/>
<path d="M11.1513 8.73107C11.1348 9.26518 10.9109 9.77187 10.5273 10.1438C10.1436 10.5158 9.63025 10.7238 9.09588 10.7238C8.56152 10.7238 8.04814 10.5158 7.66448 10.1438C7.28081 9.77187 7.057 9.26518 7.04044 8.73107C7.04044 7.60705 8.02815 6.81885 9.09686 6.81885C10.1656 6.81885 11.1513 7.60705 11.1513 8.73107ZM8.04594 8.73107C8.03979 8.87279 8.06239 9.01428 8.11238 9.14702C8.16238 9.27976 8.23872 9.40101 8.33682 9.50346C8.43492 9.60591 8.55275 9.68744 8.6832 9.74314C8.81366 9.79884 8.95404 9.82756 9.09588 9.82756C9.23773 9.82756 9.3781 9.79884 9.50855 9.74314C9.63901 9.68744 9.75684 9.60591 9.85494 9.50346C9.95304 9.40101 10.0294 9.27976 10.0794 9.14702C10.1294 9.01428 10.152 8.87279 10.1458 8.73107C10.1259 8.46624 10.0067 8.21871 9.81195 8.03809C9.61724 7.85747 9.36147 7.7571 9.09588 7.7571C8.8303 7.7571 8.57452 7.85747 8.37981 8.03809C8.1851 8.21871 8.06585 8.46624 8.04594 8.73107V8.73107Z" stroke="#00CD4E" stroke-width="0.852941" stroke-miterlimit="10"/>
<path d="M12.011 6.94336H12.9612L13.7158 8.92868L14.506 6.94336H15.466L16.029 10.6592H15.069L14.7983 8.51976H14.7884L13.8955 10.6592H13.5103L12.6589 8.51976H12.649L12.3389 10.6592H11.3769L12.011 6.94336Z" stroke="#00CD4E" stroke-width="0.852941" stroke-miterlimit="10"/>
<path d="M16.4516 10.6592V6.94336H17.8344C18.4942 6.94336 18.9386 7.19819 18.9386 7.90935C18.9533 8.06208 18.9223 8.21571 18.8495 8.35077C18.7767 8.48582 18.6654 8.59621 18.5297 8.66792V8.67779C19.0611 8.75088 19.2883 9.10646 19.2883 9.62403C19.2883 10.4023 18.6285 10.6592 17.943 10.6592H16.4516ZM17.4176 8.40123H17.5262C17.787 8.40123 18.0497 8.35777 18.0497 8.0417C18.0497 7.72563 17.7435 7.68218 17.4867 7.68218H17.4176V8.40123ZM17.4176 9.91836H17.542C17.8324 9.91836 18.3105 9.93417 18.3105 9.52328C18.3105 9.19733 18.0438 9.12819 17.7731 9.12819H17.4176V9.91836Z" stroke="#00CD4E" stroke-width="0.852941" stroke-miterlimit="10"/>
<path d="M23.7075 8.73107C23.6909 9.26518 23.4671 9.77187 23.0834 10.1438C22.6998 10.5158 22.1864 10.7238 21.652 10.7238C21.1177 10.7238 20.6043 10.5158 20.2206 10.1438C19.837 9.77187 19.6131 9.26518 19.5966 8.73107C19.5966 7.60705 20.5843 6.81885 21.651 6.81885C22.7178 6.81885 23.7075 7.60705 23.7075 8.73107ZM20.6021 8.73107C20.5959 8.87279 20.6185 9.01428 20.6685 9.14702C20.7185 9.27976 20.7949 9.40101 20.893 9.50346C20.9911 9.60591 21.1089 9.68744 21.2394 9.74314C21.3698 9.79884 21.5102 9.82756 21.652 9.82756C21.7939 9.82756 21.9343 9.79884 22.0647 9.74314C22.1952 9.68744 22.313 9.60591 22.4111 9.50346C22.5092 9.40101 22.5855 9.27976 22.6355 9.14702C22.6855 9.01428 22.7081 8.87279 22.702 8.73107C22.6821 8.46624 22.5628 8.21871 22.3681 8.03809C22.1734 7.85747 21.9176 7.7571 21.652 7.7571C21.3864 7.7571 21.1307 7.85747 20.936 8.03809C20.7412 8.21871 20.622 8.46624 20.6021 8.73107Z" stroke="#00CD4E" stroke-width="0.852941" stroke-miterlimit="10"/>
<path d="M6.63176 8.186C6.53162 8.05803 6.40266 7.95554 6.25538 7.88688C6.10811 7.81822 5.9467 7.78534 5.7843 7.79091C5.65103 7.7908 5.51911 7.81765 5.39648 7.86986C5.27386 7.92207 5.16307 7.99856 5.07079 8.09472C4.97851 8.19087 4.90665 8.30471 4.85952 8.42938C4.8124 8.55404 4.79098 8.68696 4.79658 8.82011C4.78954 8.95428 4.81068 9.08845 4.85864 9.21395C4.9066 9.33946 4.98031 9.45352 5.07504 9.5488C5.16976 9.64408 5.28339 9.71847 5.40861 9.76717C5.53383 9.81586 5.66787 9.83779 5.80208 9.83153C5.96121 9.82916 6.11798 9.79266 6.26179 9.7245C6.40561 9.65635 6.53312 9.55811 6.63571 9.43645V10.5941C6.36225 10.6924 6.07482 10.7465 5.7843 10.7541C5.26722 10.7531 4.7694 10.5578 4.38964 10.2069C4.19441 10.0301 4.0402 9.81284 3.93783 9.57022C3.83545 9.32759 3.78739 9.0655 3.79701 8.80233C3.79528 8.29471 3.99158 7.80642 4.34421 7.44126C4.71877 7.06447 5.22733 6.85138 5.75862 6.84863C6.06234 6.85155 6.36247 6.91467 6.64164 7.03432L6.63176 8.186Z" fill="white"/>
<path d="M11.1513 8.73107C11.1348 9.26518 10.9109 9.77187 10.5273 10.1438C10.1436 10.5158 9.63025 10.7238 9.09588 10.7238C8.56152 10.7238 8.04814 10.5158 7.66448 10.1438C7.28081 9.77187 7.057 9.26518 7.04044 8.73107C7.04044 7.60705 8.02815 6.81885 9.09686 6.81885C10.1656 6.81885 11.1513 7.60705 11.1513 8.73107ZM8.04594 8.73107C8.03979 8.87279 8.06239 9.01428 8.11238 9.14702C8.16238 9.27976 8.23872 9.40101 8.33682 9.50346C8.43492 9.60591 8.55275 9.68744 8.6832 9.74314C8.81366 9.79884 8.95404 9.82756 9.09588 9.82756C9.23773 9.82756 9.3781 9.79884 9.50855 9.74314C9.63901 9.68744 9.75684 9.60591 9.85494 9.50346C9.95304 9.40101 10.0294 9.27976 10.0794 9.14702C10.1294 9.01428 10.152 8.87279 10.1458 8.73107C10.1259 8.46624 10.0067 8.21871 9.81195 8.03809C9.61724 7.85747 9.36147 7.7571 9.09588 7.7571C8.8303 7.7571 8.57452 7.85747 8.37981 8.03809C8.1851 8.21871 8.06585 8.46624 8.04594 8.73107Z" fill="white"/>
<path d="M12.011 6.94336H12.9612L13.7158 8.92868L14.506 6.94336H15.466L16.029 10.6592H15.069L14.7983 8.51976H14.7884L13.8955 10.6592H13.5103L12.6589 8.51976H12.649L12.3389 10.6592H11.3769L12.011 6.94336Z" fill="white"/>
<path d="M16.4516 10.6592V6.94336H17.8344C18.4942 6.94336 18.9386 7.19819 18.9386 7.90935C18.9533 8.06208 18.9223 8.21571 18.8495 8.35077C18.7767 8.48582 18.6654 8.59621 18.5297 8.66792V8.67779C19.0611 8.75088 19.2883 9.10646 19.2883 9.62403C19.2883 10.4023 18.6285 10.6592 17.943 10.6592H16.4516ZM17.4176 8.40123H17.5262C17.787 8.40123 18.0497 8.35777 18.0497 8.0417C18.0497 7.72563 17.7435 7.68218 17.4867 7.68218H17.4176V8.40123ZM17.4176 9.91837H17.542C17.8324 9.91837 18.3105 9.93417 18.3105 9.52328C18.3105 9.19733 18.0438 9.12819 17.7731 9.12819H17.4176V9.91837Z" fill="white"/>
<path d="M23.7075 8.73107C23.6909 9.26518 23.4671 9.77187 23.0834 10.1438C22.6998 10.5158 22.1864 10.7238 21.652 10.7238C21.1177 10.7238 20.6043 10.5158 20.2206 10.1438C19.837 9.77187 19.6131 9.26518 19.5966 8.73107C19.5966 7.60705 20.5843 6.81885 21.651 6.81885C22.7178 6.81885 23.7075 7.60705 23.7075 8.73107ZM20.6021 8.73107C20.5959 8.87279 20.6185 9.01428 20.6685 9.14702C20.7185 9.27976 20.7949 9.40101 20.893 9.50346C20.9911 9.60591 21.1089 9.68744 21.2394 9.74314C21.3698 9.79884 21.5102 9.82756 21.652 9.82756C21.7939 9.82756 21.9343 9.79884 22.0647 9.74314C22.1952 9.68744 22.313 9.60591 22.4111 9.50346C22.5092 9.40101 22.5855 9.27976 22.6355 9.14702C22.6855 9.01428 22.7081 8.87279 22.702 8.73107C22.6821 8.46624 22.5628 8.21871 22.3681 8.03809C22.1734 7.85747 21.9176 7.7571 21.652 7.7571C21.3864 7.7571 21.1307 7.85747 20.936 8.03809C20.7412 8.21871 20.622 8.46624 20.6021 8.73107Z" fill="white"/>
<path d="M14.5997 13.3728H12.6201V15.6018H14.5997V13.3728Z" fill="#00CD4E"/>
<path d="M15.7107 17.8342V19.1787H10.7958L13.2938 16.4637C13.6984 16.0618 13.9465 15.5288 13.9936 14.9604C14.0043 14.7628 13.9369 14.5688 13.806 14.4204C13.6751 14.2719 13.4912 14.1808 13.2938 14.1666C13.201 14.1692 13.1097 14.191 13.0258 14.2306C12.9419 14.2703 12.8671 14.3269 12.8062 14.397C12.7453 14.467 12.6996 14.5489 12.672 14.6376C12.6444 14.7262 12.6354 14.8196 12.6458 14.9118C12.6451 14.9989 12.6538 15.0858 12.6717 15.171H10.9189C10.9578 13.7681 11.8585 12.8188 13.3035 12.8188C14.5832 12.8188 15.6621 13.6645 15.6621 14.9928C15.6621 15.8708 15.2895 16.373 14.6901 16.9367L13.7409 17.8212L15.7107 17.8342Z" fill="#D7007E"/>
<path d="M15.7107 17.8342V19.1787H10.7958L13.2938 16.4637C13.6984 16.0618 13.9465 15.5288 13.9936 14.9604C14.0043 14.7628 13.9369 14.5688 13.806 14.4204C13.6751 14.2719 13.4912 14.1808 13.2938 14.1666C13.201 14.1692 13.1097 14.191 13.0258 14.2306C12.9419 14.2703 12.8671 14.3269 12.8062 14.397C12.7453 14.467 12.6996 14.5489 12.672 14.6376C12.6444 14.7262 12.6354 14.8196 12.6458 14.9118C12.6451 14.9989 12.6538 15.0858 12.6717 15.171H10.9189C10.9578 13.7681 11.8585 12.8188 13.3035 12.8188C14.5832 12.8188 15.6621 13.6645 15.6621 14.9928C15.6621 15.8708 15.2895 16.373 14.6901 16.9367L13.7409 17.8212L15.7107 17.8342Z" fill="black"/>
<path d="M15.7107 17.8342V19.1787H10.7958L13.2938 16.4637C13.6984 16.0618 13.9465 15.5288 13.9936 14.9604C14.0043 14.7628 13.9369 14.5688 13.806 14.4204C13.6751 14.2719 13.4912 14.1808 13.2938 14.1666C13.201 14.1692 13.1097 14.191 13.0258 14.2306C12.9419 14.2703 12.8671 14.3269 12.8062 14.397C12.7453 14.467 12.6996 14.5489 12.672 14.6376C12.6444 14.7262 12.6354 14.8196 12.6458 14.9118C12.6451 14.9989 12.6538 15.0858 12.6717 15.171H10.9189C10.9578 13.7681 11.8585 12.8188 13.3035 12.8188C14.5832 12.8188 15.6621 13.6645 15.6621 14.9928C15.6621 15.8708 15.2895 16.373 14.6901 16.9367L13.7409 17.8212L15.7107 17.8342Z" stroke="#00CD4E" stroke-width="1.27579" stroke-miterlimit="10"/>
<path d="M15.7107 17.8342V19.1787H10.7958L13.2938 16.4637C13.6984 16.0618 13.9465 15.5288 13.9936 14.9604C14.0043 14.7628 13.9369 14.5688 13.806 14.4204C13.6751 14.2719 13.4912 14.1808 13.2938 14.1666C13.201 14.1692 13.1097 14.191 13.0258 14.2306C12.9419 14.2703 12.8671 14.3269 12.8062 14.397C12.7453 14.467 12.6996 14.5489 12.672 14.6376C12.6444 14.7262 12.6354 14.8196 12.6458 14.9118C12.6451 14.9989 12.6538 15.0858 12.6717 15.171H10.9189C10.9578 13.7681 11.8585 12.8188 13.3035 12.8188C14.5832 12.8188 15.6621 13.6645 15.6621 14.9928C15.6621 15.8708 15.2895 16.373 14.6901 16.9367L13.7409 17.8212L15.7107 17.8342Z" fill="white"/>
</svg>
