<svg width="34" height="35" viewBox="0 0 34 35" fill="none" xmlns="http://www.w3.org/2000/svg">
<path d="M28.8379 5.91211C32.1647 9.19336 33.8281 13.181 33.8281 17.875C33.8281 22.5234 32.1647 26.5111 28.8379 29.8379C25.5566 33.1647 21.569 34.8281 16.875 34.8281C12.5456 34.8281 8.76302 33.3698 5.52734 30.4531C5.07161 30.0885 5.04883 29.7012 5.45898 29.291L6.62109 28.1289C6.98568 27.7643 7.37305 27.7415 7.7832 28.0605C10.3809 30.3848 13.4115 31.5469 16.875 31.5469C20.6576 31.5469 23.8704 30.2253 26.5137 27.582C29.2025 24.8932 30.5469 21.6576 30.5469 17.875C30.5469 14.0924 29.2025 10.8796 26.5137 8.23633C23.8704 5.54753 20.6576 4.20312 16.875 4.20312C13.0924 4.20312 9.85677 5.54753 7.16797 8.23633L10.5176 11.5176C10.791 11.791 10.8594 12.11 10.7227 12.4746C10.5859 12.7936 10.3353 12.9531 9.9707 12.9531H1.15234C0.924479 12.9531 0.719401 12.8848 0.537109 12.748C0.400391 12.5658 0.332031 12.3607 0.332031 12.1328V3.45117C0.332031 3.08659 0.491536 2.83594 0.810547 2.69922C1.17513 2.5625 1.49414 2.63086 1.76758 2.9043L4.84375 5.91211C8.17057 2.58529 12.181 0.921875 16.875 0.921875C21.569 0.921875 25.5566 2.58529 28.8379 5.91211ZM22.4121 24.0273C22.0931 24.4375 21.7057 24.4831 21.25 24.1641L15.2344 19.7891V8.30469C15.2344 7.75781 15.5078 7.48438 16.0547 7.48438H17.6953C18.2422 7.48438 18.5156 7.75781 18.5156 8.30469V18.1484L23.1641 21.5664C23.6198 21.8854 23.6882 22.25 23.3691 22.6602L22.4121 24.0273Z" fill="#BEDAE9"/>
</svg>
