<svg width="40" height="40" viewBox="0 0 40 40" fill="none" xmlns="http://www.w3.org/2000/svg">
<path d="M19.9041 40C30.8968 40 39.8082 31.0457 39.8082 20C39.8082 8.9543 30.8968 0 19.9041 0C8.91136 0 0 8.9543 0 20C0 31.0457 8.91136 40 19.9041 40Z" fill="#27E2CC"/>
<path d="M19.2223 24.6708C16.6534 24.6708 14.5708 22.5782 14.5708 19.9969C14.5708 17.4157 16.6534 15.3231 19.2223 15.3231C21.7912 15.3231 23.8738 17.4157 23.8738 19.9969C23.8738 22.5782 21.7912 24.6708 19.2223 24.6708ZM23.4181 11.3851C22.1811 9.56596 20.282 8.45511 17.5434 8.45511C12.3307 8.45511 7.51562 12.8494 7.51562 19.9954C7.51562 27.1414 12.3751 31.5357 17.4103 31.5357C20.1046 31.5357 22.1367 30.4264 23.4181 28.4736V31.0917H30.9274V8.89914H23.4181V11.3851Z" fill="#1D4757"/>
</svg>
