<svg width="112" height="40" viewBox="0 0 112 40" fill="none" xmlns="http://www.w3.org/2000/svg">
<path d="M31.6343 0H24.7461V30.0982H31.6343V0Z" fill="white"/>
<path d="M41.2749 0H34.3867V30.0982H41.2749V0Z" fill="white"/>
<path d="M104.556 9.06732C102.316 9.06732 100.447 10.098 99.2036 11.787V9.47596H92.1875V30.0938H99.2448V18.7565C99.2448 16.282 100.406 15.1287 102.024 15.1287C103.852 15.1287 104.721 16.3228 104.721 18.4704V30.0984H111.901V16.9449C111.901 11.955 108.994 9.06732 104.556 9.06732Z" fill="white"/>
<path d="M85.2504 9.48022L81.3424 20.586L77.6538 9.48022H70.7153L67.0221 20.6132L63.329 9.48022H57.227L53.2824 20.6132L49.7949 9.48022H42.7422L46.0469 19.3737L49.6303 30.0981H56.1894L60.134 19.3374L63.9094 30.0981H70.4685L74.2623 19.3283L77.8229 29.2309L73.796 39.6238H80.9356L92.4722 9.48022H85.2504Z" fill="white"/>
<path d="M11.0018 24.1321C8.58847 24.1321 6.63218 22.1889 6.63218 19.7915C6.63218 17.3942 8.58847 15.4509 11.0018 15.4509C13.4152 15.4509 15.3715 17.3942 15.3715 19.7915C15.3715 22.1889 13.4152 24.1321 11.0018 24.1321ZM14.9419 11.7914C13.7809 10.1024 11.9937 9.07172 9.42036 9.07172C4.52049 9.07172 0 13.1535 0 19.7915C0 26.4296 4.5662 30.5114 9.29695 30.5114C11.8292 30.5114 13.7397 29.4807 14.9419 27.6646V30.0982H21.9991V9.48035H14.9419V11.7914Z" fill="white"/>
</svg>
