<svg width="130" height="62" viewBox="0 0 130 62" fill="none" xmlns="http://www.w3.org/2000/svg">
<g clip-path="url(#clip0_738_6735)">
<path d="M3.04626 0.343323C3.04626 0.343323 0.341797 0.343323 0.341797 3.06584V58.9342C0.341797 58.9342 0.341797 61.6567 3.04626 61.6567H58.544C58.544 61.6567 61.2484 61.6567 61.2484 58.9342V3.06584C61.2484 3.06584 61.2484 0.343323 58.544 0.343323H3.04626Z" stroke="white" stroke-width="0.897202" stroke-miterlimit="10"/>
<path d="M26.7148 13.7839H9.64398C8.71805 13.7839 7.96094 13.0217 7.96094 12.0896C7.96094 11.1575 8.71805 10.3953 9.64398 10.3953H26.7148C27.6408 10.3953 28.3979 11.1575 28.3979 12.0896C28.3979 13.0217 27.6408 13.7839 26.7148 13.7839Z" fill="white"/>
<path d="M26.7114 24.6074H13.1993C12.1796 24.6074 11.3441 23.7662 11.3441 22.7397C11.3441 21.7132 12.1796 20.872 13.1993 20.872H13.479H21.5924C22.52 20.872 23.2788 20.1082 23.2788 19.1743C23.2788 18.2405 22.52 17.4766 21.5924 17.4766H9.64739C8.71976 17.4766 7.96094 18.2405 7.96094 19.1743V26.3051C7.96094 27.2389 8.71976 28.0028 9.64739 28.0028H26.7472C27.6749 28.0028 28.3979 27.2389 28.3979 26.3051C28.3979 25.3712 27.639 24.6074 26.7114 24.6074Z" fill="white"/>
<path d="M50.5822 33.9967H36.2397C35.3138 33.9967 34.5566 34.7589 34.5566 35.691V49.9078C34.5566 50.8399 35.3138 51.6021 36.2397 51.6021C37.1656 51.6021 37.9227 50.8399 37.9227 49.9078V37.3853H48.8974V49.9078C48.8974 50.8399 49.6546 51.6021 50.5805 51.6021C51.5064 51.6021 52.2635 50.8399 52.2635 49.9078V35.691C52.2635 34.7589 51.5064 33.9967 50.5805 33.9967" fill="white"/>
<path d="M26.7148 37.3872H9.64398C8.71805 37.3872 7.96094 36.625 7.96094 35.6929C7.96094 34.7608 8.71805 33.9986 9.64398 33.9986H26.7148C27.6408 33.9986 28.3979 34.7608 28.3979 35.6929C28.3979 36.625 27.6408 37.3872 26.7148 37.3872Z" fill="white"/>
<path d="M26.7114 48.2087H13.1993C12.1796 48.2087 11.3441 47.3676 11.3441 46.3411C11.3441 45.3146 12.1796 44.4734 13.1993 44.4734H13.479H21.5924C22.52 44.4734 23.2788 43.7095 23.2788 42.7757C23.2788 41.8419 22.52 41.078 21.5924 41.078H9.64739C8.71976 41.078 7.96094 41.8419 7.96094 42.7757V49.9065C7.96094 50.8403 8.71976 51.6042 9.64739 51.6042H26.7472C27.6749 51.6042 28.3979 50.8403 28.3979 49.9065C28.3979 48.9726 27.639 48.2087 26.7114 48.2087Z" fill="white"/>
<path d="M51.9472 24.6126H34.8764C33.9505 24.6126 33.1934 25.3748 33.1934 26.3069C33.1934 27.239 33.9505 28.0012 34.8764 28.0012H51.9472C52.8732 28.0012 53.6303 27.239 53.6303 26.3069C53.6303 25.3748 52.8732 24.6126 51.9472 24.6126Z" fill="white"/>
<path d="M51.9436 13.7908H38.4315C37.4118 13.7908 36.5762 14.6319 36.5762 15.6584C36.5762 16.6849 37.4118 17.5261 38.4315 17.5261H38.7112H46.8246C47.7522 17.5261 48.511 18.2899 48.511 19.2238C48.511 20.1576 47.7522 20.9215 46.8246 20.9215H34.8779C33.9502 20.9215 33.1914 20.1576 33.1914 19.2238V12.093C33.1914 11.1592 33.9502 10.3953 34.8779 10.3953H51.9777C52.9053 10.3953 53.6283 11.1592 53.6283 12.093C53.6283 13.0269 52.8695 13.7908 51.9419 13.7908" fill="white"/>
<path d="M130.003 0.343201H69.6406V0.652188H130.003V0.343201Z" fill="white"/>
<path d="M70.5 55.8527L72.0466 51.9595H72.71L74.2566 55.8527H73.6222L73.2352 54.8519H71.5231L71.136 55.8527H70.5ZM71.7431 54.2958H73.0135L72.3774 52.6822L71.7431 54.2958Z" fill="white"/>
<path d="M75.1777 55.8527V51.9595H75.7302L77.8566 54.8245V51.9595H78.4654V55.8527H77.9129L75.7848 52.9894V55.8527H75.1777Z" fill="white"/>
<path d="M79.8848 55.8527V51.9595H82.6199V52.5431H80.4935V53.5456H82.1783V54.1292H80.4935V55.2691H82.6745V55.8527H79.8848Z" fill="white"/>
<path d="M83.5723 55.2691H86.6655V55.8527H83.5723V55.2691ZM83.6541 51.9595H86.582V52.5431H83.6541V51.9595ZM84.0122 53.5439H86.2222V54.1275H84.0122V53.5439Z" fill="white"/>
<path d="M87.3652 55.8527L88.9118 51.9595H89.5752L91.1218 55.8527H90.4875L90.1004 54.8519H88.3884L88.0013 55.8527H87.3652ZM88.6083 54.2958H89.8787L89.2427 52.6822L88.6083 54.2958Z" fill="white"/>
<path d="M92.0469 55.8527V51.9595H93.5935C93.9652 51.9595 94.2756 52.0796 94.5211 52.3217C94.7684 52.562 94.8912 52.859 94.8912 53.2109C94.8912 53.5628 94.7684 53.8597 94.5211 54.1018C94.2739 54.3421 93.9652 54.4623 93.5935 54.4623H92.6539V55.8527H92.0469ZM92.6539 53.9061H93.5935C93.7845 53.9061 93.9482 53.8391 94.0829 53.707C94.2176 53.5731 94.2841 53.4083 94.2841 53.2109C94.2841 53.0135 94.2159 52.8504 94.0829 52.7165C93.9482 52.5826 93.7862 52.5174 93.5935 52.5174H92.6539V53.9078V53.9061Z" fill="white"/>
<path d="M96.7259 55.8527V52.5431H95.5664V51.9595H98.4942V52.5431H97.333V55.8527H96.7259Z" fill="white"/>
<path d="M99.4707 55.8527V51.9595H100.078V53.6005H101.984V51.9595H102.593V55.8527H101.984V54.1567H100.078V55.8527H99.4707Z" fill="white"/>
<path d="M104.732 55.8527V52.5431H103.57V51.9595H106.498V52.5431H105.339V55.8527H104.732Z" fill="white"/>
<path d="M107.477 55.8527V51.9595H108.084V53.6005H109.99V51.9595H110.597V55.8527H109.99V54.1567H108.084V55.8527H107.477Z" fill="white"/>
<path d="M112.83 55.8527L114.376 51.9595H115.04L116.586 55.8527H115.95L115.563 54.8519H113.851L113.464 55.8527H112.828H112.83ZM114.073 54.2958H115.343L114.707 52.6822L114.073 54.2958Z" fill="white"/>
<path d="M117.51 55.8527V51.9595H119.056C119.428 51.9595 119.738 52.0796 119.984 52.3217C120.231 52.562 120.354 52.859 120.354 53.2109C120.354 53.5628 120.231 53.8597 119.984 54.1018C119.737 54.3421 119.428 54.4623 119.056 54.4623H118.117V55.8527H117.51ZM118.117 53.9061H119.056C119.247 53.9061 119.411 53.8391 119.546 53.707C119.68 53.5731 119.747 53.4083 119.747 53.2109C119.747 53.0135 119.679 52.8504 119.546 52.7165C119.411 52.5826 119.249 52.5174 119.056 52.5174H118.117V53.9078V53.9061Z" fill="white"/>
<path d="M120.863 55.8527L122.244 53.8237L120.974 51.9595H121.692L122.632 53.3791L123.571 51.9595H124.289L123.019 53.8237L124.4 55.8527H123.682L122.632 54.2683L121.581 55.8527H120.863Z" fill="white"/>
<path d="M125.322 55.8527V51.9595H125.931V53.6005H127.837V51.9595H128.445V55.8527H127.837V54.1567H125.931V55.8527H125.322Z" fill="white"/>
<path d="M70.6133 13.4975V7.09113H75.1116V8.05242H71.6125V9.70035H74.3852V10.6599H71.6125V12.5362H75.202V13.4975H70.6133Z" fill="white"/>
<path d="M76.5195 13.4975V7.09113H81.6556V13.4975H80.6547V8.05242H77.5188V13.4975H76.5195Z" fill="white"/>
<path d="M84.4739 7.09113H83.4746V13.4957H84.4739V7.09113Z" fill="white"/>
<path d="M87.4723 13.4975V8.05242H85.5625V7.09113H90.3797V8.05242H88.4716V13.4975H87.4723Z" fill="white"/>
<path d="M91.4707 13.4974V7.09277H94.0149C94.6271 7.09277 95.1369 7.2919 95.5427 7.68843C95.9486 8.08497 96.1515 8.57248 96.1515 9.15269C96.1515 9.7329 95.9486 10.2204 95.5427 10.6152C95.1369 11.0118 94.6271 11.2109 94.0149 11.2109H92.47V13.4974H91.4707ZM92.47 10.2959H94.0149C94.3303 10.2959 94.5981 10.1861 94.8197 9.96635C95.0414 9.74663 95.1505 9.47541 95.1505 9.15269C95.1505 8.82997 95.0397 8.55703 94.8197 8.33731C94.5981 8.11758 94.3303 8.00772 94.0149 8.00772H92.47V10.2959Z" fill="white"/>
<path d="M98.0272 12.6323C97.3826 11.9954 97.0586 11.2161 97.0586 10.2943C97.0586 9.37246 97.3809 8.59312 98.0272 7.95627C98.6717 7.31941 99.4698 7.00012 100.421 7.00012C101.373 7.00012 102.171 7.31941 102.815 7.95627C103.46 8.59312 103.784 9.37417 103.784 10.2943C103.784 11.2144 103.462 11.9937 102.815 12.6323C102.171 13.2708 101.373 13.5884 100.421 13.5884C99.4698 13.5884 98.6717 13.2691 98.0272 12.6323ZM98.745 8.60686C98.2881 9.0669 98.0596 9.62995 98.0596 10.2943C98.0596 10.9586 98.2881 11.5216 98.745 11.9817C99.202 12.4417 99.7613 12.6735 100.421 12.6735C101.081 12.6735 101.64 12.4434 102.099 11.9817C102.556 11.5216 102.785 10.9586 102.785 10.2943C102.785 9.62995 102.556 9.0669 102.099 8.60686C101.64 8.14681 101.083 7.91507 100.421 7.91507C99.7596 7.91507 99.202 8.14509 98.745 8.60686Z" fill="white"/>
<path d="M105.195 13.4975V7.09113H110.33V13.4975H109.33V8.05242H106.195V13.4975H105.195Z" fill="white"/>
<path d="M112.148 13.4975V7.09113H113.148V9.79133H116.284V7.09113H117.283V13.4975H116.284V10.7063H113.148V13.4975H112.148Z" fill="white"/>
<path d="M70.6133 24.4768V18.0704H75.1116V19.0317H71.6125V20.6797H74.3852V21.6392H71.6125V23.5155H75.202V24.4768H70.6133Z" fill="white"/>
<path d="M76.5195 24.4768V18.0704H81.6556V24.4768H80.6547V19.0317H77.5188V24.4768H76.5195Z" fill="white"/>
<path d="M84.0311 23.6116C83.3865 22.9748 83.0625 22.1955 83.0625 21.2736C83.0625 20.3518 83.3848 19.5725 84.0311 18.9356C84.6756 18.2988 85.4737 17.9795 86.4252 17.9795C87.3767 17.9795 88.1747 18.2988 88.8193 18.9356C89.4639 19.5725 89.7878 20.3535 89.7878 21.2736C89.7878 22.1937 89.4656 22.9731 88.8193 23.6116C88.1747 24.2502 87.3767 24.5678 86.4252 24.5678C85.4737 24.5678 84.6756 24.2485 84.0311 23.6116ZM84.749 19.5862C84.292 20.0463 84.0635 20.6093 84.0635 21.2736C84.0635 21.938 84.292 22.501 84.749 22.9611C85.206 23.4211 85.7653 23.6528 86.4252 23.6528C87.0851 23.6528 87.6444 23.4228 88.1031 22.9611C88.5601 22.501 88.7886 21.938 88.7886 21.2736C88.7886 20.6093 88.5601 20.0463 88.1031 19.5862C87.6444 19.1262 87.0868 18.8944 86.4252 18.8944C85.7636 18.8944 85.206 19.1245 84.749 19.5862Z" fill="white"/>
<path d="M91.1992 24.4768V18.0704H96.3336V24.4768H95.3344V19.0317H92.1985V24.4768H91.1992Z" fill="white"/>
<path d="M99.332 24.4768V19.0317H97.4238V18.0704H102.241V19.0317H100.331V24.4768H99.332Z" fill="white"/>
<path d="M103.332 24.4768V18.0704H107.832V19.0317H104.333V20.6797H107.104V21.6392H104.333V23.5155H107.922V24.4768H103.332Z" fill="white"/>
<path d="M110.239 18.0704H109.24V24.4751H110.239V18.0704Z" fill="white"/>
<path d="M111.238 24.4768L113.782 18.0721H114.874L117.418 24.4768H116.373L115.737 22.8288H112.92L112.284 24.4768H111.238ZM113.283 21.9156H115.373L114.328 19.2617L113.283 21.9156Z" fill="white"/>
<path d="M118.057 24.4768V23.6528L120.011 21.1363L118.057 18.8944V18.0704H122.645V19.0317H119.329L121.193 21.1363L119.329 23.5155H122.645V24.4768H118.057Z" fill="white"/>
<path d="M70.6133 35.4544V29.0498H71.6125V32.1603L74.4756 29.0498H75.7477L73.2939 31.7037L75.9301 35.4544H74.7024L72.6118 32.4349L71.6125 33.5336V35.4544H70.6133Z" fill="white"/>
<path d="M76.0215 35.4544L78.5657 29.0498H79.657L82.2012 35.4544H81.1559L80.5198 33.8065H77.7028L77.0668 35.4544H76.0215ZM78.066 32.8933H80.1566L79.1113 30.2394L78.066 32.8933Z" fill="white"/>
<path d="M84.2004 29.0498H83.2012V35.4544H84.2004V29.0498Z" fill="white"/>
<path d="M87.7441 35.4544V29.0498H92.2442V30.0111H88.7451V31.6573H91.5161V32.6186H88.7451V34.4948H92.3346V35.4544H87.7441Z" fill="white"/>
<path d="M92.834 35.4544L95.3799 29.0498H96.4695L99.0154 35.4544H97.9701L95.9255 30.2394L93.8793 35.4544H92.834Z" fill="white"/>
<path d="M100.006 35.4544V29.0498H104.504V30.0111H101.005V31.6573H103.778V32.6186H101.005V34.4948H104.595V35.4544H100.006Z" fill="white"/>
<path d="M105.912 35.4544V29.0498H110.001V30.0111H106.911V35.4544H105.912Z" fill="white"/>
<path d="M110.275 35.4544L112.548 32.1156L110.458 29.0498H111.64L113.184 31.3827L114.729 29.0498H115.911L113.821 32.1156L116.092 35.4544H114.912L113.184 32.8469L111.457 35.4544H110.275Z" fill="white"/>
<path d="M117.478 34.5892C116.834 33.9524 116.51 33.1731 116.51 32.2512C116.51 31.3294 116.832 30.5501 117.478 29.9132C118.123 29.2764 118.921 28.9571 119.872 28.9571C120.824 28.9571 121.622 29.2764 122.267 29.9132C122.911 30.5501 123.235 31.3311 123.235 32.2512C123.235 33.1713 122.913 33.9507 122.267 34.5892C121.622 35.2278 120.824 35.5454 119.872 35.5454C118.921 35.5454 118.123 35.2261 117.478 34.5892ZM118.196 30.5638C117.739 31.0239 117.511 31.5869 117.511 32.2512C117.511 32.9156 117.739 33.4786 118.196 33.9387C118.653 34.3987 119.213 34.6304 119.872 34.6304C120.532 34.6304 121.092 34.4004 121.55 33.9387C122.007 33.4786 122.236 32.9156 122.236 32.2512C122.236 31.5869 122.007 31.0239 121.55 30.5638C121.092 30.1038 120.534 29.872 119.872 29.872C119.211 29.872 118.653 30.1021 118.196 30.5638Z" fill="white"/>
<path d="M126.017 35.4544V33.1679L123.607 29.0498H124.743L126.517 32.1603L128.288 29.0498H129.426L127.016 33.1679V35.4544H126.017Z" fill="white"/>
<path d="M70.4316 46.4337V40.0291H76.1117V46.4337H74.3843V41.677H72.159V46.4337H70.4316Z" fill="white"/>
<path d="M76.793 46.4337L79.2007 40.0291H81.1089L83.5166 46.4337H81.6545L81.2009 45.0605H79.1103L78.6568 46.4337H76.793ZM79.5656 43.6425H80.7473L80.1744 41.8127H80.1386L79.5656 43.6425Z" fill="white"/>
<path d="M85.9285 40.0291H84.2012V46.4337H85.9285V40.0291Z" fill="white"/>
<path d="M87.3809 46.4337V40.0291H91.8349V41.677H89.1082V46.4337H87.3809Z" fill="white"/>
<path d="M92.7441 46.4337V40.0291H94.243L96.9696 43.5516V40.0291H98.697V46.4337H97.1964L94.4715 42.9113V46.4337H92.7441Z" fill="white"/>
<path d="M101.878 40.0291H100.15V46.4337H101.878V40.0291Z" fill="white"/>
<path d="M103.197 46.4338V45.0605H104.152C103.94 44.9198 103.758 44.7533 103.606 44.5576C103.243 44.1181 103.061 43.586 103.061 42.9577C103.061 42.0908 103.391 41.3561 104.051 40.7519C104.713 40.1476 105.564 39.8455 106.606 39.8455C107.648 39.8455 108.498 40.1476 109.16 40.7519C109.82 41.3561 110.151 42.0908 110.151 42.9577C110.151 43.586 109.968 44.1181 109.605 44.5576C109.453 44.7533 109.271 44.9215 109.059 45.0605H110.014V46.4338H107.061V44.9696C107.939 44.7069 108.379 44.1284 108.379 43.2306C108.379 42.7071 108.209 42.2694 107.866 41.9226C107.523 41.5758 107.104 41.4008 106.607 41.4008C106.111 41.4008 105.683 41.5741 105.344 41.9226C105.004 42.2694 104.836 42.7071 104.836 43.2306C104.836 44.1267 105.274 44.7069 106.152 44.9696V46.4338H103.199H103.197Z" fill="white"/>
<path d="M111.33 46.4337V40.0291H112.829L115.556 43.5516V40.0291H117.283V46.4337H115.782L113.057 42.9113V46.4337H111.33Z" fill="white"/>
<path d="M130.003 61.4162H69.6406V61.7252H130.003V61.4162Z" fill="white"/>
</g>
<defs>
<clipPath id="clip0_738_6735">
<rect width="130" height="62" fill="white"/>
</clipPath>
</defs>
</svg>
